<?xml version="1.0" encoding="UTF-8"?>
<svg version="1.1" viewBox="0 0 1372 1196" width="1280" height="1280" xmlns="http://www.w3.org/2000/svg">
<path transform="translate(1066,66)" d="m0 0h11l12 2 10 5 6 7 4 11v12l-4 17-6 16-12 24-13 20-14 20-13 18-13 16-9 11-9 10-8 10-14 15-10 11-7 8-23 23-7 8-25 25-8 7-17 17-8 7-15 14-7 6 30 1 1 1v65l-1 1h-65l-1-6v-13l1-17-8 6-10 9-11 9-12 10-8 6-1 41h-43l-1-3-5 3-17 13h-2l1 10-1 45-3 1h-48l-1-1v-14l-18 12-20 14 15 1 5 1v27l-26 1-2-1v-23l-17 12-20 13-19 12-23 14-15 10-22 12-20 12-19 10-15 8-23 11-32 14-21 8-24 7-23 5-15 1-15-2-9-4-9-8-4-9v-16l4-15 6-16 11-22 12-19 9-13 12-17 14-18 14-17 12-14 9-11 12-13 11-12 30-32 31-31 8-7 7-7 5 1 5 3 1 3-9 10-21 21-7 8-11 11-7 8-9 10-11 13-13 16-10 14-10 15-8 14-7 19v12l4 5 7 3h16l17-4 20-7 20-9 16-8 28-15 17-10 21-13 18-11 4-4-8-1v-43h43v21l6-3 14-10 36-26 21-16 11-8 7-6 1-2h-24l-1-5v-43l1-9 2-1h55l1 1 1 30 8-6 11-9h2l1-41 1-2h30l15 1 8-7 14-12 32-30 1-1 1-22 22-1 8-7 31-31 7-8 9-10 9-11 12-14 18-24 11-17 8-16 4-13v-11l-4-6-7-3h-12l-20 4-23 8-25 12-20 10-22 12-28 17-16 10-7 5-5-1-4-7v-3l38-25 20-13 17-10 24-14 29-16 19-9 21-8 20-6 23-4 16-1 15 3 9 6 6 9 2 7v15l-4 14-6 15-13 25-14 22-16 21-9 12-11 13-9 11-9 10-7 8-12 13-7 8-5 6 8-7 12-12 7-8 13-13 7-8 9-10 9-11 8-9 15-20 11-14 18-27 9-16 8-16 6-18 1-5v-19l-5-10-5-4-11-4h-28l-5 1h-7l3-3 19-6 27-6zm-145 247-2 3 3-1zm-3 3m-1 1m-1 1m-1 1m-1 1m-1 1m-1 1m-1 1m-290 239m-2 1m-1 1m-2 1m-2 1-1 2 3-1zm-3 2-1 2 3-1zm-3 2-1 2 3-1zm-3 2-21 13-15 9-26 15-23 13-36 18-38 16-28 9-24 5-18 1-13-2-8-4-6-7-3-6-1-8 3-19 8-21 4-8-1-2-6 8-11 17-8 16-5 12-3 12v13l3 7 4 5 10 5 8 2h14l15-2 26-7 26-10 33-15 30-15 23-13 29-17 19-12 23-15 17-11 1-2z" fill="#3FA8E6"/>
<path transform="translate(473,451)" d="m0 0 5 1 5 3 1 3-9 10-21 21-7 8-11 11-7 8-9 10-11 13-13 16-10 14-10 15-8 14-7 19v12l4 5 7 3h16l17-4 20-7 20-9 16-8 28-15h3l3 1-1 4h2l-2 7h2v2l5 1 3 3 1 7-6 8 3 5-27 13-29 12-28 9-24 5-18 1-13-2-8-4-7-8-3-6-1-8 3-19 8-21 4-9-9 13-11 18-8 18-3 9-1 6v13l3 7 5 5 8 4 8 2h14l15-2 26-7 26-10 33-15 30-15 12-7h2v2l-9 6-10 9-5 9-3 5 5 2v5l6-1 6-4 5-4 4 1-5 5-1 4-7 4-5 1v3l-7 1-1 3h-2l-1 2-5 2-6 3-7 3-5 3-7 4-5 3-13 6-1 2-5 1-3 3-6 1v4l-25 11-21 8-24 7-23 5-15 1-15-2-9-4-9-8-4-9v-16l4-15 6-16 11-22 12-19 9-13 12-17 14-18 14-17 12-14 9-11 12-13 11-12 30-32 31-31 8-7z" fill="#38D9E8"/>
<path transform="translate(1e3 95)" d="m0 0h8l15 3 9 6 6 9 2 7v15l-4 14-6 15-13 25-14 22-16 21-9 12-11 13-9 11-9 10-7 8-12 13-7 8-6 7-6 3-8 8h-2l-1 3-8 7-7 6-3 3h-2v2l-6 4-7 8-3 1v2l-11 9-3 3-11 4v-2l3-2 1-9 6-9 1-7h-2v-4h2l-1-2-2-1 1-4h2l-1-3 3-8 4-4 6-12 1-4-1-2h6l2-11 26-26 7-8 9-10 9-11 12-14 18-24 11-17 8-16 4-13v-11l-4-6-7-3h-12l-20 4-23 8-25 12-20 10-22 12-28 17-16 10-7 5-5-1-4-7v-3l38-25 20-13 17-10 24-14 29-16 19-9 21-8 20-6 23-4z" fill="#4D71E3"/>
<path transform="translate(1066,66)" d="m0 0h11l12 2 10 5 6 7 4 11v12l-4 17-6 16-12 24-13 20-14 20-13 18-13 16-9 11-9 10-8 10-14 15-10 11-7 8-23 23-7 8-25 25-8 7-17 17-8 7-14 13-7 2h-8l1-5v-6l-5-3 3-9 3-4h2v-2h2v-2h2v-2h2v-2l8-7h2l2-4 8-7 13-13 8-7 8-9 2-1 1-5 8-7 12-12 7-8 13-13 7-8 9-10 9-11 8-9 15-20 11-14 18-27 9-16 8-16 6-18 1-5v-19l-5-10-5-4-11-4h-28l-5 1h-7l3-3 19-6 27-6z" fill="#4D71E3"/>
<path transform="translate(290,912)" d="m0 0h56l20 1 10 4 10 8 6 9 3 8 1 9v45l-1 15-4 10-9 10-5 4-9 4-7 1h-72v-41l1-1h25v16l48-1 3-1 2-6v-61l-1-5-4-1-48-1v51l-21 1-5-1v-76z" fill="#4D71E3"/>
<path transform="translate(847,912)" d="m0 0 74 1 10 3 11 8 7 10 3 10v64l-3 10-7 10-8 7-10 4-8 1h-70v-42h24l2 1v15h20l28-1 3-1 2-5v-62l-3-5-3-1-47-1v50l-1 1h-25v-76z" fill="#4D71E3"/>
<path transform="translate(751,912)" d="m0 0h19l16 2 9 4 9 7 6 10 3 9v95l-1 1h-24l-1-37v-13l-45-1v-26h45l-1-18-1-5-7-1h-36l-6 2-2 4-1 94-1 1h-24l-1-1v-92l3-12 6-9 9-8 9-4 4-1z" fill="#4D72E3"/>
<path transform="translate(473,451)" d="m0 0 5 1 5 3 1 3-9 10-21 21-7 8-11 11-7 8-9 10-11 13-13 16-10 14-10 15-8 14-7 19v12l4 5 7 3h16l17-4 20-7 20-9 16-8 28-15h3l3 1-1 4h2l-2 7h2v2l5 1 3 3 1 7-6 8 3 5-27 13-29 12-28 9-24 5-18 1-13-2-8-4-7-8-3-6-1-8 3-19 8-21 4-9-8 11-1-2 4-10 5-9h2l1-4 6-7 7-4 3 3 4-6 2-5 3-4-1-2 6-3h2l1-3 3-5h-3l-1 2-4-2-2 5-4-2 2-3h2l1-4 2-1 1-5 3-5 7-7 7-8 8-8 7-8 34-34 8-7z" fill="#3CC6E7"/>
<path transform="translate(607,912)" d="m0 0h22l17 2 10 4 9 8 5 8 4 16v4h-25l-2-6-3-7-6-2h-35l-7 2-2 5v60l1 6 5 1h41l3-1 3-8 1-6h25v11l-4 11-7 9-7 6-10 4-8 1h-37l-13-4-10-8-7-11-2-5-1-6v-58l3-12 6-10 8-7 10-5z" fill="#4D71E3"/>
<path transform="translate(1066,66)" d="m0 0h11l12 2 10 5 6 7 4 11v12l-4 17-6 16-12 24-13 20-14 20-13 18-13 16-9 11-9 10-3 4-4 1-1-5 1-2h2v-2h2l2-7 6-10 10-11v-5l-6 3 2-5 3-1 1-9 4-5 4-9v-5l-5-1 1-6 10-16 8-16 6-14 4-15v-19l-5-10-5-4-11-4h-28l-5 1h-7l3-3 19-6 27-6z" fill="#5061E0"/>
<path transform="translate(725,279)" d="m0 0h76l1 1v77h-77l-1-2v-75z" fill="#3FA8E6"/>
<path transform="translate(429,913)" d="m0 0h105v25h-80l1 25h64l2 1 1 9v15l-1 1h-92l-1-1v-73z" fill="#4D71E3"/>
<path transform="translate(1082,912)" d="m0 0h7l2 1v24l-1 1h-79l1 25 66 1v24l-1 1h-91l-1-1v-75z" fill="#4D71E3"/>
<path transform="translate(561,192)" d="m0 0h72l1 1v72h-73l-1-1v-71z" fill="#3CC7E8"/>
<path transform="translate(507,634)" d="m0 0h2v2l-9 6-10 9-5 9-3 5 5 2v5l6-1 6-4 5-4 4 1-5 5-1 4-7 4-5 1v3l-7 1-1 3h-2l-1 2-5 2-6 3-7 3-5 3-7 4-5 3-13 6-1 2-5 1-3 3-6 1v4l-25 11-18 7-1-2 6-5 15-8 2-5-6-2 1-2 5 1v-1l-7-2-1-2 4-1-2-4-5-3-1-7-5-1-1-4-2-1v-2l24-6 21-7 23-10 24-11 28-14z" fill="#3CC6E7"/>
<path transform="translate(578,374)" d="m0 0h58l1 1v57l-2 1h-54l-3-1z" fill="#3FA8E6"/>
<path transform="translate(798,544)" d="m0 0h58v57l-1 1h-57l-1-1v-56z" fill="#4D72E3"/>
<path transform="translate(881,408)" d="m0 0h17v65l-1 1h-65l-1-6v-13l2-12 7-3 15-1 7-2 5-5 6-4 4-9 1-4z" fill="#4D71E3"/>
<path transform="translate(429,998)" d="m0 0h24l4 12 3 3 44 1h29l1 1v25h-74l-11-3-10-8-7-10-3-7-1-5v-7z" fill="#4D71E3"/>
<path transform="translate(986,998)" d="m0 0h24l4 13 2 2 75 2v24l-1 1h-74l-10-3-9-7-7-9-4-9-1-5v-8z" fill="#4D71E3"/>
<path transform="translate(473,451)" d="m0 0 5 1 5 3 1 3-9 10-21 21-7 8-11 11-7 8-9 10-11 13-13 16-10 14-10 15-8 14-2 5-3-3 2-4-1-3-5 10-4 6-1-2 5-12-8 11-1-2 4-10 5-9h2l1-4 6-7 7-4 3 3 4-6 2-5 3-4-1-2 6-3h2l1-3 3-5h-3l-1 2-4-2-2 5-4-2 2-3h2l1-4 2-1 1-5 3-5 7-7 7-8 8-8 7-8 34-34 8-7z" fill="#3BC7E7"/>
<path transform="translate(494,248)" d="m0 0h44l1 1v44h-45z" fill="#3BC7E8"/>
<path transform="translate(894,542)" d="m0 0h39l5 1v43l-1 1h-43l-1-1v-43z" fill="#4D71E3"/>
<path transform="translate(577,296)" d="m0 0h40l1 8v33l-2 2h-31l-8-1-1-2v-39z" fill="#3FA9E6"/>
<path transform="translate(503,394)" d="m0 0h40l1 1v40l-1 1h-41v-41z" fill="#3FA8E6"/>
<path transform="translate(364,592)" d="m0 0 2 3-1 4v3l-2 9-2 6v12l4 5 7 3 19 1-2 5h-2v2l-9 3-2 1-5-2 1 12h7l2 4h2v2l8-1 2 5-4 2-13 1-13-2-8-4-7-8-3-6-1-8 3-19 6-16 3-3 5-8z" fill="#38D9E8"/>
<path transform="translate(681,233)" d="m0 0 36 1v37h-37v-37z" fill="#3FA8E6"/>
<path transform="translate(506,317)" d="m0 0h34l2 2v34l-1 1h-36v-36z" fill="#3FA8E6"/>
<path transform="translate(839,624)" d="m0 0h14l22 1v35l-1 1-34 1-2-1v-36z" fill="#5062E0"/>
<path transform="translate(734,633)" d="m0 0h36l1 1v34l-1 1h-36z" fill="#4D73E3"/>
<path transform="translate(1230,1111)" d="m0 0 9 1 8 11 10 15 1-26 1-1h8l1 1v44l-1 2-5 1-5-3-9-12-8-12v-2h-2l1 2v26l-1 1h-8l-1-1v-42z" fill="#3FACE6"/>
<path transform="translate(303,1111)" d="m0 0h8l5 6 12 18 3 4v-27l1-1h8l1 1 1 35-1 9-1 2h-7l-5-5-7-10-7-11v-2h-2v29h-9l-1-2v-44z" fill="#3FAAE6"/>
<path transform="translate(709,547)" d="m0 0 4 2 1 1v37h-45v-2l-3-1 14-14 7-9 3-1v-2l12-9z" fill="#4E70E3"/>
<path transform="translate(926,478)" d="m0 0 34 1v33l-7 1h-26l-1-1z" fill="#4D71E3"/>
<path transform="translate(925,352)" d="m0 0h32l1 1v31l-3 2h-30l-1-2v-31z" fill="#4D73E3"/>
<path transform="translate(205,1111)" d="m0 0h17l7 3 4 5 1 2v10l-6 7 1 6 5 9 2 5-2 1-9-1-6-9-4-7-4-1-1 1-1 16-1 1h-8l-1-2v-34l2-8zm6 8-2 2v10l1 1h10l4-2 1-5-3-5-3-1z" fill="#3FAAE6"/>
<path transform="translate(652,349)" d="m0 0h33l1 32-1 1-30 1-4-2v-31z" fill="#3FA8E6"/>
<path transform="translate(586,1111)" d="m0 0h24l8 4 4 7 1 5v18l-3 7-5 5-6 2h-13l-7-3-3-6-1-9zm11 8-2 2v20l1 8 1 1h10l5-4 1-6v-10l-2-8-2-2-4-1z" fill="#3FAAE6"/>
<path transform="translate(829,489)" d="m0 0h33v32l-1 1h-32l-1-1v-30z" fill="#4D73E3"/>
<path transform="translate(755,1111)" d="m0 0h21l9 3 5 7 1 3v23l-5 8-6 3-5 1h-11l-5-2-4-5-1-3v-37zm11 8-2 1v25l1 4 4 2 7-1 5-4 1-7v-10l-2-7-5-3z" fill="#3FAAE6"/>
<path transform="translate(866,1111)" d="m0 0h8l9 3 4 5 3 9v15l-2 7-5 6-9 3h-8l-8-3-6-8-2-8v-10l3-10 6-7zm2 8-5 3-2 3-1 6v9l3 8 5 3 6-1 5-4 1-3v-17l-3-5-4-2z" fill="#3FABE6"/>
<path transform="translate(490,1111)" d="m0 0 3 1v18h18l1-19h8l1 1v46l-3 1-6-1-1-19h-17l-1 20h-7l-2-1v-46z" fill="#3FA8E6"/>
<path transform="translate(988,1111)" d="m0 0h10l5 5 5 8 4-5 5-7 2-1h8l1 2-11 18-1 5 9 14 4 6v3h-7l-5-3-7-9v-2l-5 4-6 8-3 2h-6l-2-1 2-6 7-10 4-6-1-5-12-19z" fill="#3FAAE6"/>
<path transform="translate(105,1110)" d="m0 0h4v5l-9 14-3 6 9 14 5 7-1 3-10-1-6-8-3-5-2-1-2 5-7 9-2 1h-7l-3-2h2l2-5 7-10 4-7-2-5-11-18v-1h10l4 4 5 9 3-1 7-11z" fill="#3FABE6"/>
<path transform="translate(33,1111)" d="m0 0h33v7l-1 1-17 1h-6l1 7v3l5-1h8l3 3v5l-2 2h-14l1 11h21l1 2v6l-3 1h-20l-6-2-3-4-1-4z" fill="#3FA9E6"/>
<path transform="translate(117,1111)" d="m0 0h22l8 3 4 7v13l-6 7-5 2h-14v15l-1 1h-7l-2-3v-42zm10 8-1 1v13l4 2 10-2 1-1v-9l-2-3-3-1z" fill="#3FAAE6"/>
<path transform="translate(263,1111)" d="m0 0h32v8l-5 1-18-1 1 10 14 1 1 1v7l-15 1v10l7 1h13l2 1v7l-1 1h-23l-5-2-3-4-1-5v-36z" fill="#3FAAE6"/>
<path transform="translate(1189,1111)" d="m0 0h32l1 1v7h-23v11h15l1 1v6l-1 1h-15l1 11 17 1 5 1v7l-1 1h-23l-5-2-4-6z" fill="#3FABE6"/>
<path transform="translate(530,1111)" d="m0 0h32l1 1v7l-23 1 1 10h14l1 1v7l-14 1-1 11h21l1 1v7h-27l-5-5-1-4z" fill="#3FA9E6"/>
<path transform="translate(951,1111)" d="m0 0h32l1 1v6l-5 2h-19l1 10h15l1 7-1 1-14 1v10l5 1h14l3 2v6l-2 1h-19l-7-1-4-5-1-4z" fill="#3FAAE6"/>
<path transform="translate(929,542)" d="m0 0 9 1v43l-1 1h-43v-12l3 3 6-9 2 4 11-2 10-7 5-6 1-4v-1l-4-2-3-6z" fill="#5060E0"/>
<path transform="translate(1318,1111)" d="m0 0h29l3 2v5l-1 1-21 1v10h14l1 1v6l-1 1-13 1v10l3 1 17 1 1 1v5l-1 1-9 1h-15l-5-3-3-9v-30z" fill="#3FABE6"/>
<path transform="translate(631,1111)" d="m0 0h32v8l-1 1h-21l-1 10h15v8l-14 1v10l3 1h18l1 1v7l-4 1h-18l-7-2-3-5-1-8v-31z" fill="#3FAAE6"/>
<path transform="translate(1076,1111)" d="m0 0h31l1 1v7l-22 1v10h14l1 1v7l-3 1h-11v10l4 1h16l1 1v7l-8 1h-16l-6-3-2-4-1-13v-26z" fill="#3FAAE6"/>
<path transform="translate(159,1111)" d="m0 0h31l1 1v7l-5 1-18-1 1 10 15 1v8l-15 1v11h20l2 1v7l-2 1h-20l-7-2-3-6z" fill="#3FA9E6"/>
<path transform="translate(391,1111)" d="m0 0h32v8l-2 1h-20v10h14l1 1v6l-1 1-14 1v11h21l1 1v7l-8 1h-13l-8-2-2-3-1-5z" fill="#3FA9E6"/>
<path transform="translate(1288,1111)" d="m0 0h8l8 3 5 5 1 2v7l-7-1-6-6-7-1-4 4-1 2v17l3 5 3 2 5-1 5-5 3-5h6l1 1-1 10-4 5-6 3-4 1h-8l-7-3-6-8-1-3v-18l4-10 5-4z" fill="#3FABE6"/>
<path transform="translate(726,1111)" d="m0 0 5 1 3 5 10 27 4 12-1 3h-6l-4-4-1-4h-14l-2 1-3 6-4 1-5-1 1-6 10-29 5-10zm1 17-4 10v5h10l-1-8-3-7z" fill="#3FAAE6"/>
<path transform="translate(361,1111)" d="m0 0h10l8 4 4 5 1 7-4 1-8-4-4-3-8-1-2 5v18l2 5 6 2 6-3 4-7 7-1 1 1-1 10-5 6-7 3h-11l-6-3-4-5-2-4-1-6v-10l3-12 8-7z" fill="#3FABE6"/>
<path transform="translate(799,1111)" d="m0 0h32v8l-2 1h-20l-1 10h15l1 1v7l-15 1v11h21l1 1v7l-20 1-7-1-4-4-1-3z" fill="#3FA9E6"/>
<path transform="translate(681,1111)" d="m0 0h11l8 4 3 4 1 8-5 1-9-7h-9l-3 9v9l2 8 2 2h8l5-5 2-4 6-1 1 1v7l-3 6-6 5-4 1h-10l-6-3-5-6-2-6v-16l4-11 6-5z" fill="#3FAAE6"/>
<path transform="translate(1045,1111)" d="m0 0h10l8 3 4 5 1 8-4 1-5-3-6-5h-6l-4 5-1 5v10l3 8 6 2 6-3 4-7 6-1 1 1v9l-7 8-7 2h-8l-7-3-6-8-2-13 2-11 3-7 6-5z" fill="#3FAAE6"/>
<path transform="translate(562,456)" d="m0 0h27l1 1v27l-1 1h-26l-1-1z" fill="#40A8E6"/>
<path transform="translate(1031,102)" d="m0 0 5 2 6 9 2 7v15l-4 14-6 15-4 7-4 2-3-2-1-7-1-4h2l3-10 3-8h2v-15l-2-12-1-9 1-3z" fill="#5061E0"/>
<path transform="translate(666,646)" d="m0 0h27l1 2v25l-1 1h-27z" fill="#4D73E3"/>
<path transform="translate(903,1111)" d="m0 0h26l1 1v6l-1 2h-22v10h18v8l-4 1-14-1v12l-1 8-1 1-7-1-1-1v-35l2-9z" fill="#3FAAE6"/>
<path transform="translate(839,244)" d="m0 0h12l14 1v27l-22 1-6-2v-25z" fill="#3FA8E6"/>
<path transform="translate(465,502)" d="m0 0h25l1 1v27h-26l-1-12v-15z" fill="#3FA9E6"/>
<path transform="translate(717,190)" d="m0 0h25l1 1v25l-1 1h-25l-1-1v-15z" fill="#3FAAE6"/>
<path transform="translate(780,487)" d="m0 0h1v31l-2 1h-37l2-6 12-9 10-7 6-3 5-5z" fill="#4D70E3"/>
<path transform="translate(652,292)" d="m0 0h27v25l-1 1h-25l-1-1z" fill="#3FA8E6"/>
<path transform="translate(442,1111)" d="m0 0h29l7 1 1 1v5l-1 1-13 1v38l-1 1h-8l-1-2v-37h-11l-2-1z" fill="#3FAAE6"/>
<path transform="translate(1153,1111)" d="m0 0h9l1 1v38h20l1 1v7l-1 1h-22l-5-3-3-4-1-3v-37z" fill="#3FADE6"/>
<path transform="translate(635,601)" d="m0 0h9v27l-26 1-1-1v-15l4-6 13-5z" fill="#4D70E3"/>
<path transform="translate(1117,1111)" d="m0 0h8l1 1 1 37 20 1v8l-6 1h-17l-5-3-3-7v-37z" fill="#3FAAE6"/>
<path transform="translate(929,414)" d="m0 0 21 1 1 1v20l-1 1h-21l-1-1v-21z" fill="#4C77E3"/>
<path transform="translate(766,239)" d="m0 0 21 1 1 7v14l-1 1h-22v-22z" fill="#3FA8E6"/>
<path transform="translate(561,192)" d="m0 0h55v1l-20 4-17 2-6 2-4 4-3 17-1 7-1 6-3 3-1-45z" fill="#38D9E8"/>
<path transform="translate(739,562)" d="m0 0h21l1 1v21h-22z" fill="#4D70E3"/>
<path transform="translate(656,193)" d="m0 0h21l1 1v20l-1 1-21-1-1-1v-12z" fill="#3CC2E7"/>
<path transform="translate(243,1111)" d="m0 0h10v47l-1 1h-8l-1-1z" fill="#3FA9E6"/>
<path transform="translate(33,1131)" d="m0 0 2 1v3l6 1v-3l10-2-1 6 7 1v1h-14l1 11h21l1 2v6l-3 1h-20l-6-2-3-4-1-4z" fill="#3CC5E7"/>
<path transform="translate(860,186)" d="m0 0h20l1 1v19l-1 1-11 1h-9l-1-1v-20z" fill="#3FA8E6"/>
<path transform="translate(473,365)" d="m0 0h16l2 2v8l-1 7-1 1h-14l-3-1-1-8 1-8z" fill="#3FABE6"/>
<path transform="translate(494,248)" d="m0 0h28v1l-12 2-8 5-2 9v18l5 6v2l-7-1v-2l-2-1v-5h-1l-1-5z" fill="#38D8E8"/>
<path transform="translate(506,317)" d="m0 0h34l-3 6h-3v2h-2v-5l-11-1-2 1-5 4-5 1h-3l2 6 3 4v13l-4 1-1 5h-1v-36z" fill="#3CC6E7"/>
<path transform="translate(769,654)" d="m0 0h1v15h-36v-7h1v5h5l4-5h12l5 3h2v-3l3-3z" fill="#505FE0"/>
<path transform="translate(473,451)" d="m0 0 5 1 5 3 1 3-7 8-4-1-1-2h-2v-4l-3-2z" fill="#3FAAE6"/>
<path transform="translate(812,598)" d="m0 0 7 1 4-1h3v2h2v-2h7l1 1h3v2l3-1 2-2 1 2 5-2 1 2-1 2h-45l1-3z" fill="#505FE0"/>
<path transform="translate(812,443)" d="m0 0 4 2h5l-1 3-11 9-4 2-1-4 1-5 3-4h2v-2z" fill="#4C74E3"/>
<path transform="translate(51,1150)" d="m0 0h14l1 2v6l-3 1h-10v-3l-2-3z" fill="#3CC2E7"/>
<path transform="translate(925,352)" d="m0 0h32v1l-23 1v2h-3l-1 4-3-1-1 1-1 24h-1v-31z" fill="#40A8E6"/>
<path transform="translate(505,330)" d="m0 0 4 2 2 3v13l-4 1-1 5h-1z" fill="#3CC6E7"/>
<path transform="translate(392,533)" d="m0 0 2 1-4 8-5 5-1 5h-3l-1 3-6-1 6-8 8-8z" fill="#39D3E8"/>
<path transform="translate(436,708)" d="m0 0 5 1-4 3-18 9h-3v-3l7-3 4-3 3-1 4-2z" fill="#3FAFE6"/>
<path transform="translate(669,193)" d="m0 0 7 1 1 1v9l-4 1-3-3 1-2h-2l-1-6z" fill="#40A8E6"/>
<path transform="translate(522,919)" d="m0 0 4 2 4 10-5-1-7-4v-6z" fill="#515FE0"/>
<path transform="translate(48,1129)" d="m0 0h8l3 3v5l-1 1h-9l1-7z" fill="#3FADE6"/>
<path transform="translate(381,1139)" d="m0 0 3 1-1 10-5-2-2 1-2-6 2-3z" fill="#3DBFE7"/>
<path transform="translate(348,1144)" d="m0 0 5 2v2l4 1 1 5 2 1-5 2-5-6-2-4z" fill="#3CC4E7"/>
<path transform="translate(933,543)" d="m0 0h5v43h-1l-1-36-2-2 1-1-2-1z" fill="#4B7BE3"/>
<path transform="translate(631,553)" d="m0 0 3 1-4 5-5 2-2-1-1 4-6 1v-2z" fill="#3BC7E8"/>
<path transform="translate(527,317)" d="m0 0h13l-3 6h-3v2h-2v-5l-5-1z" fill="#3BC8E8"/>
<path transform="translate(528,1027)" d="m0 0 6 2v6h-10l1-3h2z" fill="#515FE0"/>
<path transform="translate(808,1027)" d="m0 0 4 1v10h-3v-5l-7-1 4-4z" fill="#515FE0"/>
<path transform="translate(464,1127)" d="m0 0h1v31l-1 1h-8v-1l6-2 1-1z" fill="#3CC7E8"/>
<path transform="translate(665,948)" d="m0 0h4l1 5-1 1h-7l-2-4z" fill="#515FE0"/>
<path transform="translate(51,1151)" d="m0 0h6l2 1-1 6h-6l1-3z" fill="#40A8E6"/>
<path transform="translate(475,451)" d="m0 0 8 4 1 3-3 3-1-2h-6l2-3z" fill="#3CC6E7"/>
<path transform="translate(533,345)" d="m0 0 1 3-2 4 2 2h-15l1-2 2 1 1-2h5l3-2z" fill="#3CC4E7"/>
<path transform="translate(1043,120)" d="m0 0h1v15h-1v-8l-1 3h-2l1 4-4-1 1-5 2-2h3z" fill="#4B78E3"/>
<path transform="translate(362,593)" d="m0 0 1 2-4 8-4 6-1-2 6-13z" fill="#3BCAE8"/>
<path transform="translate(1084,1030)" d="m0 0 5 1v4l-4 1-5-2z" fill="#505FE0"/>
<path transform="translate(662,200)" d="m0 0 4 1 2 5-4 2-2-2z" fill="#40A8E6"/>
<path transform="translate(391,1142)" d="m0 0h1l1 8 3 1 1 3-1 3-3-1-2-7z" fill="#3CC6E7"/>
<path transform="translate(541,330)" d="m0 0h1v23l-4 1v-3h3z" fill="#3CC7E8"/>
<path transform="translate(499,588)" d="m0 0 4 2-1 3-4 2-3-2 2-4z" fill="#3CC4E7"/>
<path transform="translate(1041,171)" d="m0 0 1 2h2l1 3-1 2h-5l-2 1 2-5z" fill="#4D72E2"/>
<path transform="translate(933,543)" d="m0 0h5v10l-4-5 1-1-2-1z" fill="#4C78E3"/>
<path transform="translate(629,261)" d="m0 0 4 1v3h-9l1-3z" fill="#40A8E6"/>
<path transform="translate(926,531)" d="m0 0 2 2h-2z" fill="#40A8E6"/>
</svg>
