<?xml version="1.0" encoding="UTF-8"?>
<svg version="1.1" viewBox="0 0 1348 1156" width="1280" height="1280" xmlns="http://www.w3.org/2000/svg">
<path transform="translate(0)" d="m0 0h1348v1156h-1348z" fill="#FDFDFD"/>
<path transform="translate(1045,46)" d="m0 0h19l10 2 10 6 6 8 3 7v16l-5 19-9 21-11 20-10 15-13 19-14 19-9 11-14 17-9 10-9 11-14 15-7 8-14 15-30 30-4 5-8 7-3 4 32 2v32l-1 1h-32l-1-1v-31l-5 3-19 19-8 7-10 10-11 9-5 6 13-1h19l1 1v66h-67l-1-5 1-31-8 6-11 10-14 11-13 11-3 2-1 41-3 1h-14l-25-1-4-2-17 13-4 3v54l-1 1h-52v-15l-7 4-17 12-13 9-1 3 20-1 1 3v15l-1 10h-27l-1-1-1-21-33 22-18 11-48 30-18 10-24 14-40 20-23 11-26 11-24 9-30 8-10 2h-21l-11-3-8-6-7-8-3-7v-12l4-18 8-19 8-16 12-20 8-11 11-16 10-13 20-25 9-11 12-14 14-15 9-10 10-10 7-8 25-25 7-8 16-15 11-11 7-1 4 4-1 5-15 14-7 7-7 8-17 17-7 8-24 28-10 13-13 18-8 13-8 16-5 14-1 10 3 5 6 4 3 1h17l23-6 25-10 36-18 18-10 22-13 14-9 13-8 8-5h2v-3h-7l-2-1v-41l20-1h23l1 21 10-6 36-26 48-36 1-2h-24l-1-35v-23l3-1h56l1 1v24l-1 7 5-3 12-11 5-4 1-41h42l5 1 5-5 9-8 8-7 12-11 3-1v-2h2v-2h2v-2l7-6 6-7 1-21 22-1 8-7 31-31 7-8 12-14 11-13 11-14 13-17 11-17 8-16 4-10 1-4v-11l-4-6-5-2h-19l-18 4-27 10-25 12-22 12-24 13-16 10-20 12-5 4-4-2-5-7 11-8 27-18 17-11 18-11 22-13 19-11 29-15 29-11 21-6 17-3 9-1h9l15 3 9 6 6 9 2 5 1 12-3 15-8 20-8 16-10 17-10 15-10 13-15 20-11 12-10 13-8 8-7 8-7 7-7 8-3 4h-2l-2 5-1 2 33-33 7-8 12-14 11-12 11-14 14-18 14-19 10-15 12-20 9-19 6-18 2-11v-7l-3-10-7-8-9-4-5-1h-20l-17 2v-3l32-10z" fill="#508EED"/>
<path transform="translate(458,432)" d="m0 0h5l4 4-1 5-15 14-7 7-7 8-17 17-7 8-24 28-10 13-13 18-8 13-8 16-5 14-1 10 3 5 6 4 3 1h17l23-6 25-10 36-18 18-10 22-13 14-9 13-8 8-5h2v-3h-7l-2-1v-41l20-1h23l1 21 10-6 8-6 9-3 2-3h3v-2l14-10 8-5 7-4 7-5 10-5 3-2 3 6-1 7-7 14-7 3-4 8v4l-3 3h2l-2 5-3 4h-2l-2 5-3 5 8-4 11-8 14-10 8-6 13-10 10-8 8-4v4l-16 13-12 9-9 7-2 4-7 5-2 7-3 1v2h5l3 6 1 1v5l-4 2v2l-5 5-1 4-3 5-29 20-1 3 20-1 1 3v15l-1 10h-27l-1-1-1-21-33 22-18 11-48 30-18 10-24 14-40 20-23 11-26 11-24 9-30 8-10 2h-21l-11-3-8-6-7-8-3-7v-12l4-18 8-19 8-16 12-20 8-11 11-16 10-13 20-25 9-11 12-14 14-15 9-10 10-10 7-8 25-25 7-8 16-15 11-11z" fill="#2FB7F2"/>
<path transform="translate(721,357)" d="m0 0h42l1 2h-9l-3 1v2l-9-2v2l-4 1-2 3h-3l1 5v3l2 3-5 3v2l2 1 4-1 4 2-2 2 3 1 1-3h2l2-4 5-1 2-3 3 1-1 1 2 1-2 4-6 11-3 13-3 10 1 12v24l-2 3v16l-5 8-2 1-2 3-4 1-4 3-5 3-2 3h-2l-2 6-17 13v54l-1 1h-52v-15l-4 2-3-1 2-4 4-6h2v-2l3-2v-5l-2-2-2-4-4-1v-2l3-2 2-7 7-5 2-4 14-11 18-14 5-4-1-2-11 7-11 9-9 7-28 20-9 6h-3l2-5 3-5 4-4 3-5h-2l2-4 1-6 5-7 6-1 3-9 4-7v-6l-2-2-1-2-9 6-6 3-8 6-8 4-14 10-3 1v2h-3l-2 4-4 2-3-1 16-12 14-10 44-33 1-2h-24l-1-35v-23l3-1h56l1 1v24l-1 7 5-3 12-11 5-4z" fill="#48A0EA"/>
<path transform="translate(572,563)" d="m0 0 3 1-14 9-20 13-17 10-25 15-23 12-7 4h-2l-1 4-5 2-7 4-8 5h-2v2h2v2l6-1 4 3 8-2 3 5 2 1v-2l3 1h-2v2l-5 4h-3v2h-2v2l-8 5h-2l-1 4-15 7-26 13h-3l-1 2-8 5-4 2-7 3-15 7-4 2-1 5-9 4-18 6-28 7-5 1h-21l-11-3-8-6-7-8-3-7v-12l4-18 2-3 3-1 6-9 2-7h2l2-5 1-2h2l1-6 3-1 1-5 5-9h2l1-5 2-2 2-6 5-5 7-11 4-5 4-1 1 9-1 2 1 10 7-16 14-24 6-8 2 1-1 7-8 15-6 17-1 5v16l5 9 5 5 9 5 4 1h26l26-6 26-9 28-12 23-11 36-19 24-14 19-11z" fill="#3CDDEC"/>
<path transform="translate(987,75)" d="m0 0h9l15 3 9 6 6 9 2 5 1 12-3 15-8 20-8 16-10 17-10 15-10 13-15 20-10 11h-3l-2 4-8 10h-2l-2 4-16 17-2 2-4 1-8 10-3 1-2-1 1-7 4-5 5-10 4-13 5-9 2-8v-3h-3l1-5 5-11h2l1-5h2l1-6 7-10 3-6-2-1v2h-2v2l-3 1-2 8-8 6-7 6-5 5-3 1 2-4 12-15 13-17 11-17 8-16 4-10 1-4v-11l-4-6-5-2h-19l-18 4-27 10-25 12-22 12-24 13-16 10-20 12-5 4-4-2-5-7 11-8 27-18 17-11 18-11 22-13 19-11 29-15 29-11 21-6 17-3z" fill="#5071F0"/>
<path transform="translate(1045,46)" d="m0 0h19l10 2 10 6 6 8 3 7v16l-5 19-9 21-11 20-10 15-13 19-14 19-9 11-14 17-9 10-9 11-14 15-7 8-14 15-30 30-4 5-8 7-3 4 32 2v32l-1 1h-32l-1-1v-31l-5 3-6 4-2-1v-3h2l1-3h3l3-8 7-8 1-3 3-2 2-5h2l1-5h2l1-4 2-2h-4-3l-1 2-3-2v2l-4-1-3 1v2l-4 1 1-4 3-3h2l2-4 6-8 23-23 7-8 12-14 11-12 11-14 14-18 14-19 10-15 12-20 9-19 6-18 2-11v-7l-3-10-7-8-9-4-5-1h-20l-17 2v-3l32-10z" fill="#5072F0"/>
<path transform="translate(308,892)" d="m0 0h31l15 2 9 5 8 7 6 10 3 12v59l-3 10-6 9-7 7-8 5-7 2h-76v-41l1-1h24l1 1 1 15 46-1 6-5v-63l-3-5-8-1h-41l-1 50h-26v-75l1-1z" fill="#5072F0"/>
<path transform="translate(861,892)" d="m0 0h28l17 1 11 4 9 7 6 9 4 11 1 26v32l-2 12-5 9-8 9-10 6-7 2-23 1h-52v-43h24l2 1 1 15 46-1 6-4v-65l-1-3-10-2-42-1v51h-26v-76z" fill="#5072F0"/>
<path transform="translate(728,892)" d="m0 0h30l12 2 12 6 5 5 6 8 4 11 1 46v49l-1 1h-25l-1-1v-48l-43-1-2-1v-25l4-1h41l-1-18-5-5-8-1h-28l-8 2-3 5-1 94h-26v-92l2-10 5-10 7-7 8-5 9-3z" fill="#5072F0"/>
<path transform="translate(458,432)" d="m0 0h5l4 4-1 5-15 14-7 7-7 8-17 17-7 8-24 28-10 13-13 18-8 13-8 16-5 14-1 10 3 5 6 4 3 1h17l20-5 18-4 6 1 1-3 5 1 7-2 17-5 4 1 2 2h6l10-3 1 4-5 5-5 4-8 4-24 10-18 8h-2v2l-6 3-3 2-1 3 3 1-4 2-18 4h-26l-10-4-7-5-6-9-1-3v-16l5-17 9-19 2-4-1-4-7 10-13 23-7 15-1-2-1-10 1-2v-8l-4 2-8 11-3 5-5 5-2 6-2 2-1 4h-2l-2 6-4 8-3 3-1 4h-2l-2 5-1 2h-2l-1 7-7 10h-3l3-10 9-19 8-13 7-11 11-16 10-14 8-10 14-18 14-17 12-14 14-15 9-10 10-10 7-8 25-25 7-8 16-15 11-11z" fill="#3CCAEC"/>
<path transform="translate(587,892)" d="m0 0h31l16 3 11 7 6 7 5 11 2 8v6l-2 1h-11l-13-1-3-11-3-3-8-1h-27l-10 2-3 7v52l2 12 6 1h39l4-1 3-13 2-1h23l1 1-1 12-4 9-6 8-8 7-9 4-13 2h-28l-11-2-13-7-7-8-5-9-2-10v-56l3-14 6-9 8-7 10-5z" fill="#5072F0"/>
<path transform="translate(709,259)" d="m0 0h77v77l-1 1h-76l-1-35v-42z" fill="#2FB7F2"/>
<path transform="translate(454,892)" d="m0 0h64l1 6v13l-1 7h-80l1 25h66l1 4v20l-1 2-12 1h-70l-10-1v-76z" fill="#5072F0"/>
<path transform="translate(1020,892)" d="m0 0h53l2 1v25l-79 1v23l66 1v26l-21 1h-53l-18-1-1-1v-62l1-13z" fill="#5072F0"/>
<path transform="translate(554,172)" d="m0 0h63l1 1v72l-1 1h-71l-2-1 1-72z" fill="#3DCBEC"/>
<path transform="translate(447,600)" d="m0 0 4 1 2 2h6l10-3 1 4-5 5-5 4-8 4-24 10-18 8h-2v2l-6 3-3 2-1 3 3 1-4 2-18 4h-26l-10-4-7-5-6-9-1-3v-16l4-14h2l2 4 7 2 3 5 6 4 3 1h17l20-5 18-4 6 1 1-3 5 1 7-2z" fill="#3CCAEC"/>
<path transform="translate(593,353)" d="m0 0h28v60h-58l-1-1v-57l1-1z" fill="#2FB6F2"/>
<path transform="translate(572,563)" d="m0 0 3 1-14 9-20 13-17 10-25 15-23 12-38 19-32 14-31 10-23 5h-19l-10-3-8-6-4-7-1-4v-10l4-16 9-21 10-18 7-11 5-5 1 5-8 16-7 19-1 5v16l5 9 5 5 9 5 4 1h26l26-6 26-9 28-12 23-11 36-19 24-14 19-11z" fill="#FDFDFD"/>
<path transform="translate(834,523)" d="m0 0 5 1 1 1v57l-1 1h-39l-18-1-1-1v-56l1-1z" fill="#5072F0"/>
<path transform="translate(941,186)" d="m0 0 3 1-8 14-3 5-1 3h-2l-1 5h-2l-1 4-4 9v2l3 1-1 7-3 8-4 8-4 12-5 9-4 7-1 4 5-1 2-5 5-2 1-3 5-2 9-9 7-8 3-4h2l2-4 8-10 2 1-10 13-8 8-7 8-7 7-7 8-3 4h-2l-1 3-5 3-1 3h-2v2l-8 7-16 16-4 1-6 5-9 4-1-4 5-9 3-1 2-5 2-6 2-5 1-3h2l2-9 2-7 1-7 7-10 1-3-7 3-10 9-7 5-6 3-7 3 1-4 33-33 7-8 12-14 7-9 4-1 5-5 10-9 5-2 2-10 3 1v-2h2z" fill="#4E81ED"/>
<path transform="translate(465,628)" d="m0 0h2l-1 3-5 2-7 4-8 5h-2v2h2v2l6-1 4 3 8-2 3 5 2 1v-2l3 1h-2v2l-5 4h-3v2h-2v2l-8 5h-2l-1 4-15 7-26 13h-3l-1 2-8 5-4 2-7 3-15 7-10 1-4 1-2-2 8-4 3-3 10-4 4-2v-3l-11-1-3-3v-4l5-3h2l-1-3-5 1-3-1-11-1-5-3-11-3v-1l16-1 23-5 36-12 33-15z" fill="#3CCAEC"/>
<path transform="translate(414,978)" d="m0 0h23l3 9 3 5 2 1h72l1 1 1 15v11l-1 1h-70l-13-3-11-8-6-8-5-11-1-12z" fill="#5073F0"/>
<path transform="translate(970,978)" d="m0 0h24l4 12 3 3 73 1 1 1v25l-20 1h-50l-13-3-9-6-8-9-5-12-1-12z" fill="#5073F0"/>
<path transform="translate(780,288)" d="m0 0h5l1 9v39l-1 1h-76l1-31 1 3h2l1-3 2 10 1 8 3 1-3-11 1-4v2l8-5 6-7 6-1 8-1h17l2 1v2l5 1-1-1v-5l3 1 3-2 1 2 3-5 2-1-2-2z" fill="#48A0EA"/>
<path transform="translate(918,101)" d="m0 0 8 1 4 1-1 4-4 2v3l3 1v3l-15 4-24 9-25 12-22 12-24 13-16 10-20 12-5 4-4-2-5-7 11-8 27-18 17-11 18-11 22-13 19-11 9-4 12-2 4-3z" fill="#508EED"/>
<path transform="translate(316,663)" d="m0 0 9 5 24 7 3 2 13 1 3 1 4-1 1 2-3 3-5 2 2 5 3 1 10 1-1 4-5 4-10 4-5 4-3 2 7-1 4 1-3 7-19 7-30 8-10 2h-17v-1l14-1 4-5 15-6 14-7-3-2-3-4-2-11v-9l3-4-1-6-4-2-3-5v-2l-5-1z" fill="#3ED5ED"/>
<path transform="translate(492,228)" d="m0 0h31v46h-30l-15-1v-43l1-1z" fill="#3CCAEC"/>
<path transform="translate(891,522)" d="m0 0h29l2 1v44h-44l-1-1v-43z" fill="#5072F0"/>
<path transform="translate(696,514)" d="m0 0h2l1 10v43l-1 1h-52v-17l10-7 12-9 20-14 6-4h2z" fill="#508EED"/>
<path transform="translate(562,276)" d="m0 0h40v42l-2 1h-39l-1-2v-34z" fill="#2FB7F2"/>
<path transform="translate(495,374)" d="m0 0h32l1 1v41h-42v-41z" fill="#2FB6F2"/>
<path transform="translate(913,287)" d="m0 0v3l-4 5-6 4 2-4zm9 8 4 2-3 3-1 3h-2l-1 5h-2l-2 6-3 1-1 4-7 9-3 7h-3l-2 5 4-1-6 7-10 10-8 7-10 10-4 3-4-1-5 1 6-10 4-1 1-6h3l1-3 5-2 1-4 4-6h2v-3l2-1 1-5-2-1 2-4-8 1v2l-4 1-2 4-3 5h-3v2l-4 1v2l-5 2 1-4 6-8 13-12 10-10 8-7 10-10 1 3 4-1v-2h2l1-2 2-1v3h2v-2h4z" fill="#4E82ED"/>
<path transform="translate(745,1091)" d="m0 0h13l9 2 6 7 2 9v17l-3 6-7 5-9 2h-8l-6-4-3-4-1-4v-34z" fill="#30B9F2"/>
<path transform="translate(574,1091)" d="m0 0h20l6 3 4 5 2 5 1 10v9l-3 9-9 6-12 1-7-2-5-6-1-5v-33z" fill="#30B9F2"/>
<path transform="translate(545,492)" d="m0 0h23v24l-8 6-13 8-10 4-1 1h-9l-2-1v-41z" fill="#48A0EA"/>
<path transform="translate(854,1091)" d="m0 0 9 1 7 6 3 9v19l-3 6-6 5-3 1h-14l-7-5-5-10v-16l4-10 5-4z" fill="#30B8F2"/>
<path transform="translate(333,601)" d="m0 0h2l2 4 7 2 3 5 6 4 3 1v2l9 1 2 3 4 1 7 8 1 5 4 1-10 5-7 1v4l3 3h-13l-9-1-10-6-7-10-1-3v-16z" fill="#3ED5EC"/>
<path transform="translate(823,604)" d="m0 0h35l1 1v36l-2 1h-34l-1-1v-36z" fill="#5073F0"/>
<path transform="translate(665,214)" d="m0 0h36l1 36-5 2h-16l-17-1v-33z" fill="#2FB8F2"/>
<path transform="translate(723,613)" d="m0 0h32v36l-5 1h-31l-1-1v-35z" fill="#5073F0"/>
<path transform="translate(458,432)" d="m0 0h5l4 4-1 5-15 14-7 7-7 8-17 17-7 8-18 21-8 4-2-2 5-5 6-7 2-5-4 1-4 4-8 6h-2v2l-10 10-2-1 14-15 8-8 7-8 25-25 7-8 16-15 11-11z" fill="#2FB7F2"/>
<path transform="translate(490,298)" d="m0 0h36v36h-36l-1-1v-34z" fill="#2FB7F2"/>
<path transform="translate(192,1091)" d="m0 0h15l5 3 4 5 1 2v11l-5 5-1 5 8 13v4h-9l-8-14-3-4h-5v11l1 6-1 1h-10l-1-10 1-30 4-7z" fill="#30B8F2"/>
<path transform="translate(643,329)" d="m0 0h27v33l-1 1h-33l-1-1v-32z" fill="#2FB6F2"/>
<path transform="translate(910,459)" d="m0 0h33l1 1v32l-2 1h-32z" fill="#5073F0"/>
<path transform="translate(918,101)" d="m0 0 8 1 4 1-1 4-4 2v3l3 1v3l-15 4-24 9h-5l1-8-6 2-11 5-3-1v2h-3l-1 2-8 3-4 2-1 2-20 10-3-1 1-3 15-9 22-13 19-11 9-4 12-2 4-3z" fill="#4E82ED"/>
<path transform="translate(105,1091)" d="m0 0h17l7 2 5 7 1 11-3 7-3 3-8 2-10 1v14l-1 1h-9l-1-14v-17l1-15z" fill="#30B9F2"/>
<path transform="translate(908,331)" d="m0 0 34 2v32l-1 1h-32l-1-1v-31l-2-1z" fill="#508FEE"/>
<path transform="translate(1215,1091)" d="m0 0h6l7 8 10 17 2 4h3l-1-27 7-2 3 2v44l-2 2-6-1-11-14-8-12-3-2 2 28-1 1h-9l-1-1v-26l1-19z" fill="#30B9F2"/>
<path transform="translate(289,1091)" d="m0 0 7 1 7 10 10 16 2 2 1-1v-27l2-1h7l1 5-1 42-6 1-5-4-16-24-3-2 1 20 1 9-1 1h-8l-1-1v-45z" fill="#30B8F2"/>
<path transform="translate(812,469)" d="m0 0h34v32l-1 1h-32l-1-1z" fill="#4E82ED"/>
<path transform="translate(475,1091)" d="m0 0 3 2v15l1 1 16 1 1-17 3-2 5 1 1 1v46h-9l-1-20-16-1-1 20-9 1-1-1v-29l1-16z" fill="#30BAF2"/>
<path transform="translate(711,1091)" d="m0 0 5 2 6 15 10 28v3h-7l-3-3-3-4-3-1h-11l-3 7-2 1h-8l1-7 6-16 6-17 4-7z" fill="#30B8F2"/>
<path transform="translate(545,173)" d="m0 0 8 1-2 3-1 9-1 6v9l1 12v7l-2 8h2l1 4 3 4 9 2 5 1 11-1 13 1 9 1 3-3 10-1 2-6 1-2h-2v-11l1-1 1-41-4-2h5v72l-1 1h-71l-2-1z" fill="#2FB8F2"/>
<path transform="translate(619,1091)" d="m0 0h26l2 1v6l-1 2h-22l1 9h12l2 1v8l-5 1h-9v9l3 2h12l5-1 3 6-1 3-2 1h-19l-6-2-4-4-2-8v-31l1-2z" fill="#30BAF2"/>
<path transform="translate(518,1091)" d="m0 0h27l2 1-1 8-21 1v8l14 1 1 7-1 1-14 1v9l2 2h18l3 3-1 5h-25l-6-5-2-5v-35z" fill="#30B9F2"/>
<path transform="translate(1063,1091)" d="m0 0h28l1 1-1 7-1 1h-21l1 9 14 1 1 1v6l-1 1-14 1v7l4 4h10l5-1 3 4v5l-2 1h-21l-5-3-4-5-1-5 1-34z" fill="#30B9F2"/>
<path transform="translate(23,1091)" d="m0 0h26l1 1v6l-2 2-21 1v6l1 2 13 1 2 2v5l-1 1-16 1 2 9 4 2h15l3 5v3l-6 1h-12l-9-2-5-6-1-5v-31l1-3z" fill="#30B9F2"/>
<path transform="translate(938,1091)" d="m0 0h29v8l-1 1-21 1v9h14l2 6-1 2-15 1v8l3 3h17l3 5v3l-3 1h-16l-8-2-5-6-1-6v-32z" fill="#30B8F2"/>
<path transform="translate(257,1091)" d="m0 0h20l2 2-1 6-1 1h-21l1 9 14 1 1 7-5 2h-10l-1 5 1 6h14l5-1 3 4v5l-1 1h-22l-7-4-3-9v-12l1-21 1-1z" fill="#30B9F2"/>
<path transform="translate(377,1091)" d="m0 0h29l1 1v7l-1 1h-22l1 9h12l3 2-1 7-14 1v8l3 3h18l2 3-1 5h-25l-5-4-2-7v-35z" fill="#30B8F2"/>
<path transform="translate(976,1090)" d="m0 0 6 1 4 5 6 10 3-4 4-6 4-4 9-1-1 5-7 9-5 9 4 8 8 12 2 2v3h-8l-5-5-7-10-2-1-2 6-6 8-5 2h-6l1-5 6-8 6-9-1-7-10-15v-4z" fill="#30B8F2"/>
<path transform="translate(793,1091)" d="m0 0h21l1 1v7l-1 1h-22l1 9h11l3 1 1 7-1 1-15 1 2 10 2 1h18l2 3-1 5h-25l-5-4-2-4v-38z" fill="#30B8F2"/>
<path transform="translate(1177,1091)" d="m0 0h27l2 6-3 3-20 1v8l4 1h11l1 6-2 2h-15l2 11 3 1h17l3 5v3l-2 1h-17l-9-1-4-5-1-4-1-31 1-6z" fill="#30BAF2"/>
<path transform="translate(154,1091)" d="m0 0h19l2 1v6l-2 2h-20v9l14 1 1 1v6l-1 1-14 1v11h20l2 3v5l-1 1h-17l-9-2-4-5-1-2v-37l1-1z" fill="#30B8F2"/>
<path transform="translate(1306,1091)" d="m0 0h18l9 1 1 1v5l-6 2h-10l-6 1v7l1 1 13 1 1 1v6l-2 1-13 1v7l2 4h18l2 2-1 5-1 1h-23l-6-5-2-9 1-31z" fill="#30B8F2"/>
<path transform="translate(56,1091)" d="m0 0h7l5 5 6 10 2 1 2-5 6-9 4-2h6l-1 4-8 11-4 6 1 6 10 15 4 5v1h-10l-4-5-7-10h-2l-6 10-3 4-3 1h-10l6-7 7-10 3-6-1-6-7-11-4-7z" fill="#30B9F2"/>
<path transform="translate(894,1091)" d="m0 0h19l1 1-1 8-4 1h-17l-1 8 18 1v8l-3 1h-14l-1 19-6 1-4-2v-37l3-7z" fill="#30B8F2"/>
<path transform="translate(1274,1091)" d="m0 0h7l6 3 5 5 1 3v7l-5-2-8-7h-8l-3 4-1 4v14l3 6 5 3 6-2 8-11 4 1v8l-3 5-6 5-7 2-8-1-6-4-4-5-2-7v-13l3-9 6-7z" fill="#31BAF2"/>
<path transform="translate(1032,1091)" d="m0 0h7l6 3 5 6 1 7-4 1-5-5-4-3h-8l-4 5v19l3 5 6 2 5-3 4-5 3-4h4l1 7-3 6-8 6-10 1-7-3-6-7-2-5v-18l4-9 7-5z" fill="#30B9F2"/>
<path transform="translate(347,1091)" d="m0 0h9l6 4v2h2l3 7-1 4-5-1-6-6-3-1h-7l-3 4-1 7v8l2 8 1 3 7 1 7-5 5-7h4v9l-3 5-7 5-4 1h-7l-8-4-5-7-1-3v-19l4-9 7-5z" fill="#30B8F2"/>
<path transform="translate(652,626)" d="m0 0h25l1 2v24l-1 2h-27v-27z" fill="#4E81ED"/>
<path transform="translate(546,437)" d="m0 0h28v27l-5 1h-20l-3-1z" fill="#2FB6F2"/>
<path transform="translate(668,1091)" d="m0 0h7l6 3 6 7 1 5-1 2-6-1-5-6-2-1h-8l-3 3-1 3v17l2 6 8 2 6-4 5-8 5 1-1 8-6 8-7 3h-8l-8-5-5-8v-22l3-6 6-5z" fill="#30B8F2"/>
<path transform="translate(822,225)" d="m0 0h27v27l-12 1h-10l-6-2v-25z" fill="#30B5F2"/>
<path transform="translate(622,580)" d="m0 0h6l1 3v15l-1 10h-27l-1-1 1-24 4-2z" fill="#508EED"/>
<path transform="translate(333,581)" d="m0 0 2 4-10 17-7 16-2 1v-7l-1-5 1-2v-8l-4 2-8 11-3 5-5 5-2 6-2 2-1 4h-2l-2 6-4 8-3 3-1 4h-2l-2 5-1 2h-2l-1 7-7 10h-3l3-10 9-19 8-13 7-11 11-16 10-14 4-2h3l3-3 1 3h5l3-6h2v-2h2z" fill="#3ED4ED"/>
<path transform="translate(450,482)" d="m0 0h24l1 1 1 15-1 12h-26v-27z" fill="#2FB7F2"/>
<path transform="translate(638,272)" d="m0 0h25v26h-26l-1-1v-24z" fill="#2FB7F2"/>
<path transform="translate(702,170)" d="m0 0h24l1 1v25h-26l-1-1 1-24z" fill="#2FB7F2"/>
<path transform="translate(428,1091)" d="m0 0h33l2 2v5l-1 1-11 1-1 1v36l-3 2h-7l-1-1v-38l-11-1-2-2v-5z" fill="#30B8F2"/>
<path transform="translate(849,1099)" d="m0 0h9l5 4 2 5v16l-5 6-2 1h-7l-4-2-3-5v-18l3-5z" fill="#FDFDFD"/>
<path transform="translate(1142,1091)" d="m0 0 4 1 1 31 1 6 18 1 2 3-1 5-2 1h-16l-6-2-4-4-2-5v-36z" fill="#31BAF2"/>
<path transform="translate(750,1099)" d="m0 0h9l5 3 2 4 1 6v9l-3 7-4 3h-7l-4-2-1-2-1-24 1-3z" fill="#FDFDFD"/>
<path transform="translate(1103,1091)" d="m0 0h6l1 1v35l3 3h16l2 2v6h-23l-5-4-2-3-1-7 1-32z" fill="#30B9F2"/>
<path transform="translate(581,1099)" d="m0 0h8l5 2 3 4 1 5v12l-3 6-5 3-9-1-2-3v-26z" fill="#FDFDFD"/>
<path transform="translate(930,394)" d="m0 0 5 1v21l-10 1h-11l-2-2v-20z" fill="#4E81ED"/>
<path transform="translate(723,542)" d="m0 0h21l1 1v21h-22z" fill="#4E80ED"/>
<path transform="translate(230,1091)" d="m0 0 7 1 1 47h-10l-1-2v-45z" fill="#31BAF1"/>
<path transform="translate(643,173)" d="m0 0h18l1 1v20l-3 1h-18l-2-2 1-19z" fill="#30B9F2"/>
<path transform="translate(843,166)" d="m0 0h20l2 1v20l-3 1h-18l-1-1z" fill="#30B5F2"/>
<path transform="translate(750,220)" d="m0 0h14l7 1 1 3v12l-1 6h-22z" fill="#2FB7F2"/>
<path transform="translate(463,345)" d="m0 0h10l2 1v12l-2 4-2 1h-13l-2-2v-15z" fill="#2FB8F2"/>
<path transform="translate(907,289)" d="m0 0 2 1-3 3-4 7-16 16-8 7-12 12-8 7-14 13-2-1 2-3h2l2-4 22-22 8-7 21-21h2v-2h2l1-4z" fill="#34B7F3"/>
<path transform="translate(333,581)" d="m0 0 2 4-10 17-7 16-2 1v-7l-1-5 1-2v-8l-6 2 2-7 2 1 5-4 1 3h5l3-6h2v-2h2z" fill="#3ED5EC"/>
<path transform="translate(348,566)" d="m0 0 2 2-2 8-6 11h3l6-13 2 1-2 6-6 16-2 10-6-1-3-5 1-5 8-17 2-4-1-6z" fill="#3DCDEC"/>
<path transform="translate(912,395)" d="m0 0 2 1v7l1-4v-3h13l3 8-1 4-13 3-3-1-1 5h-1z" fill="#508EED"/>
<path transform="translate(112,1099)" d="m0 0h8l5 2 2 5-1 6-3 2-10 1-3-2v-12z" fill="#FDFDFD"/>
<path transform="translate(195,1099)" d="m0 0h10l4 3 1 4-2 5-7 2h-6l-2-1-1-8z" fill="#FDFDFD"/>
<path transform="translate(365,535)" d="m0 0 2 4-3 5h-2l-2 7v9l-2 7-5-2-1 3-1-2v-7l2-2v-5h-2l-1 2h-2l1-4 8-4 1-2h2l1-4h2z" fill="#3ED5EC"/>
<path transform="translate(276,644)" d="m0 0h3l1 5-1 4h-2l-2 5-1 2h-2l-1 7-7 10h-3l3-10 9-19z" fill="#3ED3EC"/>
<path transform="translate(880,442)" d="m0 0 2 1v10l-1 1h-50v-1l24-1 10-1 2-5 10 1v-2h3z" fill="#4E81ED"/>
<path transform="translate(619,385)" d="m0 0h1v27h-9l-7-1v-1l7-1v-2l-3 1-3-2 6-1 4-7h2l-1-7 1-2h2z" fill="#48A0EA"/>
<path transform="translate(608,538)" d="m0 0h4v2h-3l-1 3h-3v2l-5 3h-2v2l-14 9-7 4-9 2 4-4h3l1-2 8-5h2v-2h3l1-2 3-1 2-2 4-2 2-2h3l1-3z" fill="#3ED3EC"/>
<path transform="translate(710,1106)" d="m0 0 4 2 3 8v7h-10l-1-5z" fill="#FDFDFD"/>
<path transform="translate(479,229)" d="m0 0h8l4 2-6 1-3 9-1 10-1 5-1 7h-1v-33z" fill="#2FB7F2"/>
<path transform="translate(333,601)" d="m0 0h2l2 4 7 2 3 5-1 2-7 1v3l-4-2-2-8-2-1z" fill="#3ED5EC"/>
<path transform="translate(776,179)" d="m0 0h7l3 1v4l-8 5h-3l-1 2-5-7z" fill="#47A2EA"/>
<path transform="translate(258,712)" d="m0 0 5 4 8 7 4 2v4l4 3-6-1-8-6-7-8-1-3z" fill="#3ED2EC"/>
<path transform="translate(311,592)" d="m0 0 1 4-3 5h-2l-1 3h-2v3h-2l-1 5-3 4h-2l-2 4-2 3h-2l2-5 14-20z" fill="#3AC7ED"/>
<path transform="translate(568,458)" d="m0 0 5 1 1 5-5 1h-20l-2-3h13l3 1v-2z" fill="#4A9CEA"/>
<path transform="translate(791,533)" d="m0 0 4 1 6 3v3l-6 3-6-1-1-5z" fill="#4E81ED"/>
<path transform="translate(397,500)" d="m0 0 2 1-4 8-7 6-2 3-3-1 4-7 4-6h2l1-3z" fill="#3DCCEC"/>
<path transform="translate(675,643)" d="m0 0h2v9l-1 1h-14l5-4 4-1 1-3z" fill="#5171F1"/>
<path transform="translate(986,195)" d="m0 0v3l-9 12-13 17-8 9v-3l8-11 5-5 16-21z" fill="#4F89ED"/>
<path transform="translate(952,237)" d="m0 0 2 1-10 13-8 8-7 8-7 7v-3l8-8 7-8 3-4h2l2-4z" fill="#4D8BED"/>
<path transform="translate(643,329)" d="m0 0 26 1-4 4-9-2-16-1-2 9-2 1 1-9h-2v-2z" fill="#48A0EA"/>
<path transform="translate(821,309)" d="m0 0v3l-3 4h-2v2h-2l-2 4-10 10-5 2 2-4 4-4h2v-2h2v-2h2v-2l7-6z" fill="#4E85ED"/>
<path transform="translate(999,57)" d="m0 0 3 1-2 1h15l8 1v1l-29 2-7 1v-3z" fill="#4F89ED"/>
<path transform="translate(904,224)" d="m0 0h2l-1 4-3 3-6 8-4 3h-2l-2 4-2 1 1-4 12-13z" fill="#5079EF"/>
<path transform="translate(920,273)" d="m0 0 1 3-8 8-1 2h-2l-1 3-2-1 1-4 2-5 5-2 1-3z" fill="#4E84ED"/>
<path transform="translate(516,228)" d="m0 0h7l-1 6v19h-2l-1-16-2-6-6-1v-1z" fill="#2FB7F2"/>
<path transform="translate(353,569)" d="m0 0v3l-8 16-2 1-2-2 8-15z" fill="#2FB7F3"/>
<path transform="translate(522,257)" d="m0 0h1v17h-30v-1l24-1 1-3h2v-2h2z" fill="#2FB6F2"/>
<path transform="translate(348,566)" d="m0 0 2 2-2 8-7 12-2-1 6-12-1-6z" fill="#3DD4EC"/>
<path transform="translate(872,388)" d="m0 0h10v11l-1-4h-2v-2l-5-1 1-2z" fill="#4E80ED"/>
<path transform="translate(331,607)" d="m0 0h4l1 4 8 1v2l-5 1v3l-4-2-2-8z" fill="#3CDDEC"/>
<path transform="translate(607,487)" d="m0 0 2 1-6 5h-2v2h-3l-2 4-4 2-3-1 16-12z" fill="#4D97EC"/>
<path transform="translate(722,368)" d="m0 0 1 3h2l1 6-2 2-1 15h-1z" fill="#518FEE"/>
<path transform="translate(632,559)" d="m0 0 2 1-9 7-4 3h-4v-2l7-4 5-4z" fill="#43A6EC"/>
<path transform="translate(465,628)" d="m0 0h2l-1 3-5 2-7 4-2-1v-2z" fill="#3DCDEC"/>
<path transform="translate(298,609)" d="m0 0 3 3-3 4h-2l-2 4-2 3h-2l2-5z" fill="#3CCBEC"/>
<path transform="translate(390,506)" d="m0 0 1 4-1 4-4 4-3-1 4-7z" fill="#3ED5EC"/>
<path transform="translate(721,397)" d="m0 0 1 3-3 4h-2v3h-6l4-5z" fill="#4F90EE"/>
<path transform="translate(364,711)" d="m0 0 2 3-4 4-6 1v-3l7-4z" fill="#3BC9EC"/>
<path transform="translate(623,528)" d="m0 0h2l-2 4-8 5-2-2z" fill="#3CCAEC"/>
<path transform="translate(431,463)" d="m0 0h2l-2 4-8 8-2-1 7-8h2z" fill="#3DCBEC"/>
<path transform="translate(581,556)" d="m0 0m-1 1m-2 1 3 1v2l-10 4-3-1 4-3h3l1-2z" fill="#5CDBEF"/>
<path transform="translate(547,462)" d="m0 0h13l1 2-2 1h-10z" fill="#40A7EC"/>
<path transform="translate(668,627)" d="m0 0h8l1 9-5-5v-3z" fill="#5171F1"/>
<path transform="translate(848,225)" d="m0 0 1 2-1 5-4-2-5-4z" fill="#499EEA"/>
<path transform="translate(342,556)" d="m0 0h3l1 4h-2l-1 6-2-2 1-4-2-2z" fill="#3FD6ED"/>
<path transform="translate(651,648)" d="m0 0 5 1v4h-5z" fill="#5171F1"/>
<path transform="translate(406,489)" d="m0 0 2 1-8 9-3-1z" fill="#3DCBEC"/>
</svg>
