<?xml version="1.0" encoding="UTF-8"?>
<svg version="1.1" viewBox="0 0 2048 1682" width="1280" height="1280" xmlns="http://www.w3.org/2000/svg">
<path transform="translate(0)" d="m0 0h2048v1682h-2048z"/>
<path transform="translate(1528,43)" d="m0 0h14l16 2 13 5 8 6 6 7 4 9 2 14-2 20-8 26-12 27-12 22-14 22-13 19-12 17-24 32-14 17-12 14-9 11-9 10-9 11-15 16-12 13-9 10-11 12-20 20-7 8-44 44-16 15-17 17-8 7-17 16-13 12-11 9-2 2 48 1v95l-2 1h-94l-1-1v-49l1-3-6 4-13 12-11 9-14 12-11 9-16 12-1 59-1 1h-61l-2-6-8 6-11 9-14 10-5 1v2l4 1 1 2-1 73-1 1h-74l-1-1v-14l1-7-16 10-16 12-24 16-1 1h18l13 1v40h-41v-27l1-7-11 7-16 11-27 18-22 14-20 12-23 15-20 12-21 12-45 26-16 8-27 14-36 18-31 13-23 10-29 10-29 8-28 6-9 1h-17l-15-2-13-5-9-7-8-9-4-13v-16l4-19 9-25 12-25 8-14 11-18 8-12 15-22 13-18 14-18 13-16 8-10 11-13 24-28 9-10 7-8 14-15 30-32 16-17 33-33 8-7 24-24 5-1 11 10-2 4-15 16-5 4-7 8-30 30-7 8-14 15-7 8-9 10-11 13-8 10-11 14-14 19-15 22-10 17-7 15-5 15-1 5v11l4 8 6 5 10 3h10l16-2 22-6 30-11 20-9 28-14 22-12 19-10 27-16 18-11 24-15 17-11 4-1v-2l-6 1h-10l-1-61 1-1 29-1h33l1 4-1 28 16-11 14-10 17-12 18-13 19-14 21-16 12-9 19-14 4-3-37-1v-84l84-1 1 1 1 46 10-9 11-9 10-8 1-58 1-1h62l1 4 8-7 16-15 11-9 8-8 8-7 15-14 8-8 7-6 1-2v-30l1-1 32-1 5-4h2l2-4 40-40 7-8 14-15 7-8 11-13 9-10 11-14 13-16 14-19 13-20 10-17 8-19 3-11v-14l-4-8-6-5-7-2h-19l-20 4-20 6-28 11-32 15-51 27-27 16-23 14-17 11-14 9-4-2-8-11 1-3 14-9 24-16 29-19 21-13 28-17 26-15 24-13 23-13 19-9 37-14 26-8 27-5 11-1h24l14 3 12 6 8 8 5 10 2 8v19l-5 21-10 25-12 24-13 21-8 12-12 17-14 19-9 12-13 16-11 13-12 14-11 13-28 30-7 8-11 12-13 13-7 8-15 15-8 7-17 16-12 11-7 7-8 7-6 6 2-1 9-9 8-7 13-12 10-9 13-12 16-15 9-9 8-7 20-20 7-8 23-23 7-8 12-13 9-10 7-8 9-10 9-11 13-16 11-14 10-13 14-19 24-36 10-17 13-26 6-16 5-21v-23l-3-9-7-9-9-6-13-4-6-1h-24l-26 4-13 3 1-2 21-8 30-9 24-6 18-3z" fill="#FDFDFD"/>
<path transform="translate(477,1290)" d="m0 0h22l59 1 12 3 12 6 10 9 7 10 5 13 1 5v90l-2 10-4 9-7 11-9 8-14 7-9 2-11 1h-96l-1-1v-59l1-1h35l2 1v23l65-1 7-2 4-5 1-4 1-36v-18l-1-33-4-7-2-2-4-1-66-1-1 1v72l-3 1-34-1-1-1v-109z" fill="#FEFEFE"/>
<path transform="translate(1103,1291)" d="m0 0h57l13 3 12 6 11 10 8 13 4 13 1 138-2 1h-35l-1-1v-73h-65l-1-1v-35l1-1h65l-1-22-3-9-4-3-4-1h-54l-7 3-4 7-1 11v124l-2 1h-35l-1-1v-106l1-31 4-13 6-11 9-10 11-7 11-4z" fill="#FEFEFE"/>
<path transform="translate(1256,1291)" d="m0 0h106l12 3 13 7 9 8 7 11 5 13 1 7v83l-2 13-5 12-7 9-7 7-10 6-13 4-11 1h-97l-1-1v-59l1-1h23l13 1v23l65-1 9-3 3-5 1-8v-79l-3-9-4-3-4-1-67-1v73l-7 1-30-1z" fill="#FEFEFE"/>
<path transform="translate(901,1291)" d="m0 0h58l12 3 12 6 10 9 7 10 5 12 2 11v9h-37l-1-3-1-10-3-5v-2l-7-2h-55l-8 4-3 8v84l2 7 6 4 5 1h51l7-2 4-5 2-12 1-4h36l1 1v8l-4 18-7 12-9 10-11 7-14 4-9 1h-49l-14-3-12-6-10-9-7-9-5-12-2-11v-85l2-11 8-16 12-12 11-6 8-3z" fill="#FEFEFE"/>
<path transform="translate(1036,350)" d="m0 0h111l1 1v111l-1 1h-111l-1-1v-111z" fill="#FEFEFE"/>
<path transform="translate(686,1290)" d="m0 0 120 1v36l-1 1h-115v36h97l1 1v35l-1 1h-133l-1-1v-108l1-1z" fill="#FEFEFE"/>
<path transform="translate(1489,1290)" d="m0 0 120 1 1 1v35l-2 1h-114v36h96l2 7v29l-1 1h-134l-1-109 1-1z" fill="#FEFEFE"/>
<path transform="translate(799,225)" d="m0 0h106v105l-67 1h-34l-5-1z" fill="#FEFEFE"/>
<path transform="translate(956,708)" d="m0 0 2 1-10 8-17 12-18 13-14 10-19 13-11 8-25 16-20 13-24 15-19 12-17 10-20 12-25 14-46 24-16 8-21 10-28 12-24 9-32 10-29 6-8 1h-15l-14-3-12-6-8-7-5-10-1-13 2-14 5-16 6-15 10-19 13-22 10-15 13-17 5-6v3l-16 28-11 23-5 15-3 14v20l5 13 7 8 14 7 9 2h30l24-4 28-7 31-11 34-14 20-9 52-26 23-13 26-15 17-10 25-15 19-12 25-16 44-30 16-12 14-10z"/>
<path transform="translate(1140,733)" d="m0 0h85v84h-84l-1-1z" fill="#FEFEFE"/>
<path transform="translate(824,488)" d="m0 0h85l1 82-1 2h-84l-1-10z" fill="#FEFEFE"/>
<path transform="translate(1457,1414)" d="m0 0h36l1 1 3 16 5 5 3 1 104 1 1 1v35l-1 1h-105l-12-3-10-5-10-8-7-10-5-10-3-12-1-11z" fill="#FEFEFE"/>
<path transform="translate(654,1414)" d="m0 0h35l2 3 2 13 2 4 7 3 103 1 1 1v36h-106l-14-4-11-6-10-10-8-14-3-11-1-14z" fill="#FEFEFE"/>
<path transform="translate(1280,730)" d="m0 0h63l1 1v63l-1 1h-63l-1-1v-63z" fill="#FEFEFE"/>
<path transform="translate(704,305)" d="m0 0h63l1 1v63l-1 1h-63l-1-1v-63z" fill="#FEFEFE"/>
<path transform="translate(1128,1570)" d="m0 0h32l10 2 8 7 5 10 1 5v30l-3 10-8 9-7 3-7 1h-13l-10-2-5-5-3-6-1-8v-34z" fill="#FEFEFE"/>
<path transform="translate(874,1570)" d="m0 0h32l9 2 6 4 6 9 2 6 1 13v11l-2 15-3 6-5 6-8 4-7 1h-13l-10-2-6-5-2-5-1-6v-58z" fill="#FEFEFE"/>
<path transform="translate(1298,1570)" d="m0 0h10l12 3 7 7 4 8 2 8v24l-3 12-5 8-5 4-4 2-6 1h-12l-10-2-8-7-5-11-2-14v-10l2-13 5-10 8-7z" fill="#FEFEFE"/>
<path transform="translate(822,375)" d="m0 0h58l2 1v59l-1 1h-59l-1-16v-43z" fill="#FEFEFE"/>
<path transform="translate(716,516)" d="m0 0h58l2 4-1 56-1 1h-58l-1-1v-59z" fill="#FEFEFE"/>
<path transform="translate(300,1570)" d="m0 0h19l8 2 7 5 5 9 1 4v12l-4 8-9 9 15 25v3h-13l-5-3-12-22-1-1-10-1v26l-1 1h-13l-1-12v-45l1-10 4-7z" fill="#FEFEFE"/>
<path transform="translate(444,1570)" d="m0 0h13l4 3 6 11 12 20 8 13h1v-46l1-1h13l1 1v70l-3 5-6 1-6-3-8-11-13-21-8-12v46l-1 1h-13l-1-1z" fill="#FEFEFE"/>
<path transform="translate(1848,1570)" d="m0 0h12l4 2 9 16 11 18 7 11 1-46 1-1h13l1 1v68l-2 6-3 2h-6l-7-6-14-22-12-19-1 47h-14z" fill="#FEFEFE"/>
<path transform="translate(971,285)" d="m0 0h53l1 1v53h-53l-1-1z" fill="#FEFEFE"/>
<path transform="translate(162,1570)" d="m0 0h31l11 2 5 4 5 9 1 4v15l-3 7-6 7-6 3-7 1h-16v24l-1 1h-13l-1-1-1-47v-18z" fill="#FEFEFE"/>
<path transform="translate(1200,848)" d="m0 0h20l33 1v53h-53l-1-1v-52z" fill="#FEFEFE"/>
<path transform="translate(1049,861)" d="m0 0h53l1 1v51l-1 1h-52l-1-1z" fill="#FEFEFE"/>
<path transform="translate(720,406)" d="m0 0h51l1 1v52h-52l-1-9v-43z" fill="#FEFEFE"/>
<path transform="translate(719,1570)" d="m0 0h13l1 1v32h27v-32l1-1h13l1 1v76h-14l-1-1v-29h-26l-1 30h-14z" fill="#FEFEFE"/>
<path transform="translate(91,1570)" d="m0 0h17l5 8 7 14v2l4-4 11-19 2-1h16l-1 4-15 24-6 10 16 25 8 12v2h-16l-5-5-10-17-3-2-6 10-7 12-2 2h-16l1-5 11-17 9-15-1-7-12-19-7-11z" fill="#FEFEFE"/>
<path transform="translate(1086,1570)" d="m0 0h6l3 4 7 20 15 44 3 8-1 1h-12l-3-1-4-13h-24l-4 14h-12l-4-2 5-13 12-36 7-19 4-6z" fill="#FEFEFE"/>
<path transform="translate(1482,1570)" d="m0 0h17l3 3 9 19 3 2 2-5 10-18 3-1h15v3l-12 19-9 14 1 5 12 19 7 10 3 4v3h-16l-5-5-11-19-3 1-12 21-2 2h-16l2-6 12-19 8-13-2-6-12-20-7-10z" fill="#FEFEFE"/>
<path transform="translate(930,451)" d="m0 0h48l1 1v47l-1 1h-48z" fill="#FEFEFE"/>
<path transform="translate(1191,652)" d="m0 0h24l19 1v47l-2 1h-46l-1-1v-47z" fill="#FEFEFE"/>
<path transform="translate(1327,638)" d="m0 0h48l1 6-1 43-3 1-45-1z" fill="#FEFEFE"/>
<path transform="translate(1194,1570)" d="m0 0h50v8l-2 6-32-1v20h23v13l-2 1h-11l-10-1v17h32l2 1v12l-1 1h-32l-9-2-5-6-2-5-1-13z" fill="#FEFEFE"/>
<path transform="translate(789,1570)" d="m0 0h48l1 1v12l-1 1-33-1v13l-1 7h24v13l-6 1h-17l1 16 33 1v12l-1 1h-35l-7-3-5-6-1-2-1-26v-39z" fill="#FEFEFE"/>
<path transform="translate(1325,456)" d="m0 0h47l1 1v16l-1 31h-48v-47z" fill="#FEFEFE"/>
<path transform="translate(577,1570)" d="m0 0h49l1 1v12l-5 1-30-1v20h23l1 1v11l-1 1-11 1h-11v12l1 4 33 1v12l-1 1h-34l-7-2-6-7-2-9z" fill="#FEFEFE"/>
<path transform="translate(940,1570)" d="m0 0h49l1 5-1 9h-14l-20-1 1 3-1 17h23l1 1v11l-1 1-9 1h-13v12l1 4h31l2 6v7l-1 1h-32l-9-2-6-7-2-9z" fill="#FEFEFE"/>
<path transform="translate(1614,1570)" d="m0 0h49l1 1v12h-35v20h23l1 1v11l-1 1-22 1v12l1 4 32 1 1 5v7l-1 1h-32l-9-2-6-7-2-9z" fill="#FEFEFE"/>
<path transform="translate(1787,1570)" d="m0 0h49l1 4v9h-35v20h23l1 1v11l-1 1-22 1v12l1 4 32 1 1 2-1 11h-35l-7-3-6-6-1-4z" fill="#FEFEFE"/>
<path transform="translate(225,1570)" d="m0 0h49l1 5-1 8h-34v20h23l1 1v11l-1 1h-23l1 18h33l1 12-1 1h-32l-8-1-6-5-3-9-1-61z" fill="#FEFEFE"/>
<path transform="translate(35,1570)" d="m0 0h49l1 2v10l-3 2-32-1v20h23l1 2-1 11-2 1h-20l-1 16 34 1 1 2-1 10-1 1h-28l-13-2-5-6-2-8z" fill="#FEFEFE"/>
<path transform="translate(1426,1570)" d="m0 0h49l1 3v9l-1 1-33 1-1 19h23l1 1v11l-1 1-22 1v13l1 3 32 1 1 2-1 10-1 1h-27l-11-1-6-4-3-6-1-7z" fill="#FEFEFE"/>
<path transform="translate(1981,1570)" d="m0 0h49l1 5-1 8-5 1-29-1v20h23l1 3-1 10-8 1h-14v15l2 1 31 1v12l-1 1h-33l-7-2-6-7-2-6z" fill="#FEFEFE"/>
<path transform="translate(384,1570)" d="m0 0h48l1 1v12l-5 1h-29l-1 19h24v13l-5 1h-18v11l1 5 32 1 1 1v11l-1 1h-35l-7-3-6-8-1-34v-29z" fill="#FEFEFE"/>
<path transform="translate(1574,1570)" d="m0 0 13 1 8 4 6 7 3 8v6h-13l-6-9-6-3-7 1-6 5-2 6-1 18 2 11 3 6 4 2h9l6-4 2-4 1-8h14v8l-3 9-5 7-6 4-9 2h-10l-8-2-8-7-6-12-1-5v-24l4-13 6-8 10-5z" fill="#FEFEFE"/>
<path transform="translate(536,1570)" d="m0 0 14 1 8 4 6 8 3 8v5h-12l-8-10-5-2-8 1-5 5-2 6v26l3 8 6 3h8l5-3 2-2 2-11h14v8l-3 9-6 8-8 4-5 1h-10l-9-2-8-7-5-9-2-9v-22l3-12 6-9 10-6z" fill="#FEFEFE"/>
<path transform="translate(1019,1570)" d="m0 0h11l10 3 6 5 4 8 1 3v7h-12l-6-9-6-3-8 1-5 5-2 6-1 17 2 13 3 5 4 2h9l5-3 3-6 1-7h14v7l-3 10-6 8-7 4-6 1h-10l-9-2-6-4-5-7-3-9-1-6v-21l4-14 6-8 6-4z" fill="#FEFEFE"/>
<path transform="translate(1939,1570)" d="m0 0h9l8 2 7 4 6 9 1 4v7h-12l-6-9-7-3-7 1-5 4-2 5-1 9v13l2 10 3 5 4 2h9l6-4 2-5 2-7h12l1 4-2 10-4 7-8 7-8 2h-11l-8-2-7-5-6-10-2-8v-26l3-10 6-9 7-5z" fill="#FEFEFE"/>
<path transform="translate(1359,1570)" d="m0 0h35l-1 13-1 1h-23l-8 1-1 14-1 4h27l1 3-1 9-5 2h-21l-1 30h-14l-1-1v-63l2-6 4-6z" fill="#FEFEFE"/>
<path transform="translate(1198,300)" d="m0 0h40l1 1v39l-1 1h-40z" fill="#FEFEFE"/>
<path transform="translate(801,607)" d="m0 0h40l1 1v33l-1 6h-40z" fill="#FEFEFE"/>
<path transform="translate(655,1570)" d="m0 0h54l1 4v8l-1 1-19 1v62l-1 1h-14l-1-63h-9l-10-1z" fill="#FEFEFE"/>
<path transform="translate(951,880)" d="m0 0h40v40h-40l-1-2z" fill="#FEFEFE"/>
<path transform="translate(661,673)" d="m0 0h38v39h-38l-1-1v-37z" fill="#FEFEFE"/>
<path transform="translate(1676,1570)" d="m0 0h14l1 1 1 62 30 1v12l-1 1h-28l-8-2-7-6-2-4-1-49z" fill="#FEFEFE"/>
<path transform="translate(1732,1570)" d="m0 0h13l2 1v58l1 4 30 1v12l-1 1h-28l-7-1-9-8-1-2-1-11v-45z" fill="#FEFEFE"/>
<path transform="translate(1024,222)" d="m0 0h38v38l-4 1h-33l-1-1z" fill="#FEFEFE"/>
<path transform="translate(967,368)" d="m0 0 3 1v38h-38l-1-5v-32l1-1z" fill="#FEFEFE"/>
<path transform="translate(1303,1583)" d="m0 0 8 2 5 5 2 7v23l-3 9-5 4-2 1h-9l-6-3-4-7-1-6v-18l2-8 4-6z"/>
<path transform="translate(1144,1583)" d="m0 0h9l9 1 5 5 2 8v23l-2 8-5 5-3 1h-11l-5-3-1-5v-42z"/>
<path transform="translate(888,1584)" d="m0 0h19l5 4 2 5v31l-3 6-6 4h-12l-5-3-1-21z"/>
<path transform="translate(353,1570)" d="m0 0h14l1 1v75l-1 1h-13l-1-1-1-50v-25z" fill="#FEFEFE"/>
<path transform="translate(1057,758)" d="m0 0h31l1 1v31l-1 1h-31z" fill="#FEFEFE"/>
<path transform="translate(1330,546)" d="m0 0h32l1 1v30l-1 1h-31l-1-1z" fill="#FEFEFE"/>
<path transform="translate(1095,294)" d="m0 0h31l1 1v30l-1 1h-32v-31z" fill="#FEFEFE"/>
<path transform="translate(1230,216)" d="m0 0h32v31l-1 1h-31l-1-6v-23z" fill="#FEFEFE"/>
<path transform="translate(936,226)" d="m0 0h32v31l-1 1h-30l-1-1z" fill="#FEFEFE"/>
<path transform="translate(671,474)" d="m0 0h26l1 1v24l-1 1h-26z" fill="#FEFEFE"/>
<path transform="translate(177,1583)" d="m0 0h13l7 2 3 5v11l-3 5-2 2-4 1h-14l-1-3v-22z"/>
<path transform="translate(308,1583)" d="m0 0h8l6 3 3 6v8l-3 5-6 3h-14l-1-1v-18l2-4z"/>
<path transform="translate(1088,1591)" d="m0 0 2 3 7 26h-18l3-11 5-17z"/>
</svg>
