<?xml version="1.0" encoding="UTF-8"?>
<svg version="1.1" viewBox="0 0 1412 1152" width="1280" height="1280" xmlns="http://www.w3.org/2000/svg">
<path transform="translate(1044,24)" d="m0 0h23l11 3 6 4 7 8 3 10v11l-4 17-6 16-11 22-12 19-14 20-13 18-14 18-13 15-12 14-9 10-7 8-9 10-11 12-21 21-7 8-15 15-6 5-32 32-8 7-12 11-6 5-1 2h32v66h-67v-18l1-18-10 8-10 9-11 9-16 13-2 1-1 41-1 1h-41l-2-4-5 3-8 7-11 7 1 9v45l-1 1h-52l-1-14-11 7-18 13-8 5-1 2h21v27l-1 1h-26l-1-1v-21h-3l-11 8-26 17-24 15-19 12-20 12-28 16-18 10-17 9-19 9-14 7-38 16-21 7-28 7-13 2h-14l-14-3-9-6-6-7-3-7v-15l5-19 9-20 10-19 18-27 12-17 10-13 13-16 8-10 13-15 9-10 7-8 9-10 11-12 7-7 7-8 46-46 8-7h4l6 5-1 4-12 12-7 8-22 22-7 8-11 12-7 8-12 14-21 28-10 16-8 16-3 8-1 4v12l3 5 5 3 4 1h11l16-3 24-8 24-11 31-16 23-13 26-16 19-12 3-2-9-2v-42l1-1h42l1 4-1 18 11-7 36-26 19-14 13-10 12-9 5-5h-24l-1-57 1-1h58v31l9-6 8-7 5-4 1-41h47l8-7 10-9h2v-2l8-7 7-7 8-7 11-11 1-22 23-1 10-9 8-8 7-8 15-15 7-8 10-11 9-11 14-17 14-19 11-18 8-16 3-10v-12l-6-7-6-2h-11l-16 3-21 7-21 9-26 13-23 13-21 12-26 16-7 5-5-1-5-7 5-5 21-14 23-15 21-13 22-13 25-14 19-10 18-8 25-9 21-5 18-2h10l13 2 8 4 8 9 3 10v12l-4 17-8 18-8 16-10 16-13 19-16 21-8 10-14 17-9 10-7 8-15 16-7 8-12 12-3 4h-2v3l46-46 7-8 11-12 9-10 9-11 14-17 10-13 13-19 7-10 10-16 10-19 7-19 3-17-1-11-4-8-7-6-12-4h-22l-17 2 1-2 24-8 26-6zm-155 262 1 2 1-2zm-1 2m-2 1-11 11h3l10-10zm-12 12m-1 1m-1 1m-1 1m-1 1m-1 1m-1 1m-2 1-3 4 4-2 1-2zm-4 4m-1 1m-1 1m-212 175m-1 1m-21 15m-2 1m-1 1m-1 1m-2 1m-1 1m-2 1m-1 1m-2 1-1 2 3-1zm-3 2-5 5 5-2 2-3zm-7 5-33 21-22 13-21 12-18 10-23 12-22 11-31 13-30 10-22 5-8 1h-18l-11-3-8-5-6-12v-16l5-17 7-16 9-16-1-2-8 10-10 15-10 17-9 21-3 12v14l4 8 7 6 7 3 11 2 16-1 19-4 36-12 32-14 36-18 23-13 21-12 24-15 22-14 20-13 16-11 1-2zm-251 18 1 2z" fill="#FEFEFE"/>
<path transform="translate(767,888)" d="m0 0h17l18 2 9 4 8 6 6 9 3 7 1 5v95h-25l-1-1v-49l-45-1v-26h45l-1-18-1-5-7-1h-36l-6 2-2 4-1 94-1 1h-25v-95l4-12 6-8 8-7 8-4z" fill="#FEFEFE"/>
<path transform="translate(862,889)" d="m0 0h75l10 3 10 7 6 8 4 9 1 5v62l-2 9-7 11-9 8-10 4-8 1h-70v-42h25l1 1v14l1 1h41l9-2 2-5v-62l-1-5-4-1-48-1v51h-25l-1-1z" fill="#FEFEFE"/>
<path transform="translate(305,889)" d="m0 0h75l10 3 10 7 7 9 4 11v67l-4 10-6 8-8 7-10 4-7 1h-70l-1-1v-39l1-2h25l1 16h40l11-2 2-11v-50l-2-10-5-2-47-1v51h-25l-1-6z" fill="#FEFEFE"/>
<path transform="translate(627,888)" d="m0 0h18l18 2 12 6 8 9 5 11 2 10v4h-26l-3-12v-2l-5-1h-38l-6 2-2 8v57l2 6 12 2h26l10-2 3-7v-6l1-1h25v10l-3 10-6 9-9 8-10 4-6 1h-38l-12-3-11-8-7-10-3-9-1-6v-56l3-12 6-10 9-8 9-4 4-1z" fill="#FEFEFE"/>
<path transform="translate(709,237)" d="m0 0h78v76l-1 1h-76l-1-1z" fill="#FEFEFE"/>
<path transform="translate(445,889)" d="m0 0h105l1 3-1 22h-80v26l66-1 2 3v22l-1 1h-92l-1-5v-69z" fill="#FEFEFE"/>
<path transform="translate(1e3 889)" d="m0 0h106v24l-1 1h-80l1 2v24h67v25h-92l-1-1z" fill="#FEFEFE"/>
<path transform="translate(546,150)" d="m0 0h73v71l-1 1-66 1-7-1v-71z" fill="#FEFEFE"/>
<path transform="translate(783,501)" d="m0 0h57l1 1v57l-2 1h-56l-1-1v-57z" fill="#FEFEFE"/>
<path transform="translate(571,331)" d="m0 0h49l2 2v56l-2 1h-56l-1-1v-57z" fill="#FEFEFE"/>
<path transform="translate(1e3 974)" d="m0 0h24l2 1 2 11 2 3 6 1 70 1v25h-75l-11-4-8-6-6-7-4-8-2-10z" fill="#FEFEFE"/>
<path transform="translate(445,974)" d="m0 0h23l2 1 3 14 8 1 69 1 1 24-1 1h-75l-11-4-9-7-7-10-3-10z" fill="#FEFEFE"/>
<path transform="translate(480,205)" d="m0 0h42l2 1v43l-2 1h-42l-1-1v-43z" fill="#FEFEFE"/>
<path transform="translate(878,500)" d="m0 0h45v44h-45z" fill="#FEFEFE"/>
<path transform="translate(561,254)" d="m0 0h41l1 1v39l-2 2h-39l-1-1z" fill="#FEFEFE"/>
<path transform="translate(525,351)" d="m0 0 4 1v41h-42v-41z" fill="#FEFEFE"/>
<path transform="translate(301,1082)" d="m0 0h6l4 2 17 28 1 1 1-30 1-1 9 1 1 44-2 7-1 1-7-1-9-12-10-16-2-3v27l-1 5h-9l-1-9v-19l1-24z" fill="#FEFEFE"/>
<path transform="translate(665,191)" d="m0 0h36l1 1v36l-2 1h-34l-1-1z" fill="#FEFEFE"/>
<path transform="translate(1273,1082)" d="m0 0 8 1 4 4 14 23 4 4-1-6v-24l1-2 9 1 1 1v45l-2 5-1 1-7-1-10-14-10-16h-1v31h-10v-52z" fill="#FEFEFE"/>
<path transform="translate(823,582)" d="m0 0h37v36l-1 1h-36z" fill="#FEFEFE"/>
<path transform="translate(720,590)" d="m0 0h35l1 1v35l-11 1h-26v-36z" fill="#FEFEFE"/>
<path transform="translate(491,275)" d="m0 0h35l1 1v34l-6 2h-30l-1-1v-35z" fill="#FEFEFE"/>
<path transform="translate(597,1083)" d="m0 0h27l6 3 4 6 2 12v12l-2 9-4 6-8 4h-16l-6-3-3-7-1-11v-14zm11 8-1 1v32l2 2h11l4-2 2-9v-14l-2-7-5-3z" fill="#FEFEFE"/>
<path transform="translate(196,1083)" d="m0 0h21l6 4 3 4 1 3v12l-7 9v3l6 10 3 6-1 1h-9l-3-3-8-13-3-2h-3l-1 17-1 1h-9l-1-38 2-10zm7 8-2 2-1 4v8l2 3h10l4-2 2-4-2-9-3-2z" fill="#FEFEFE"/>
<path transform="translate(773,1083)" d="m0 0h28l6 4 3 4 2 8v21l-3 8-7 6-3 1h-18l-5-3-3-9zm11 8-1 1v30l2 4 9 1 6-3 2-6v-18l-3-7-3-2z" fill="#FEFEFE"/>
<path transform="translate(490,1083)" d="m0 0h10v22h19l-1-7v-14l1-1h10v52h-10v-21l-19 1v20h-10z" fill="#FEFEFE"/>
<path transform="translate(887,1083)" d="m0 0h16l7 4 4 7 1 4v21l-3 8-4 5-6 3h-14l-6-3-5-6-3-9v-16l3-10 4-5zm4 8-5 4-2 6v15l2 6 4 4 6 1 6-3 2-2 1-4v-19l-3-6-4-2z" fill="#FEFEFE"/>
<path transform="translate(911,436)" d="m0 0h33l1 1v32l-2 1h-31l-1-1z" fill="#FEFEFE"/>
<path transform="translate(637,306)" d="m0 0h31l2 1v33h-33l-1-1v-32z" fill="#FEFEFE"/>
<path transform="translate(1019,1082)" d="m0 0h9l4 2 7 13h2l8-13 3-2h9l-1 4-13 21 2 5 13 21v3l-10-1-5-5-6-10v-2h-2l-2 5-7 11-7 2-4-1 1-5 13-21-2-5-12-20z" fill="#FEFEFE"/>
<path transform="translate(55,1082)" d="m0 0h8l5 2 8 13 1 1 8-14 4-2h8l-2 7-11 17 1 6 11 17 3 6h-11l-7-9-4-6h-2l-9 14-1 1h-10l2-6 8-13 4-7-2-6-12-19z" fill="#FEFEFE"/>
<path transform="translate(910,309)" d="m0 0 33 1v31l-1 2h-32l-1-1v-31z" fill="#FEFEFE"/>
<path transform="translate(814,446)" d="m0 0h32l1 1v20l-1 12h-33v-32z" fill="#FEFEFE"/>
<path transform="translate(104,1083)" d="m0 0h26l6 3 3 3 2 8v7l-3 8-4 4-7 2h-13v17h-9l-1-4zm11 8-1 1v16l1 1h10l5-3 1-2v-8l-4-5z" fill="#FEFEFE"/>
<path transform="translate(1230,1083)" d="m0 0h34v8h-24v14h16l1 1v6l-1 2h-16l1 11 16 1h6l1 1v8h-26l-5-2-2-4-1-8z" fill="#FEFEFE"/>
<path transform="translate(980,1083)" d="m0 0h34v7l-1 1h-23v14h16l1 2v6l-1 1h-16l1 12h21l2 1v8h-26l-6-3-2-7z" fill="#FEFEFE"/>
<path transform="translate(1112,1082)" d="m0 0 32 1v8h-24v14h17v8l-1 1-15 1v11h22l2 5-1 4h-26l-5-3-2-4-1-20v-25z" fill="#FEFEFE"/>
<path transform="translate(392,1083)" d="m0 0h34v8h-24v14h16l1 1v7l-1 1h-16l1 12 22 1 1 1v7h-27l-5-4-2-7z" fill="#FEFEFE"/>
<path transform="translate(259,1082)" d="m0 0 33 1v8l-24 1 1 13h14l1 1v7l-1 1-15 1v11h22l2 2v7h-27l-6-5-1-2v-45z" fill="#FEFEFE"/>
<path transform="translate(16,1083)" d="m0 0h34l1 2-1 6-23 1-1 13h14l3 1v7l-1 1-15 1v8l1 2 4 1 18 1 1 7-1 1h-24l-6-2-3-5-1-6z" fill="#FEFEFE"/>
<path transform="translate(820,1083)" d="m0 0h33l1 1v7h-24v10l1 4h14l1 1v7l-1 1h-15l1 11 3 1h19l1 2v6l-1 1h-26l-6-5-1-3z" fill="#FEFEFE"/>
<path transform="translate(644,1082)" d="m0 0 33 1v8l-4 1-19-1v15l15-1 1 1v7l-1 1h-15l1 11 2 1h19l2 4v5h-27l-6-5-1-2-1-42z" fill="#FEFEFE"/>
<path transform="translate(148,1083)" d="m0 0h34v8h-24l1 14 15 1 1 1v5l-2 2h-15l1 11 5 1h16l2 1v8h-27l-5-4-1-2-1-9z" fill="#FEFEFE"/>
<path transform="translate(539,1083)" d="m0 0h33v8l-23 1-1 13h17v8l-1 1-15 1v10l17 1h5l2 6-1 3h-26l-5-3-2-3-1-36z" fill="#FEFEFE"/>
<path transform="translate(699,1082)" d="m0 0 11 1 6 4 3 4 1 9-1 1h-5l-8-8-2-1h-6l-3 3-2 5v17l3 7 3 2 8-1 3-4 2-7h7l1 1v7l-4 8-5 4-3 1h-13l-6-3-5-8-2-7v-16l3-10 5-6z" fill="#FEFEFE"/>
<path transform="translate(358,1083)" d="m0 0h15l7 4 4 6v8l-7-1-7-7-2-1h-6l-3 3-2 6v15l3 8 3 2 8-1 3-5 2-6h8l1 5-3 9-7 6-3 1h-13l-5-3-5-6-3-8v-17l4-11 5-5z" fill="#FEFEFE"/>
<path transform="translate(1366,1082)" d="m0 0 32 1v8h-24l1 14h16v7l-1 2h-16l1 12h22l1 1v7l-1 1h-25l-5-3-2-5-1-24v-9l1-11z" fill="#FEFEFE"/>
<path transform="translate(744,1082)" d="m0 0 5 1 4 8 14 41v3h-9l-2-2-1-8-19 1-1 8-1 1h-10l1-5 13-38 4-9zm1 16-4 11-2 7 1 1h12l-4-17z" fill="#FEFEFE"/>
<path transform="translate(1076,1083)" d="m0 0h16l6 4 4 5 1 7-1 2-6-1-7-7-2-1h-7l-4 5-1 6v9l2 12 5 2 6-1 5-5 2-6h7l1 1-1 9-4 6-5 4-3 1h-14l-7-6-4-9-1-4v-13l3-11 7-8z" fill="#FEFEFE"/>
<path transform="translate(1331,1083)" d="m0 0h14l7 4 4 6v8l-6-1-5-5-4-3h-7l-3 3-2 7v12l2 8 4 4 8-1 4-6 2-5h7l1 5-3 9-7 6-3 1h-13l-5-3-4-5-3-7-1-4v-12l3-12 6-7z" fill="#FEFEFE"/>
<path transform="translate(928,1083)" d="m0 0h29v8h-23v14h18l1 2-2 7h-18v21h-9l-1-4 1-44z" fill="#FEFEFE"/>
<path transform="translate(547,414)" d="m0 0h27l1 1v26l-1 1h-27z" fill="#FEFEFE"/>
<path transform="translate(822,202)" d="m0 0h28v27l-1 1h-26l-1-1z" fill="#FEFEFE"/>
<path transform="translate(651,603)" d="m0 0 27 1 1 1v25l-1 1h-28v-26z" fill="#FEFEFE"/>
<path transform="translate(450,460)" d="m0 0h26l1 5-1 22h-26l-1-6v-20z" fill="#FEFEFE"/>
<path transform="translate(638,249)" d="m0 0h25l1 1v25l-1 1h-25l-1-1v-25z" fill="#FEFEFE"/>
<path transform="translate(702,147)" d="m0 0h25l1 1v25l-1 1h-25l-1-4v-22z" fill="#FEFEFE"/>
<path transform="translate(1191,1083)" d="m0 0h11v43l21 1 1 7-1 1h-24l-5-4-2-3-1-6z" fill="#FEFEFE"/>
<path transform="translate(445,1083)" d="m0 0h38l1 1v6l-1 1-12 1-1 1-1 42h-9l-1-43-14-1z" fill="#FEFEFE"/>
<path transform="translate(1153,1083)" d="m0 0h10l1 42 11 1h9l1 1v7l-1 1h-24l-5-5-2-5z" fill="#FEFEFE"/>
<path transform="translate(236,1083)" d="m0 0h11v51l-1 1h-9l-1-13z" fill="#FEFEFE"/>
<path transform="translate(751,197)" d="m0 0h20l2 1v21l-2 1h-20l-1-1v-20z" fill="#FEFEFE"/>
<path transform="translate(641,150)" d="m0 0h21l1 1v20l-1 1h-20l-2-1v-20z" fill="#FEFEFE"/>
<path transform="translate(724,519)" d="m0 0h21l1 1v21l-6 1h-15l-1-1z" fill="#FEFEFE"/>
<path transform="translate(914,372)" d="m0 0h21l1 1v20l-1 1h-21l-1-11z" fill="#FEFEFE"/>
<path transform="translate(844,143)" d="m0 0h21l1 1v21h-22z" fill="#FEFEFE"/>
<path transform="translate(458,322)" d="m0 0h15l2 1v17h-18v-17z" fill="#FEFEFE"/>
</svg>
