<?xml version="1.0" encoding="UTF-8"?>
<svg version="1.1" viewBox="0 0 2048 1709" width="1280" height="1280" xmlns="http://www.w3.org/2000/svg">
<path transform="translate(0)" d="m0 0h2048v1709h-2048z" fill="#FCFCFC"/>
<path transform="translate(0)" d="m0 0h904v75h-105l105 1v113l-1 1h-106l-6 1-1-2v-113l1-2-49 1h44l3 1v169l1 2 1 50v56h33v1h-33v24h-1l-1 42-1 1 1 5v109l-15 1 15 1v58l-1 55-90 1h90l1 10-1 49h-25v61h18l-3 3-18 11-20 13-28 17-29 17-16 8-24 13-16 8-23 11-28 10-23 7-19 3h-13l-10-3-6-5-4-9v-11l4-15 7-16 14-24 14-20 13-18 9-11 14-17 9-10 7-8 13-15 14-15 7-7 7-8 21-21 1-2h2l2-4 5-5 15-14-1-4-5-5-4-3-5 2-20 20h-2l-1 3-8 7-41 41-7 8-13 13-7 8-9 9-7 8-9 10-8 8-9 11-9 10-9 11-12 14-11 13-10 13-13 16-11 15-12 17-12 18-12 19-10 17-9 17-9 21-6 17-3 16v22l4 10 6 7 10 7 9 4 10 2 22 1h8l29-6 36-10 30-11 27-12 28-12 19-9 19-10 15-8 16-8 25-14 24-14 25-14 22-14 30-19h1v100l113-1 1-112h-53l-24-1v-1l5-1 187 2v230l1 7-1 108v114l-10 1h9l1 1v228h-114v-58l1-2 39-1 13-2 11-4 11-7 8-9 7-14 3-12 1-12h-37v12l-3 7-6 4-7 1h-48l-9-3-4-5-2-10v-80l4-8 7-4 10-1h34l14 1 5 3 4 5 1 3 1 11 36 1-3-20-5-13-8-11-11-8-11-5-8-2-10-1h-40l-14 2-11 4-10 6-7 5-3-2h-50v1h-9l-1-1v-16h-152v111h134v-37h-98v-36h109l-2 1v91l-105 1v-6l-38-1 2 17 4 13 7 11 8 8 10 6 12 4 10 1 99 1-1-37-7-1v-15h57l4 18 6 11 9 10 9 6 9 4 8 2 10 1 2 3v58h-114l-1-10v10h-114l-1-62v32l-1 30h-114v-63l15-8 10-9 6-8 5-12 2-15v-69l-1-16-4-13-7-11-8-8-14-8-11-3-8-1-99-1v112l5-1h32l-1-6 1-68h60l9 1 5 3 4 6 1 15v63l-1 13-4 6-5 3-6 1h-63l-1-3 1-21h-36l-1 61 98-1 15-1v62h-229v-228l1-1h111l1-1-113-1v-114l-1 1v344h-229v-157l1-72h-1v60l-1 53-72 1 72 1v114h-98z" fill="#FBFBFB"/>
<path transform="translate(1136)" d="m0 0h912v1455h-106v-229h-109l-5-1v-114l-1-13-1 12h-229l1-115h-115l-1-230v-231l-1-228h-1v114l-94 1v1h-10-2l-5 5-2-1 27-27 7-8 12-13 7-8 15-16 9-11 24-28 9-11 13-16 13-18 14-19 11-16 10-15 11-18 10-18 11-23 9-27 3-20-1-15-4-10-6-9-8-6-10-4-11-2h-30l-18 3-30 7-37 13 27-4h26l14 3 11 6 5 4 6 9 3 10v19l-5 21-8 20-14 29-15 23-7 11-12 17-12 16-10 13-8 10-11 14-9 11-7 8-9 11-10 10-7 8-12 14-9 9-1 2h-2l-2 4-27 27-7 8-16 15-15 15-8 7-8 8-8 7-15 14-20 18-8 7-7 7-11 9-14 12-13 11-2-1 11-10 8-7 20-18 8-7 17-16 10-9 17-16 8-7 9-9h2l1-3 6-5 5-6h2l2-4 12-12h2l2-4h2l2-4 8-8 7-8 29-31 12-14 9-11 12-14 11-14 9-11 12-17 13-18 11-17 12-20 12-23 9-22 5-19 1-6v-20l-4-12-6-8-8-6-9-4-16-3h-18l-18 2-29 6-19 6-29 11-21 9-21 11-23 13-24 13-16 10-27 16-20 13-32 21-9 6h-3v-55-2z" fill="#FBFBFB"/>
<path transform="translate(904)" d="m0 0h232l1 77-1 113h83v1l-82 1-1 55 9-5 35-23 22-14 40-24 16-9 29-16 22-12 18-8 34-13 19-6 29-6 18-2h18l16 3 14 7 7 7 5 10 2 7v20l-4 18-5 15-11 24-12 22-14 22-9 13-13 18-14 19-12 14-8 10-12 14-9 11-9 10-29 31-11 12-22 22-5 6h-2l-2 4h-2l-1 3-8 7-12 12-8 7-13 12-16 15-10 9-14 13-8 7-11 10-11 9 3-2 11-9 10-9 11-9 10-9 14-13 8-7 13-12 24-22 17-16 15-15 8-7 14-15 20-20 1-2h2l2-4 11-11 9-11 15-16 9-10 7-9 9-10 8-11 10-12 13-17 14-19 11-16 12-19 10-16 14-29 6-16 5-21v-19l-3-10-6-9-9-6-9-4-11-2h-26l-20 3-9 1 2-2 37-13 34-8 14-2h30l14 3 12 6 8 9 5 10 2 12-1 16-4 18-8 22-14 29-10 17-13 20-13 19-13 18-14 19-11 14-22 26-12 14-9 11-11 12-9 10-12 13-7 8-14 15-18 18-5 6-5 4-7 8-30 30-5 4-37 37-8 7-17 16-15 13-8 7 48 1v96h-96v-54l-8 7-11 10-11 9-14 12-14 11-10 8-3 3-1 58-1 1h-61l-1-1v-6l-14 11-13 10-11 7 3 3v75h-75v-22l-7 4-14 10-24 16-13 9 32 1v40h-40v-34l-7 4-17 12-24 16-17 11-23 14-23 15-18 11-15 9-23 13-21 12-23 13-19 10-32 16-27 13-31 13-18 8-31 11-39 10-21 4h-16l-18-2-10-3-10-6-9-8-5-10-1-3v-22l3-16 8-22 12-26 12-21 12-19 8-12 11-16 8-11 12-16 11-14 13-16 9-11 13-15 9-11 13-15 11-12 7-7 7-8 9-10 8-8 7-8 13-13 7-8 42-42 8-7 17-17 5-2 6 5 5 6-2 4-14 13-5 5-2 3h-2l-2 4-25 25-7 8-10 10-7 8-13 15-12 13-11 14-10 12-10 13-13 19-8 11-12 21-7 14-5 15-1 5v11l5 10 7 4 7 2h13l19-3 26-8 25-9 26-12 19-10 24-13 19-10 28-17 17-10 25-16 16-10 2-1-17-1v-61h25v-49l-1-9h-110l-1-2h112v-112l-18-1 4-2h15l-1-6v-108h-26v-1h27v-55h1l1-12-2-106-1-2v-87l1-82h-91v-1l37-1h56v115l1 1 7-1h104l1-113h-105l-6-1v-1h104l7 1z" fill="#FBFBFB"/>
<path transform="translate(1250,658)" d="m0 0h1l1 110-1 111h114v-112l-18-1v-1l20-1 1 2v231l-1 111-2-1 1-110h-111v-1l110-1v-112l-114-1 1 135v211l-1 73-1 22h-1v-49l1-47h-112v-1h112v-114l-21 1h-89l-4-1 1 116-1 95h-1l-1-8v-87l-110-1v-1h111l-1-5v-108h-61l-48-1v-1l49-1h61l-1-4 1-109h-112v-1l111-1v-111l-38-1v54h-54v-54h-21v112l1 2-1 61v167l1 2-1 69v198l-1 77h115l-1-2v-111h-47l2-2h46v-17h1l1 18-1 114h113l-1-121 3-1 35 1v23h62l9-2 5-5 2-10v-70l-1-13-4-6-4-2-9-1h-60l-1 73-36 1v-112h98l12 2 14 5 11 8 8 9 6 12 2 6 1 8 1 82-4 18-7 13-9 9-11 7-11 4-13 2h-97l1 44 1 18v136h-1252v-138h98l-1-2v-47l1-65h-79v-1l7-1h72v-53l1-60-3-1h5l-1 73v45l-1 112h229v-114h-110v-1h110l-1-7 1-107h-96v-1h96v-114h-98v-1l99-1 1 3-1 112h113l1 2-2 1h-111l-1 113h112v1h-112v114h114v-51h1v51h114v-62l-15 2h-98v-62l37 1v23h63l8-2 5-5 1-2 1-13v-63l-1-15-4-6-4-2-9-1-60-1v74l-37 1v-112h99l12 2 11 4 11 7 8 8 7 11 4 13 1 16v72l-3 15-7 14-11 11-14 8-3 1-1 63h114v-62l2-3v65l113-1 1-55h1v56h114l-1-58-1-2-14-2-11-4-10-6-9-9-8-14-3-12v-6h-57v15h7l1 1v37h-99l-13-2-13-5-9-7-7-7-7-12-4-17v-11h36l2 1v6l13-1h92v-91l-107-1v36h98v37h-134v-111l144-1 8 1 1 16h6v-1h53l4 2 10-8 13-6 9-2 9-1h40l14 2 11 4 10 6 7 6 7 10 5 13 2 11v9h-36l-1-1-1-11-3-6-3-3-3-1-14-1h-40l-8 3-3 1-2 5-1 3v80l2 10 5 5 7 2h48l9-2 5-5 2-16h37v12l-4 15-6 11-9 10-13 8-12 4-10 1h-39v20l-1 40h114v-113h-14v-1h14l-1-114-25-1v-1h26v-114h-112v-1h112v-111l-1-4v-115l1-114h-104v-1h104v-114l-1-2h112v2h-108l-1 68v45l34 1h39l39-1v-124l2-1 82 1v84h-82l1 4v36h54v2h-54l1 115-1 113h114v-113h-112v-1l111-1v-228h-27l4-2h24z" fill="#FBFBFB"/>
<path transform="translate(1671,75)" d="m0 0h40l1 1v42l-1 71-54 1 54 1v112l-3 1 4 2v9l1-10h113l1 1 1 59v-60-2-112l1-1h101l11 1v113 2 113h-106l106 1v114l-242 1h12v2l3-2h113v114l-4 1h-104l108 1v228l-1 1h-228v-114h114v42l-1 70h2v-112h-117v114h-113l-1-115v-231l-1-228h116v-230z" fill="#FDFDFD"/>
<path transform="translate(1512,67)" d="m0 0h30l14 3 12 6 8 9 5 10 2 12-1 16-4 18-8 22-14 29-10 17-13 20-13 19-13 18-14 19-11 14-22 26-12 14-9 11-11 12-9 10-12 13-7 8-14 15-18 18-5 6-5 4-7 8-30 30-5 4-37 37-8 7-17 16-15 13-8 7 48 1v96h-96v-54l-8 7-11 10-11 9-14 12-14 11-10 8-3 3-1 58-1 1h-61l-1-1v-6l-14 11-13 10-11 7 3 3v75h-75v-22l-7 4-14 10-24 16-13 9 32 1v40h-40v-34l-7 4-17 12-24 16-17 11-23 14-23 15-18 11-15 9-23 13-21 12-23 13-19 10-32 16-27 13-31 13-18 8-31 11-39 10-21 4h-16l-18-2-10-3-10-6-9-8-5-10-1-3v-22l3-16 8-22 12-26 12-21 12-19 8-12 11-16 8-11 12-16 11-14 13-16 9-11 13-15 9-11 13-15 11-12 7-7 7-8 9-10 8-8 7-8 13-13 7-8 42-42 8-7 17-17 5-2 6 5 5 6-2 4-14 13-5 5-2 3h-2l-2 4-25 25-7 8-10 10-7 8-13 15-12 13-11 14-10 12-10 13-13 19-8 11-12 21-7 14-5 15-1 5v11l5 10 7 4 7 2h13l19-3 26-8 25-9 26-12 19-10 24-13 19-10 28-17 17-10 25-16 16-10 2-1-17-1v-61l27-1 36 1v19l1 12 13-10 19-13 18-13 14-10 12-9 11-8 16-12 17-13 14-11 6-4h-38v-84h84l1 47 12-11 11-9 8-7 1-38v-20l7-1 56 1 1 3 3-1 7-8 11-9 8-8 11-9 7-7 8-7 15-14 12-12 1-32 33-1 8-7 34-34 7-8 13-13 9-11 11-12 7-8 11-13 9-11 13-17 14-19 7-11 8-13 11-21 5-13 2-10v-10l-4-9-6-5-14-3-6 1h-8l-23 5-24 8-27 11-16 8-21 10-14 8-30 16-40 24-30 19-5 4-4-1-9-12 5-5 15-10 25-16 21-14 22-14 40-24 16-9 29-16 22-12 18-8 34-13 19-6 29-6 18-2h18l16 3 14 7 7 7 5 10 2 7v20l-4 18-5 15-11 24-12 22-14 22-9 13-13 18-14 19-12 14-8 10-12 14-9 11-9 10-29 31-11 12-22 22-5 6h-2l-2 4h-2l-1 3-8 7-12 12-8 7-13 12-16 15-10 9-14 13-8 7-11 10-11 9 3-2 11-9 10-9 11-9 10-9 14-13 8-7 13-12 24-22 17-16 15-15 8-7 14-15 20-20 1-2h2l2-4 11-11 9-11 15-16 9-10 7-9 9-10 8-11 10-12 13-17 14-19 11-16 12-19 10-16 14-29 6-16 5-21v-19l-3-10-6-9-9-6-9-4-11-2h-26l-20 3-9 1 2-2 37-13 34-8z" fill="#010101"/>
<path transform="translate(328)" d="m0 0h576v75h-105l105 1v113l-1 1h-106l-6 1-1-2v-113l1-2-49 1h44l3 1v169l1 2 1 50v56h33v1h-33v24h-1l-1 42-1 1 1 5v109l-15 1 15 1v58l-1 55-90 1h90l1 10-1 49h-25v61h18l-3 3-18 11-20 13-28 17-29 17-16 8-24 13-16 8-23 11-28 10-23 7-19 3h-13l-10-3-6-5-4-9v-11l4-15 7-16 14-24 14-20 13-18 9-11 14-17 9-10 7-8 13-15 14-15 7-7 7-8 21-21 1-2h2l2-4 5-5 15-14-1-4-5-5-4-3-5 2-20 20h-2l-1 3-8 7-41 41-7 8-13 13-7 8-7 6-1-2v-76l-2-2 2-1 1-113h-97v-1l96-1 1-109 1-3-111-1-3-1v91l-1 23 2 1-2 3-2-4v-115l1-85h1l1 5v80l3-1 110 1v-102h1l1 7v58l-1 37h114v-32l1-81h-116l-225-1v-1h110v-102h1l1 24v77l113 1v-106h1l1 11v94l94 1 19 1v-114h-230l-89-1v-1h89v-112l-1-1h-112l-1 113 2 1h-2l1 115-4-1h2v-114l-2-1h2l-1-113-100-1v-1h101z" fill="#FCFCFC"/>
<path transform="translate(1366,1225)" d="m0 0 2 2h1 112v88h1v9l-1 2h120l1 1v37l-5 1 1 4v87h113v-113l-98-1v-1l99-1 2 2-2 114 60-1h32l22 1v-28l1-86h-8v-1h10l-1 145v84l220 1v138h-796l-1-7v-131l-1-16v-44l97-1 13-2 11-4 11-7 8-8 8-16 3-16-1-81-2-11-5-12-8-10-9-7-10-5-1-4v-99l-111-1v-1z" fill="#F9F9F9"/>
<path transform="translate(832,880)" d="m0 0 187 2v230l1 7-1 108v114l-10 1h9l1 1v228h-114v-58l1-2 39-1 13-2 11-4 11-7 8-9 7-14 3-12 1-12h-37v12l-3 7-6 4-7 1h-48l-9-3-4-5-2-10v-80l4-8 7-4 10-1h34l14 1 5 3 4 5 1 3 1 11 36 1-3-20-5-13-8-11-11-8-11-5-8-2-10-1-39-1-1-98-113-1v97h-1l-1-96-113-1v95l-2-3v-91h-113l-1 97h-1v-98h-113l-1 95h-1v-95h-99v-1h99v-114h-97v-1l96-1 1-52 5-2 25-5 36-10 30-11 27-12 28-12 19-9 19-10 15-8 16-8 25-14 24-14 25-14 22-14 30-19h1v100l113-1 1-112h-53l-24-1v-1z" fill="#FDFDFD"/>
<path transform="translate(1021,883)" d="m0 0h21v54h54v-54h38l1 1v111 2 113l-61 1-1 1 61 1 1 113v2 90l1-92v-114h114v162l-1 164 4-1h32v-73l1-1h60l9 1 6 4 3 5 1 13v70l-2 10-4 5-4 2-7 1h-62l-1-1v-20l1-3h-37l1 121-2 1-112-1v-116l-1 1-46 1h45l1 1v113h-115v-275l1-70-1-1v-167l1-62-1-1v-51z" fill="#FBFBFB"/>
<path transform="translate(1250,658)" d="m0 0h1l1 110-1 111h114v-112l-18-1v-1l20-1 1 2v231l-1 111-2-1 1-110h-111v-1l110-1v-112l-114-1 1 135v211l-1 73-1 22h-1v-49l1-47h-112v-1h112v-114l-21 1h-89l-4-1 1 116-1 95h-1l-1-8v-87l-110-1v-1h111l-1-5v-108h-61l-48-1v-1l49-1h61l-1-4 1-109h-112v-1l111-1v-111l-38-1v54h-54v-54h-21v112l1 2-1 61v167l1 2-1 69v198l-1 77h115l-1-2v-111h-47l2-2h46v-17h1l1 18-1 114h113l-1-121 3-1 35 1v23h62l9-2 5-5 2-10v-70l-1-13-4-6-4-2-9-1h-60l-1 73-36 1v-112h98l12 2 14 5 11 8 8 9 6 12 2 6 1 8 1 82-4 18-7 13-9 9-11 7-11 4-13 2h-97l1 44 1 18v136h-2v-22l-45 1h-67l3-2h109l-1-74v-39h-111l-2-1v20h-1l-1-7v-12h-113l-1 19h-1v-19h-113l-1 19h-1v-19h-112l-2-1v13h-1l-1-11-112-1-3 1-114-1v34h-1v-34h-113l-1 18h-1v-18h-113l-1 22h-1v-23l-113 1-2 4-1-4h-112v21l4 5 9 17h2l12-21 4-2h14l-2 6-10 16-9 14 1 5 11 18 11 17v1h-18l-13-23-3-3-2 6-10 17-1 3h-18l2-6 9-14 11-18-1-5-10-16-9-15v-3h13v-20l-97-1v-1h98l-1-2v-47l1-65h-79v-1l7-1h72v-53l1-60-3-1h5l-1 73v45l-1 112h229v-114h-110v-1h110l-1-7 1-107h-96v-1h96v-114h-98v-1l99-1 1 3-1 112h113l1 2-2 1h-111l-1 113h112v1h-112v114h114v-51h1v51h114v-62l-15 2h-98v-62l37 1v23h63l8-2 5-5 1-2 1-13v-63l-1-15-4-6-4-2-9-1-60-1v74l-37 1v-112h99l12 2 11 4 11 7 8 8 7 11 4 13 1 16v72l-3 15-7 14-11 11-14 8-3 1-1 63h114v-62l2-3v65l113-1 1-55h1v56h114l-1-58-1-2-14-2-11-4-10-6-9-9-8-14-3-12v-6h-57v15h7l1 1v37h-99l-13-2-13-5-9-7-7-7-7-12-4-17v-11h36l2 1v6l13-1h92v-91l-107-1v36h98v37h-134v-111l144-1 8 1 1 16h6v-1h53l4 2 10-8 13-6 9-2 9-1h40l14 2 11 4 10 6 7 6 7 10 5 13 2 11v9h-36l-1-1-1-11-3-6-3-3-3-1-14-1h-40l-8 3-3 1-2 5-1 3v80l2 10 5 5 7 2h48l9-2 5-5 2-16h37v12l-4 15-6 11-9 10-13 8-12 4-10 1h-39v20l-1 40h114v-113h-14v-1h14l-1-114-25-1v-1h26v-114h-112v-1h112v-111l-1-4v-115l1-114h-104v-1h104v-114l-1-2h112v2h-108l-1 68v45l34 1h39l39-1v-124l2-1 82 1v84h-82l1 4v36h54v2h-54l1 115-1 113h114v-113h-112v-1l111-1v-228h-27l4-2h24z" fill="#A8A8A8"/>
<path transform="translate(330,75)" d="m0 0h112l2 2-1 113h230l1 1v85l-1 29-113-1-1-1v-94l-1 95h-113l-1-1v-77l-1 78 116 1h80l35 1v81l-1 32h-114v-95l-1 95h-113l-1-80-1 79-2 1h-110l-1-1-1-114v-228z" fill="#FDFDFD"/>
<path transform="translate(1483,1112)" d="m0 0h113v113l-62 1 62 1v90l2-205h113l1 24-1 89-4 1 5 1v72l1-72 1-2-2-1 1-112h114v113l-85 1 84 1v113l-115 1 1 2v35l-1 78h-113l-1-87-1-5h6l-1-37-120-1z" fill="#FDFDFD"/>
<path transform="translate(1181,601)" d="m0 0h2v54l83-1v1l-6 1h-9l-1 109-24 1h23l1 1v228 2 113h-114v-228h54v-2h-54l-1-40h82v-84h-83v124l-1 1-39 1h-39l-34-1-1-1v-45l1-68 4-1 105 1v-2l-46 1h-65l1 1v34l-1 80h-187l19 1 53 1v112l-1 1h-113v-100l9-6 19-12 27-18 16-11 8-6h3v34h40v-40h-33l5-5 24-16 19-13 8-6h3v22h75l-1-75-3-3 12-8 13-10 11-9 3-1 1 6h61l1-58 5-5 10-8 16-13 13-11 11-9z" fill="#FBFBFB"/>
<path transform="translate(1366,1225)" d="m0 0 2 2h1 112v88h1v9l-1 2h120l1 1v37l-5 1 1 4v87h113v-113l-98-1v-1l99-1 2 2-2 114 60-1h32l22 1v-28l1-86h-8v-1h10l-1 145v84l220 1v1h-106l1 21 10 5 7 8 3 9-1 4h-12l-4-8-4-3h-11l-5 3-3 8-1 18 2 12 3 5 4 2h10l5-3 4-8 2-5h10l1 5-2 10-4 6-8 7-5 2h-15l-9-4-7-7-4-8-2-14 1-19 3-10 4-6 7-6 7-3 11-1v-20h-112v35h-34v19h17l7 1-1 12-8 1h-15l1 14 1 2 32 1v13h-34l-8-3-5-6-1-3v-65h42l4 1v-22l-113 1-1 33h-1l-1-33h-112l-1 26h-1v-26h-112l-2-1v20h2v2h8l13 23 7-11 7-12h17l-2 5-9 15-10 16 7 14 14 21 3 5h-19l-11-20-3-5-2-1-2 6-12 20h-16l1-6 12-18 9-15-5-10-16-24v-2h-2v-3h7v-19h-111l3-2 108-1v-64l-11-8-8-8-8-14-4-17h-47l-1 4-1-87-2-11-5-12-8-10-9-7-10-5-1-4v-99l-111-1v-1z" fill="#FCFCFC"/>
<path transform="translate(0,1572)" d="m0 0h97l1 1v20l-3 1-11-1 5 10 14 23 2 3-1 5-13 21-8 13-1 2h18l1-5 12-21 3 1 13 24h17l-12-19-11-17 1-6 15-23 6-11-2 1h-14l-6 9-8 14-3-1-11-20-2-2v-21l1-1h112 3 113 2 110l4 1 1-1 113 1 1 35h-3l-4-6-8-6-4-1h-16l-9 4-6 7-4 12v29l4 11 5 6 8 4 3 1h14l9-4 8-9 2-6h1l1 9 1 29 114-1h113l1 1v17l-1 4h-788z" fill="#FAFAFA"/>
<path transform="translate(790,997)" d="m0 0h114v113 2h4l111 1 1 6-1 108v114l-10 1h9l1 1v228h-114v-58l1-2 39-1 13-2 11-4 11-7 8-9 7-14 3-12 1-12h-37v12l-3 7-6 4-7 1h-48l-9-3-4-5-2-10v-80l4-8 7-4 10-1h34l14 1 5 3 4 5 1 3 1 11 36 1-3-20-5-13-8-11-11-8-11-5-8-2-10-1-38-1v-100h-115v-114h78v-2h-78z" fill="#FDFDFD"/>
<path transform="translate(329)" d="m0 0h575v75h-105l105 1v113l-1 1h-106l-6 1-1-2v-113l1-2-49 1h44l3 1v113l-2 2-5-1h-56l-51-1v-114l-346-1z" fill="#FCFCFC"/>
<path transform="translate(216,190)" d="m0 0h100l12 1v113 2 112l-2 1h-105l107 1v114h-228l-1-2 1-112 1-2-2-1 1-112h113l1 1 1 60v-59l1-3-1-1v-112z" fill="#FDFDFD"/>
<path transform="translate(1021,883)" d="m0 0h21v54h54v-54h38l1 1v111 2 113l-61 1-1 1 61 1 1 113v2 90l1 8-29 1-18 2-12 5-10 7-8 9-7 14-2 7-1 11-1 129h37v-45l1-8 25-1h23l1 1v113h-115v-275l1-70-1-1v-167l1-62-1-1v-51z" fill="#FDFDFD"/>
<path transform="translate(904)" d="m0 0 2 1v190l-1 114h33l24 1v1h-57l1 123-1 70-2 27v123l-64 1 64 1 1 34-10 8-17 12-18 13-20 14-12 9h-1l-1-15 1-17h-36l-2-1v-48l-1-9h-110l-1-2h112v-112l-18-1 4-2h15l-1-6v-108h-26v-1h27v-55h1l1-12-2-106-1-2v-87l1-82h-91v-1l37-1h56v115l1 1 7-1h104l1-113h-105l-6-1v-1h104l7 1z" fill="#FBFBFB"/>
<path transform="translate(1136)" d="m0 0h346v71l2 2-26 7-31 11 27-4h26l14 3 11 6 5 4 6 9 3 10v19l-5 21-8 20-14 29-15 23-7 11-12 17-12 16-10 13-8 10-11 14-9 11-7 8-9 11-10 10-7 8-12 14-9 9-1 2h-2l-2 4-27 27-7 8-16 15-15 15-8 7-8 8-8 7-15 14-20 18-8 7-7 7-11 9-14 12-13 11-2-1 11-10 8-7 20-18 8-7 17-16 10-9 17-16 8-7 9-9h2l1-3 6-5 5-6h2l2-4 12-12h2l2-4h2l2-4 8-8 7-8 29-31 12-14 9-11 12-14 11-14 9-11 12-17 13-18 11-17 12-20 12-23 9-22 5-19 1-6v-20l-4-12-6-8-8-6-9-4-16-3h-18l-18 2-29 6-19 6-29 11-21 9-21 11-23 13-24 13-16 10-27 16-20 13-32 21-9 6h-3v-55-2z" fill="#F9F9F9"/>
<path transform="translate(670,967)" d="m0 0h3v29l-27 1h27l1 1v31l-1 83 1 1v110l1-112-1-4v-32l1-78h113l1 1v112 2 114h-230v-112-3-90l35-15 19-9 19-10 15-8 16-8z" fill="#FDFDFD"/>
<path transform="translate(1251,882)" d="m0 0h114l1 1v112 2 110l1-112v-113h114v113l-53 1 53 1v113h-230z" fill="#FDFDFD"/>
<path transform="translate(100,1342)" d="m0 0h114v98l-1 16h-59l60 1v79l1-80v-114h113v229h-229v-157z" fill="#FDFDFD"/>
<path transform="translate(445,420)" d="m0 0 115 1-1 4-1 109v2 114 2 79l-10 11-7 8-9 9-6 7h-64l-18-1v-47l1-66 103-1-85-1-19-1v-98l-1 84-1 14h-113l1-114 114 1v-2-23z" fill="#FDFDFD"/>
<path transform="translate(1367,162)" d="m0 0 11 1 9 3 7 8 2 6v13l-5 15-10 21-10 17-7 10-10 14-12 16-8 10-14 17-9 10-12 14-9 10-7 8-13 13-7 8-35 35-2 1h-33v10h-52v55h-1l-1-74v-29l-4-1-1-2v-65l-110 1-7 2-1-2h2v-22l5-2h31v-39h-35l1-52 1-1h113l1 58-11 8-9 6 6 9 3 4 4-1 10-7 26-16 20-12 22-13 32-17 10-6 23-11 21-10 35-13 24-6 6-1h9z" fill="#FAFAFA"/>
<path transform="translate(1829,1112)" d="m0 0h201l18 1v342h-106v-229h-109l-5-1v-50z" fill="#FDFDFD"/>
<path transform="translate(675,537)" d="m0 0h27l6 1-1 62h61v-63h21v58l-1 55-90 1h90l1 10-1 49h-25v61h18l-3 3-18 11-20 13-28 17-29 17-16 8-24 13-16 8-23 11-28 10-23 7-19 3h-13l-10-3-6-5-4-9v-11l4-15 7-16 14-24 14-20 13-18 9-11 14-17 9-10 7-8 13-15 14-15 7-7 7-8 21-21 1-2h2l2-4 5-5 15-14-1-4-4-4z" fill="#FCFCFC"/>
<path transform="translate(789,1325)" d="m0 0 9 1 1 16h6v-1h53l4 2 10-8 13-6 9-2 9-1h40l14 2 11 4 10 6 7 6 7 10 5 13 2 11v9h-36l-1-1-1-11-3-6-3-3-3-1-14-1h-40l-8 3-3 1-2 5-1 3v80l2 10 5 5 7 2h48l9-2 5-5 2-16h37v12l-4 15-6 11-9 10-13 8-12 4-10 1-41 1-2-1-14-2-11-4-10-6-9-9-8-14-3-12v-6h-57v15h7l1 1v37h-99l-13-2-13-5-9-7-7-7-7-12-4-17v-11h36l2 1v6l13-1h92v-91l-107-1v36h98v37h-134v-111z" fill="#F9F9F9"/>
<path transform="translate(1367,536)" d="m0 0h114v229l-83 1 83 1v113h-114z" fill="#FDFDFD"/>
<path transform="translate(100,535)" d="m0 0h114v114l-5 1h-103l108 1v228l-1 1h-113v-114h51l-51-1-1-2 1-113-1-3z" fill="#FDFDFD"/>
<path transform="translate(1599,881)" d="m0 0 112 1 1 4-1 108h2v-113l113 1 1 4-1 109h-343v-113h113v112h2v-112z" fill="#FEFEFE"/>
<path transform="translate(1828,1342)" d="m0 0h109l4 1v209l-1 17h2l-1-4 1-108h106v114h-220l-1-2v-90z" fill="#FDFDFD"/>
<path transform="translate(1252,1112)" d="m0 0h114v108l-1 3h2v-111h114v114l-111 1-3 2-1-3v2 102l-7-1-12-2-98-1 1-27 1-73v-113z" fill="#FDFDFD"/>
<path transform="translate(1943,651)" d="m0 0 105 1v343l-18 1h-72l-16-1v-343z" fill="#FDFDFD"/>
<path transform="translate(1942,76)" d="m0 0h106v343h-105l-1-115z" fill="#FDFDFD"/>
<path transform="translate(329,997)" d="m0 0h46v29l4 10 6 7 10 7 9 4 10 2 22 1h7v53 2 114h-223l-5-1v-50l1-63h113z" fill="#FDFDFD"/>
<path transform="translate(0,305)" d="m0 0h98l1 2v43l-1 69-10 1h10l1 4v42l-1 68-6 1h6l1 4v36l-1 75h-98z" fill="#FDFDFD"/>
<path transform="translate(1248,766)" d="m0 0 2 1v228 2 113h-114v-228h54v-2h-54l-1-40h83v-73z" fill="#FCFCFC"/>
<path transform="translate(1598,1457)" d="m0 0h113v111l1-109 1-2h113l1 5-1 109h-344v-64l8 1 13 2 99 1-1-4v-14l1-2v-17l-5-1v-15z" fill="#FDFDFD"/>
<path transform="translate(1828,1572)" d="m0 0h112l1 21-12 1-10 5-6 7-3 7-2 16 1 18 3 9 9 10 8 3h15l8-4 7-8 2-5 1-11h-10l-4 10-5 5-2 1h-10l-5-3-4-8-1-15 1-12 4-9 5-3h11l6 5 2 6h12l-2-10-4-6-6-5-8-4v-21h106v137h-336l1-22 2-1h112v-15h-25v-1h26v-13h-32l-2-3v-14l23-1v-9l1-3-24-1v-19h34z" fill="#F9F9F9"/>
<path transform="translate(1021,1572)" d="m0 0 113 1 1 12 1-13 113 1 1 39v74l-109 1h109v22h-229v-35h-2v-3h-7v-1l13-1 10-5 6-9 2-8v-6l-12-1-1 9-5 7-5 2h-6l-7-4-4-9v-25l3-9 5-4 7-1 5 1 5 3 2 9h14l-4-12-4-6-5-4-5-2-6-1v-21z" fill="#FAFAFA"/>
<path transform="translate(1713)" d="m0 0h228v74l-115 1v113h-113v-113l-1-2z" fill="#FDFDFD"/>
<path transform="translate(100)" d="m0 0h228v74 2 33l-1 79h-112v-113l-115-1z" fill="#FCFCFC"/>
<path transform="translate(644,1457)" d="m0 0 2 1 5 20 7 12 9 9 10 6 12 4 10 1 99 1-1-37-7-1v-15h57l4 18 6 11 9 10 9 6 9 4 8 2 10 1 2 3v58h-114l-1-10v10h-114l-1-62v32l-1 30h-114v-63l15-8 10-9 6-8 5-12 2-12 4-1z" fill="#FDFDFD"/>
<path transform="translate(1022,1226)" d="m0 0 112 1 1 1v90l1 8-29 1-18 2-12 5-10 7-8 9-7 14-2 7-1 11-1 129h37v-45l1-8 25-1h23l1 1v113h-115v-275l1-69z" fill="#FCFCFC"/>
<path transform="translate(675,190)" d="m0 0 113 1 1 54 1 2 1 50v56h33v1h-33v24l-2 4-1 37h-113z" fill="#FDFDFD"/>
<path transform="translate(445,75)" d="m0 0h112l2 2v6l1 1v-9h113l1 1v112l-1 1h-113l-1-1v-102l-1 103h-113l-1-1v-53z" fill="#FDFDFD"/>
<path transform="translate(100,1112)" d="m0 0h114v113l-92 1 91 1v113h-114v-49l1-64 1-2-2-1z" fill="#FDFDFD"/>
<path transform="translate(1598,997)" d="m0 0h113v112h2v-112h113v113h-229z" fill="#FEFEFE"/>
<path transform="translate(1136)" d="m0 0h114v74 2 101l-50 30-20 13-32 21-9 6h-3v-55-2z" fill="#FDFDFD"/>
<path transform="translate(675,1227)" d="m0 0h113 2 113l1 1v98l-1 1-14 2-11 4-10 6-7 5-3-2h-50v1h-9l-1-1v-16l-123-1z" fill="#FDFDFD"/>
<path transform="translate(0,1342)" d="m0 0h99v60l-1 53-72 1 72 1v114h-98z" fill="#FDFDFD"/>
<path transform="translate(1017,1342)" d="m0 0 2 1v228h-114v-58l1-2 39-1 13-2 11-4 11-7 8-9 7-14 3-12 1-12h-37v12l-3 7-6 4-7 1h-48l-9-3-4-5-2-10v-80l4-8 7-4 10-1h34l14 1 5 3 4 5 1 3 1 11 36 1-3-20-5-13-5-7v-4z" fill="#FCFCFC"/>
<path transform="translate(1021)" d="m0 0h114v74 2 113l-1 1h-114v-41l1-74-1-5z" fill="#FDFDFD"/>
<path transform="translate(790)" d="m0 0h114v75h-105l105 1v113l-1 1h-106l-6 1-1-2z" fill="#FDFDFD"/>
<path transform="translate(906)" d="m0 0h113l1 1v27l-1 47h-109l109 1 1 4-1 109h-114v-188z" fill="#FDFDFD"/>
<path transform="translate(330,766)" d="m0 0h25l88 1 1 96 1 3-11 16-10 15-12 19-10 17-9 17-9 21-6 17-2 8h-47l-1-2 1-114v-112z" fill="#FDFDFD"/>
<path transform="translate(554,1023)" d="m0 0h4v203h-113l-1-1v-42l1-72-1-1v-24l1-28 3-2 25-5 36-10 30-11z" fill="#FDFDFD"/>
<path transform="translate(675,537)" d="m0 0h27l6 1-1 62h61v-63h21v58l-1 55-90 1h90l1 10-1 49h-25v55l-1 1h-86l-1-1v-29h16v-39l-16-1-1-27v-19l-1-2v-8l6-6-1-4-4-4z" fill="#FCFCFC"/>
<path transform="translate(906,1572)" d="m0 0 113 1 1 21 9 1 6 4 5 6 4 11v3h-14l-3-9-7-4-1 3-1-2-9 2-3 4-2 7v25l4 9 6 3h7l5-3 4-8 1-6h12l1 1-1 11-5 10-8 6-5 2-6 1v3h2v35h-117v-22l-24 1h-55l-33-1v-1h112v-16h-20l-9-2-6-4-3-7-1-64 39-1 1-19z" fill="#F9F9F9"/>
<path transform="translate(1375,420)" d="m0 0 1 2 35-1h69l1 1v112l-1 1h-113l-2-3v2l-3 1-103 1 4-8 8-7 17-16 29-29 12-11 27-27 5-6 11-9z" fill="#FDFDFD"/>
<path transform="translate(0)" d="m0 0h98v188l-3 1h-95z" fill="#FDFDFD"/>
<path transform="translate(1367,162)" d="m0 0 11 1 9 3 7 8 2 6v13l-5 15-10 21-10 17-7 10-10 14-12 16-8 10-14 17-9 10-12 14-9 10-7 8-13 13-7 8-9 9h-3v-77-3-33h-29v-1h32l-1-32-1-1-1-11v-24l32-16 27-11 24-8 23-5h9z" fill="#FDFDFD"/>
<path transform="translate(443,549)" d="m0 0 2 2v95l-1 3 110 1v1l-10 1h-99v66l-1 47h80l1 2-9 11-13 15-9 11-12 14-10 13-13 16-11 15-3 3-2-1v-97h-88l-24-1-2-1v-113l1-3h112z" fill="#FDFDFD"/>
<path transform="translate(445,1326)" d="m0 0h99l12 2 11 4 11 7 8 8 7 11 4 13 1 16v72l-3 15-7 14-11 11-14 8-4 2-16 2h-98v-62l37 1v23h63l8-2 5-5 1-2 1-13v-63l-1-15-4-6-4-2-9-1-60-1v74l-37 1z" fill="#010101"/>
<path transform="translate(1107,1326)" d="m0 0h38l17 3 12 5 9 7 8 9 7 14 2 8 1 28v111h-37l-1-73-65-1v-37h66l-1-23-2-7-4-4-9-2h-44l-9 1-6 4-3 6-1 136h-37v-129l2-15 5-12 7-10 7-7 14-8 12-3z" fill="#010101"/>
<path transform="translate(1249,1326)" d="m0 0h98l12 2 14 5 11 8 8 9 6 12 2 6 1 8 1 82-4 18-7 13-9 9-11 7-11 4-13 2h-98l-1-44v-17l3-1 35 1v23h62l9-2 5-5 2-10v-70l-1-13-4-6-4-2-9-1h-60l-1 73-36 1z" fill="#010101"/>
<path transform="translate(1404,1458)" d="m0 0h45l2 5 3 13 6 11 9 10 12 9v65l-109 1-5 1-1-60-1 58h-114l-1-16v-44l97-1 13-2 11-4 11-7 8-8 8-16 2-10h2v-4z" fill="#FDFDFD"/>
<path transform="translate(1366,1512)" d="m0 0h1v82h19v10l-1 3-20 1h-11l-1 1-1 16 26 1v13l-1 1h-10v69h-115l-1-7v-129l1-2h113v-58z" fill="#FAFAFA"/>
<path transform="translate(1367,1573)" d="m0 0h113v19h-7v3h2l9 14 12 19 1 3-12 20-7 10-4 6-1 4h10l-2 4-1 11-59 1h59l1 1v13l-1 8h-113l-1-24v-45l3-1h8l1-13h-26l-1-1 1-16 2-2h31l1-13h-19z" fill="#FAFAFA"/>
<path transform="translate(560,536)" d="m0 0h113l1 1v42l-1 44-6-1-10 9-13 13h-2l-1 3-8 7-41 41-7 8-13 13-7 8-4 4h-2v-76l65-1-65-1v-106z" fill="#FDFDFD"/>
<path transform="translate(1711,1340)" d="m0 0 3 2-2 114 60-1h32l22 1v-28l1-86h-8v-1h10l-1 145v84l220 1v1h-106l1 21 10 5 7 8 3 9-1 4h-12l-4-8-4-3h-11l-5 3-3 8-1 18 2 12 3 5 4 2h10l5-3 4-8 2-5h10l1 5-2 10-4 6-8 7-5 2h-15l-9-4-7-7-4-8-2-14 1-19 3-10 4-6 7-6 7-3 11-1v-20h-112v35h-34v19h17l7 1-1 12-8 1h-15l1 14 1 2 32 1v13h-34l-8-3-5-6-1-3v-65h42l4 1v-22l-113 1-1 33h-1l-1-33h-112l-1 26h-1v-26h-112l-2-1v20h2v2h8l13 23 7-11 7-12h17l-2 5-9 15-10 16 7 14 14 21 3 5h-19l-11-20-3-5-2-1-2 6-12 20h-16l1-6 12-18 9-15-5-10-16-24v-2h-2v-3h7v-19h-111l3-2 108-1v-64l-11-8-8-8-8-14-3-13-1-13h37l3 17 6 5 4 1 102 1 1 1v36h-99l-13-2-8-2v64h114v-54h1v54l115-1 114 1v-114h-113l-1 112-2-1 1-111h-106v-1h106v-113l-98-1v-1z" fill="#ACACAC"/>
<path transform="translate(903,1326)" d="m0 0h40l14 2 11 4 10 6 7 6 7 10 5 13 2 11v9h-36l-1-1-1-11-3-6-3-3-3-1-14-1h-40l-8 3-3 1-2 5-1 3v80l2 10 5 5 7 2h48l9-2 5-5 2-16h37v12l-4 15-6 11-9 10-13 8-12 4-10 1-41 1-2-1-14-2-11-4-10-6-9-9-8-14-4-18v-70l1-16 4-13 6-10 8-9 11-7 9-4 9-2z" fill="#010101"/>
<path transform="translate(1136,1572)" d="m0 0 113 1 1 39v74l-109 1-4 1-1-2v-16l-7-2-6-5-3-8v-61l16-1z" fill="#FAFAFA"/>
<path transform="translate(670,967)" d="m0 0h3v29l-27 1h27l1 1v31l-1 84h-113l-1-2v-90l35-15 19-9 19-10 15-8 16-8z" fill="#FCFCFC"/>
<path transform="translate(330,75)" d="m0 0h112l2 2-1 114h-113v111h-1v-226z" fill="#FDFDFD"/>
<path transform="translate(675,997)" d="m0 0h113l1 1v112 2 92h-1v-91h-112l-1 2-1-8v-32z" fill="#FCFCFC"/>
<path transform="translate(790,997)" d="m0 0h114v113l-9 3h-102v-1h75v-2h-78z" fill="#FDFDFD"/>
<path transform="translate(675,75)" d="m0 0h111l3 1v113l-2 2-5-1h-56l-51-1z" fill="#FDFDFD"/>
<path transform="translate(1713,1342)" d="m0 0h114v86l-1 28h-114v-51z" fill="#FDFDFD"/>
<path transform="translate(1136,1112)" d="m0 0h114v114l-113 1-1-1z" fill="#FDFDFD"/>
<path transform="translate(1136,997)" d="m0 0h114v113h-114z" fill="#FDFDFD"/>
<path transform="translate(906,997)" d="m0 0h113v113h-114v-112z" fill="#FDFDFD"/>
<path transform="translate(330,305)" d="m0 0h109l4 1v112l-2 1h-110l-1-1z" fill="#FEFEFE"/>
<path transform="translate(124,190)" d="m0 0h83l7 1v35l-1 78h-113l-1-2 1-111z" fill="#FEFEFE"/>
<path transform="translate(1763,190)" d="m0 0h57l7 1-1 113h-113l-1-1 1-112z" fill="#FEFEFE"/>
<path transform="translate(1022,766)" d="m0 0 110 1 1 65 1 24v24l-1 1-39 1h-39l-34-1-1-1v-45l1-68z" fill="#FDFDFD"/>
<path transform="translate(216,651)" d="m0 0h112v114h-112l-1-1v-105z" fill="#FDFDFD"/>
<path transform="translate(216,766)" d="m0 0h112v113l-1 1h-112v-40z" fill="#FDFDFD"/>
<path transform="translate(1829,651)" d="m0 0h112v114h-112l-1-1v-107z" fill="#FDFDFD"/>
<path transform="translate(330,420)" d="m0 0 113 1v113h-113z" fill="#FEFEFE"/>
<path transform="translate(1713,881)" d="m0 0 113 1 1 4-1 109h-114z" fill="#FDFDFD"/>
<path transform="translate(1483,997)" d="m0 0h113v113h-113z" fill="#FEFEFE"/>
<path transform="translate(100,997)" d="m0 0h113v113h-113z" fill="#FEFEFE"/>
<path transform="translate(100,882)" d="m0 0h113v113h-113z" fill="#FEFEFE"/>
<path transform="translate(330,535)" d="m0 0 113 1v99l-1 14h-113z" fill="#FEFEFE"/>
<path transform="translate(216,882)" d="m0 0h112v67l-1 47h-98l-14-1v-42z" fill="#FDFDFD"/>
<path transform="translate(1829,535)" d="m0 0 112 1v113l-39 1-74-1v-111z" fill="#FDFDFD"/>
<path transform="translate(216,1112)" d="m0 0h112l1 113-1 1h-108l-5-1v-50z" fill="#FDFDFD"/>
<path transform="translate(216,535)" d="m0 0 112 1v113h-113v-111z" fill="#FEFEFE"/>
<path transform="translate(1829,766)" d="m0 0 112 1v113h-113v-39z" fill="#FDFDFD"/>
<path transform="translate(216,1227)" d="m0 0h112v113h-113v-53z" fill="#FDFDFD"/>
<path transform="translate(1829,1227)" d="m0 0h112v113h-113v-52z" fill="#FDFDFD"/>
<path transform="translate(161,75)" d="m0 0h52v113h-113v-112z" fill="#FDFDFD"/>
<path transform="translate(1828,75)" d="m0 0h112l1 1v28l-1 84h-112z" fill="#FDFDFD"/>
<path transform="translate(1829,882)" d="m0 0h112v27l-1 86-25 1h-61l-26-1v-43z" fill="#FEFEFE"/>
<path transform="translate(672,641)" d="m0 0 2 2v6l1 3v44h16l1 2-1 38h-16l1 29h87v6h18l-3 3-18 11-20 13-28 17-29 17-10 4v-58l1-11-117 1 2-5 9-10 8-10 9-10 7-8 13-15 14-15 7-7 7-8 21-21 1-2h2l2-4 5-5z" fill="#FBFBFB"/>
<path transform="translate(1829,997)" d="m0 0h112v22l-1 91h-112v-48z" fill="#FDFDFD"/>
<path transform="translate(216,997)" d="m0 0h111l1 1-1 112h-112v-46z" fill="#FDFDFD"/>
<path transform="translate(216,76)" d="m0 0h112v33l-1 79h-112v-66z" fill="#FEFEFE"/>
<path transform="translate(1029,373)" d="m0 0h110l1 4v108l-1 1h-111v-112z" fill="#010101"/>
<path transform="translate(1942,1572)" d="m0 0h106v114l-1 1-105-1v-16l10-5 7-8 2-5 1-11h-10l-4 10-5 5-2 1h-10l-5-3-4-8-1-15 1-12 4-9 5-3h11l6 5 2 6h12l-2-10-4-6-6-5-8-4z" fill="#FAFAFA"/>
<path transform="translate(1942,997)" d="m0 0h106v113h-106z" fill="#FDFDFD"/>
<path transform="translate(1480,1325)" d="m0 0 121 1 1 1v23l-1 13h-115v37h97l1 3-1 34h-133l-1-8v-103z" fill="#010101"/>
<path transform="translate(1944,535)" d="m0 0 104 1v114h-92l-13-1v-113z" fill="#FEFEFE"/>
<path transform="translate(1943,420)" d="m0 0 105 1v114h-48l-57-1z" fill="#FEFEFE"/>
<path transform="translate(789,1325)" d="m0 0 9 1 1 18-1 19-115 1-1 36h98v37h-134v-111z" fill="#010101"/>
<path transform="translate(1943,305)" d="m0 0h32l73 1v113h-105z" fill="#FEFEFE"/>
<path transform="translate(1943,1342)" d="m0 0 105 1v112h-106v-112z" fill="#FDFDFD"/>
<path transform="translate(1943,76)" d="m0 0h105v113h-104l-1-1z" fill="#FEFEFE"/>
<path transform="translate(1252,1227)" d="m0 0h113l1 1v102l-7-1-12-2-98-1 1-27 1-71z" fill="#FCFCFC"/>
<path transform="translate(1021,191)" d="m0 0h113l1 58-11 8-9 6 6 9 3 4 4-1 2-2h4l1 31-1 1h-115l-1-20 5-2h31v-39h-35l1-52z" fill="#FCFCFC"/>
<path transform="translate(1483,1227)" d="m0 0h113v90h1v9h-116l1-98z" fill="#FCFCFC"/>
<path transform="translate(445,1227)" d="m0 0h113v32l-1 69-13-1-100-1v-91z" fill="#FDFDFD"/>
<path transform="translate(0,651)" d="m0 0h98l1 4-1 110h-98z" fill="#FEFEFE"/>
<path transform="translate(2,766)" d="m0 0h96v114h-98v-113z" fill="#FEFEFE"/>
<path transform="translate(0,1227)" d="m0 0h99v61l-1 52h-98z" fill="#FDFDFD"/>
<path transform="translate(791,248)" d="m0 0h106v105h-106z" fill="#010101"/>
<path transform="translate(65,190)" d="m0 0h26l7 1v113h-98v-113z" fill="#FEFEFE"/>
<path transform="translate(0,1112)" d="m0 0h98v113l-98 1z" fill="#FEFEFE"/>
<path transform="translate(0,882)" d="m0 0h98v113l-97 1-1-1z" fill="#FEFEFE"/>
<path transform="translate(0,997)" d="m0 0h98v113h-98z" fill="#FEFEFE"/>
<path transform="translate(1111,1457)" d="m0 0h23l1 1v113h-115v-111l1-2h27v53h37v-45l1-8z" fill="#FDFDFD"/>
<path transform="translate(790,1572)" d="m0 0 114 1v20h-39l1 3 1 61 3 7 8 4 6 1 20 1v16l-38 1h38v22h-114v-39h40v-13h-32l-2-1v-16l22-2 1-12h-23l-1-3v-15l1-1 33-1 1-12h-49v-2l7-1v-6h2z" fill="#FBFBFB"/>
<path transform="translate(1713,1572)" d="m0 0h113l1 20-1 2h-34l-12-1 1 65 3 6 6 4 12 2 25 1v15l-114 1v-16l-29-1-8-3-6-7-1-2-1-13v-51l1-1 14 1 1 61 1 1 29 1-1-16-1-41v-27z" fill="#FAFAFA"/>
<path transform="translate(0,1572)" d="m0 0h97l1 1v20l-3 1-11-1 5 10 14 23 2 3-1 5-13 21-10 16h17v15l-58 1h-40z" fill="#FBFBFB"/>
<path transform="translate(1021,883)" d="m0 0h21v54h54v-54h38l1 1v111l-1 1-112 1-2-2v-51z" fill="#FCFCFC"/>
<path transform="translate(329,997)" d="m0 0h46v29l4 10 6 7 10 7 9 4 10 2 22 1h7v53l-1 1-112 1-1-1z" fill="#FCFCFC"/>
<path transform="translate(675,537)" d="m0 0h27l6 1-1 62h61v-63h21v58l-1 55-90 1h-21l-2 1-2-4v-8l6-6-1-4-4-4z" fill="#FDFDFD"/>
<path transform="translate(1597)" d="m0 0h116v73l-1 1-44 1h-71z" fill="#FCFCFC"/>
<path transform="translate(674)" d="m0 0h116v74l-94 2-1-1-22-1z" fill="#FCFCFC"/>
<path transform="translate(329)" d="m0 0h116v74h-116z" fill="#FCFCFC"/>
<path transform="translate(1252)" d="m0 0h113v75h-113l-1-1v-73z" fill="#FDFDFD"/>
<path transform="translate(560)" d="m0 0h114v68l-1 6h-113z" fill="#FDFDFD"/>
<path transform="translate(1713)" d="m0 0h113v74h-114z" fill="#FEFEFE"/>
<path transform="translate(100)" d="m0 0h113v74h-113z" fill="#FEFEFE"/>
<path transform="translate(332,880)" d="m0 0h100l-1 7-7 10-12 19-10 17-9 17-9 21-6 17-2 8h-47l-1-2 1-111 3-1z" fill="#FBFBFB"/>
<path transform="translate(1479,305)" d="m0 0h99v1h-97l1 14 1 216v459h115v114l228 1 1-108h1l1 109v64l-1 50h114l1 2v116l-1 112h106v2h-106v112h-2l1-112h-110v-1h110v-113h-106l-6-1-56 1h-58l-3-3h114v-113h-107v-1l23-1 84-1v-107l1-5-97 1-17-1v112l1 3-1 72-1 40h-1v-48l1-64h-110v-1l109-1v-113l-77 1h-22l-14-1v116l-1 89-2 1 1-91h-110v-1l109-2 1-112-75 1h-23l-15-1v116l-1 87-2 1v-42l1-47h-111v-1h111v-114l-57 1h-47l-10-1v111h-2v-30l1-81-36 1h-72l-6-1v-2h229v-113h-110v-1l57-1h53v-113h-113v-2h113v-113h-83l-29-1v-1h112l-1-115 1-114h-114l1 116h-5l2-3v-112l-105-1v-1l105-1v-2l2 1v1h113v-112h-94l-5-1v-1h99zm4 692v113h113v-113zm346 230-1 61v52h113v-113z" fill="#C8C8C8"/>
<path transform="translate(1019,677)" d="m0 0 2 1-13 11-13 10-21 16-13 10-19 14-15 11-17 12-18 13-23 16-27 18-26 17-19 12-16 10-25 15-22 13-25 14-33 17-38 19-32 14-26 10-15 5-25 7-25 5-7 1h-18l-16-4-10-6-7-7-4-9-1-14 3-17 8-21 11-23 15-25 10-15 12-16 7-9 1 2-9 15-10 18-9 19-6 16-3 14-1 7v13l3 10 6 9 7 6 8 4 12 3 17 1 20-2 26-5 24-7 25-9 32-13 28-13 36-18 22-12 23-13 19-11 27-16 24-15 19-12 37-25 34-24 38-28 21-16 12-9z" fill="#F7F7F7"/>
<path transform="translate(1252,76)" d="m0 0h113v46l-12 5-31 12-23 11-23 13-22 12h-3v-98z" fill="#FCFCFC"/>
<path transform="translate(1248,204)" d="m0 0h3l1 23 1 11 1 1v32l-3 1-1 33h-114l-1-34 8-6 24-15 46-27 27-14z" fill="#FCFCFC"/>
<path transform="translate(1942)" d="m0 0h106v74h-106z" fill="#FDFDFD"/>
<path transform="translate(554,1023)" d="m0 0h4v88l-112 1-2-2v-24l1-28 3-2 25-5 36-10 30-11z" fill="#FCFCFC"/>
<path transform="translate(786,898)" d="m0 0 3 1v65l-1 32h-113l-1-29 1-3 29-16 17-10 21-12 17-11 19-12z" fill="#FCFCFC"/>
<path transform="translate(0)" d="m0 0h98v74h-98z" fill="#FEFEFE"/>
<path transform="translate(817,511)" d="m0 0h85v84h-85z" fill="#010101"/>
<path transform="translate(1134,755)" d="m0 0 83 1v84l-83 1-1-1v-84z" fill="#010101"/>
<path transform="translate(553,1509)" d="m0 0h5v62h-114v-19l1-41 98-1z" fill="#FDFDFD"/>
<path transform="translate(1250,658)" d="m0 0h1l1 110-1 111h114v-112l-18-1v-1l20-1 1 2v231l-1 111-2-1 1-110h-111v-1l110-1v-112l-114-1 1 135v211l-1 73-1 22h-1v-49l1-47h-112v-1h112v-114l-21 1h-89l-4-1 1 116-1 95h-1l-1-8v-87l-110-1v-1h111l-1-5v-108h-61l-48-1v-1l49-1h61l-1-4 1-109h-112v-1l111-1v-111l-38-1v54h-54v-54h-21v-1l15-1h58l39-1v-40l2 1 1 3v36h54v2h-54l1 115-1 113h114v-113h-112v-1l111-1v-228h-27l4-2h24z" fill="#D5D5D5"/>
<path transform="translate(1020,455)" d="m0 0h1v80h23v1h-23v57l2 1-9 8h-1v-48h-84v84l39-1-4 4-13 10-18 14-12 9-14 10-3 1-1-1v-32h-65l1-2h64l-1-67v-37l1-10 3-2 113 1v-52z" fill="#F8F8F8"/>
<path transform="translate(646,1450)" d="m0 0h36l1 4 2 12 5 5 5 2 103 1v37h-99l-13-2-13-5-9-7-7-7-7-12-4-17z" fill="#010101"/>
<path transform="translate(1449,1450)" d="m0 0h37l3 17 6 5 4 1 102 1 1 1v36h-99l-13-2-10-3-11-8-8-8-8-14-3-13z" fill="#010101"/>
<path transform="translate(328,540)" d="m0 0h1l1 112-1 113 2 1-1 2v115l-1 112 46 1v1h-46l1 115-1 112h-1v-112l-32 1h-71l-9-1v63l-1 50 15 1v1h-14v60l-1 53h113v1l-51 1v1h-54l-8-1 1 115-1 79-1 33h-1v-84l1-28h-110v-1l50-1h38l21 1 1-114-63 1h-29l-26-1h-96v-2h98v-52l1-61h-99v-1l7-1h91v-113l2 2v110l1 3-2 113h114v-113h-97v-1l6-1 91-1v-107l1-5-2-1 1-114h-95v-1l43-1h52l-1-115 1-2v-104l2-8h1v74l-1 40 112-1 1-113h-107v-1h107l-1-115zm-112 342-1 71v42l14 1h98l1-47v-67zm0 115-1 67v46h112l1-112-1-1z" fill="#CECECE"/>
<path transform="translate(443,549)" d="m0 0 2 2v95l-1 3 110 1v1l-10 1h-99v66l-1 47h80l1 2-9 11-13 15-9 11-12 14-10 13-13 16-11 15-3 3-2-1v-97h-88l-23-1v-1h111l-1-3 1-111h-81v-1h81z" fill="#FBFBFB"/>
<path transform="translate(337,1687)" d="m0 0h221v22h-229v-21z" fill="#FBFBFB"/>
<path transform="translate(560,1687)" d="m0 0h228l1 1v17l-1 4h-229v-15z" fill="#FCFCFC"/>
<path transform="translate(832,880)" d="m0 0 187 2v1h-111l-2-1v113l112 1v1l-112 1-1 112h114v3h-113l-2 2v-3h-7v-1l6-1 1-113h-114v113h78v2h-78v114h114v-109h1l1 111-1 98h-1l-1-98-113-1v97h-1l-1-96-113-1v95l-2-3v-91h-113l-1 97h-1v-98h-113l-1 95h-1v-95h-99v-1h99v-114h-97v-1l96-1 1-52h3l-1 28v24l1 2-1 71v42l113 1v-114h-111v-1h111l-1-89h2v89l2 1-1 2-1 112 116-1 114 1-1-3 1-111h-112v-1l111-1v-112h-94l-19-1v112l1 3-1 111-2 1v-111l-110-1v-1h110v-113h-27l-24-1v-1h51l-1-30 3-1v31h113v-97l-1-2 3-1v100l113-1 1-112h-53l-24-1v-1z" fill="#AFAFAF"/>
<path transform="translate(1104,1363)" d="m0 0h44l9 2 6 7 1 5v23h-66v37h64v1l-27 1v17l-46 1-2 1-1 8h-1v-91l4-7 6-4z" fill="#F8F8F8"/>
<path transform="translate(726,328)" d="m0 0h23l11 1v63l-1 1h-63l-1-1v-63z" fill="#010101"/>
<path transform="translate(1273,753)" d="m0 0 63 1v64h-64v-64z" fill="#010101"/>
<path transform="translate(328)" d="m0 0h1v74h366l1 2-21-1v114h107l5 1v1h-98l-14-1v115h110v1h-110v186l-2 3v-73l-225-1-3-1v91l-1 23 2 1-2 3-2-4v-115l1-85h1l1 5v80l3-1 110 1v-102h1l1 7v58l-1 37h114v-32l1-81h-116l-225-1v-1h110v-102h1l1 24v77l113 1v-106h1l1 11v94l94 1 19 1v-114h-230l-89-1v-1h89v-112l-1-1h-112l-1 113 2 1h-2l1 115-4-1h2v-114l-2-1h2l-1-113-100-1v-1h101zm117 75-1 60v53l1 1h113l1-103v102l1 1h113l1-2v-111l-1-1h-113v9l-1-1v-6l-2-2z" fill="#aaa"/>
<path transform="translate(1133,1593)" d="m0 0 24 1 7 3 6 5 5 10 1 5v30l-3 10-8 9-6 3-5 1h-20l-8-4-4-5-2-6v-61z" fill="#010101"/>
<path transform="translate(675,767)" d="m0 0h87l1 4h18l-3 3-18 11-20 13-28 17-29 17-6 3h-2z" fill="#FBFBFB"/>
<path transform="translate(865,1594)" d="m0 0h40l10 7 5 9 2 15v19l-3 12-7 9-7 4-6 1h-15l-9-2-6-4-3-7z" fill="#010101"/>
<path transform="translate(1286,1594)" d="m0 0h19l8 3 8 9 4 13v26l-4 13-7 8-6 3-5 1h-15l-8-3-5-3-6-10-3-14v-16l2-12 4-8 4-5z" fill="#010101"/>
<path transform="translate(708,539)" d="m0 0h59v61h-60v-60z" fill="#010101"/>
<path transform="translate(814,399)" d="m0 0h60v60h-60z" fill="#010101"/>
<path transform="translate(294,1593)" d="m0 0h9l15 2 6 4 6 7 2 7v12l-3 7-2 3h-2v2l-5 4 1 4 13 22v3h-16l-12-22-1-4h-11l-1 26h-14v-66l5-8z" fill="#010101"/>
<path transform="translate(1315,304)" d="m0 0h9l2 2-12 14-11 12-9 11-14 15-10 10-7 8-9 9h-3v-77l1-2 63-1z" fill="#FBFBFB"/>
<path transform="translate(1841,1593)" d="m0 0h10l5 3 12 20 14 23 1 3h2l-1-2v-41l1-5h14v68l-3 7-1 1-9-1-8-10-16-26-6-10-2-1 1 2v15l-1 31h-14v-76z" fill="#010101"/>
<path transform="translate(437,1593)" d="m0 0h12l7 9 13 22 10 16 1 1 1-47 3-1 11 1 1 1v22l-1 47-2 5-2 1h-6l-8-7-13-21-9-14-3-4v-2h-2l1 6v42l-8 1-7-1v-67z" fill="#010101"/>
<path transform="translate(633,650)" d="m0 0 3 1-44 44-7 8-13 13-7 8-4 4h-2v-76l65-1z" fill="#FCFCFC"/>
<path transform="translate(156,1593)" d="m0 0 34 1 8 3 7 8 2 5v17l-3 8-4 5-10 5h-21v25l-13 1-2-2v-75z" fill="#010101"/>
<path transform="translate(964,307)" d="m0 0 53 1 1 2v52h-54z" fill="#010101"/>
<path transform="translate(1595,74)" d="m0 0h119l-1 114h113v-112h1l1 88v24h112v-84h1v87h-112v112l107 1v1h-108l1 5v55l-1 52h-1l-1-111-113-1v71h-1l-1-70-110-1v-1l109-1 1-112h-112v-1l58-1h54v-113h-114l1 115v115l-1 92h-1v-92l-2-1 1-8v-106h-35v-1h35zm168 116-50 1-1 112 1 1h113l1-113-7-1z" fill="#D7D7D7"/>
<path transform="translate(1192,872)" d="m0 0h54l-1 53-8 1-45-1z" fill="#010101"/>
<path transform="translate(1042,884)" d="m0 0h53v53h-53z" fill="#010101"/>
<path transform="translate(713,429)" d="m0 0h51v53h-52v-52z" fill="#010101"/>
<path transform="translate(98)" d="m0 0h2v74h124v1h-9v113h112v-79h1v82h-112v112l92 1v1h-92v61l-1 50h-1l-1-110-213-1v-1h98v-113h-98v-2l47-1h50l1-113h-9v-1h9zm63 75-61 1v112h113v-113zm-37 115-24 1-1 112 1 1h113l1-89v-24l-7-1z" fill="#D5D5D5"/>
<path transform="translate(711,1593)" d="m0 0h15v33h27v-33h14v77h-14v-30h-26l-2 30h-14z" fill="#010101"/>
<path transform="translate(1713,1687)" d="m0 0h113l1 1-1 21h-114z" fill="#FCFCFC"/>
<path transform="translate(1367,162)" d="m0 0 11 1 9 3 7 8 2 6v10l-1 1h-28v45l-1 11h-1v-56l-2 1h-80v-5l27-11 24-8 23-5h9z" fill="#F8F8F8"/>
<path transform="translate(1542,1687)" d="m0 0h53l1 1v16l-1 5h-113v-21z" fill="#FDFDFD"/>
<path transform="translate(1205,1687)" d="m0 0h45v22h-114v-21z" fill="#FDFDFD"/>
<path transform="translate(1300,1687)" d="m0 0h38l27 1v21h-113l-1-7v-14z" fill="#FDFDFD"/>
<path transform="translate(880,1687)" d="m0 0h24v22h-114v-21z" fill="#FDFDFD"/>
<path transform="translate(520,1687)" d="m0 0h38v22h-113v-21z" fill="#FDFDFD"/>
<path transform="translate(988,1687)" d="m0 0h31v22h-114v-21z" fill="#FDFDFD"/>
<path transform="translate(1133,1687)" d="m0 0 2 1v21h-114v-21z" fill="#FDFDFD"/>
<path transform="translate(1597,1688)" d="m0 0h114v21h-114z" fill="#FDFDFD"/>
<path transform="translate(99,1688)" d="m0 0h114v21h-114z" fill="#FDFDFD"/>
<path transform="translate(215,1688)" d="m0 0h113v21h-114v-19z" fill="#FDFDFD"/>
<path transform="translate(1078,1593)" d="m0 0h5l4 5 6 15 19 57h-16l-2-10v-4h-28v7l-2 7h-15l3-10 12-36 8-23 4-6z" fill="#010101"/>
<path transform="translate(1477,1687)" d="m0 0 4 1v13l-1 8h-113v-21z" fill="#FDFDFD"/>
<path transform="translate(1829,1688)" d="m0 0h112v21h-113v-20z" fill="#FDFDFD"/>
<path transform="translate(898,1363)" d="m0 0h6l1 1 1 109h40v1h-48l-9-3-4-5-2-10v-80l4-8 7-4z" fill="#F9F9F9"/>
<path transform="translate(1327,661)" d="m0 0h40l1 1v48l-3 1-46-1v-48z" fill="#010101"/>
<path transform="translate(84,1593)" d="m0 0h15l5 6 9 17h2l12-21 4-2h14l-2 6-10 16-9 14 1 5 11 18 11 17v1h-18l-13-23-3-3-2 6-10 17-1 3h-18l2-6 9-14 11-18-1-5-10-16-9-15z" fill="#010101"/>
<path transform="translate(923,474)" d="m0 0h47l1 1v48h-48l-1-48z" fill="#010101"/>
<path transform="translate(1474,1593)" d="m0 0h10l8 1 13 23 7-11 7-12h17l-2 5-9 15-10 16 7 14 14 21 3 5h-19l-11-20-3-5-2-1-2 6-12 20h-16l1-6 12-18 9-15-5-10-8-12-9-14z" fill="#010101"/>
<path transform="translate(1317,479)" d="m0 0h48v48h-49v-47z" fill="#010101"/>
<path transform="translate(1942,1687)" d="m0 0h87l19 1v21h-106z" fill="#FCFCFC"/>
<path transform="translate(98,1112)" d="m0 0 2 2v110l1 3-2 113h114v-113h-97v-1l6-1 91-1v-93l1-10h1v104l15 1v1h-14v60l-1 53h113v1l-51 1v1h-54l-8-1 1 115-1 79-1 33h-1v-84l1-28h-110v-1l50-1h38l21 1 1-114-63 1h-29l-26-1h-96v-2h98v-52l1-61h-99v-1l7-1h91z" fill="#DEDEDE"/>
<path transform="translate(1178,676)" d="m0 0h48v47l-1 1h-47z" fill="#010101"/>
<path transform="translate(782,1593)" d="m0 0h38l10 1v12l-1 1-33 1v18h23v12l-1 1-22 1v16l34 1v13h-34l-7-1-5-5-3-7v-63z" fill="#010101"/>
<path transform="translate(29,1593)" d="m0 0h47l1 2-1 12h-34v19h18l5 1v12l-6 1h-17l1 15 2 1 31 1v13h-34l-7-2-5-5-2-4-1-15v-50z" fill="#010101"/>
<path transform="translate(1188,1593)" d="m0 0h38l10 1v13h-34v19h18l5 1v12l-6 1h-17l1 15 1 1 32 1v13h-35l-6-2-5-4-2-5-1-10v-55z" fill="#010101"/>
<path transform="translate(218,1593)" d="m0 0 48 1 1 3-1 10h-34v19h16l8 1v9l-1 3-23 1 1 13 1 3 32 1 1 3v9l-1 1h-35l-8-4-5-6-1-13v-53z" fill="#010101"/>
<path transform="translate(377,1593)" d="m0 0h14l34 1v12l-1 1-33 1v18h19l4 1v12l-23 2 1 15 33 1v13h-36l-6-3-5-5-2-6v-62z" fill="#010101"/>
<path transform="translate(1419,1593)" d="m0 0h48l1 13-1 1h-34v19h16l8 1v9l-1 3-9 1h-14l1 13 1 3 33 1-1 13h-33l-9-3-5-6-1-4z" fill="#010101"/>
<path transform="translate(1608,1593)" d="m0 0 48 1v13h-35v19h17l7 1v11l-1 1-23 1 2 16 33 1v13h-35l-8-3-4-4-2-6v-63z" fill="#010101"/>
<path transform="translate(1780,1593)" d="m0 0h48v14h-34v19h17l7 1-1 12-8 1h-15l1 14 1 2 32 1v13h-34l-8-3-5-6-1-3z" fill="#010101"/>
<path transform="translate(934,1593)" d="m0 0 48 1v10l-1 3h-34l1 18 15 1h7l1 1v11l-1 1-9 1h-13v12l1 4h32l1 1v12l-1 1h-34l-7-2-5-6-2-6v-62z" fill="#010101"/>
<path transform="translate(571,1593)" d="m0 0 48 1v12l-1 1h-34v19h23l1 1-1 12-22 1v12l1 4 33 1v13h-36l-7-3-4-5-2-7v-61z" fill="#010101"/>
<path transform="translate(1973,1594)" d="m0 0h50l-1 13h-34v19h17l7 1-1 12-23 1 1 16 33 1 1 1v11l-1 1h-35l-7-3-5-6-1-4z" fill="#010101"/>
<path transform="translate(99,683)" d="m0 0h1v81l112 1v1l-61 1h-34l-17-1v114h112l1 2h-113v113h61v1l-43 1h-18v113h113l-1 2-93 1-19-1-1 2v-2h-99v-2h98v-113h-98l1-2h97v-113h-98v-2h98v-114l-5 1h-93v-2h98v-51z" fill="#D8D8D8"/>
<path transform="translate(1940,909)" d="m0 0h1l1 85 16 1h90v2h-106v113h106v3h-89l-17-1v112h-1v-112l-58 1h-40l-14-1-1-2h112v-91l1-22h-112v65h-1l-1 36h-1v-101h-113v112h-2v-112h-113v-2h342z" fill="#D1D1D1"/>
<path transform="translate(1561,1594)" d="m0 0h16l8 3 7 7 3 5 1 10h-13l-4-8-6-3h-9l-4 2-3 6-1 4v25l3 7 1 3 4 1h10l6-5 2-4 2-7h12v11l-4 8-4 5-6 4-7 2h-13l-9-4-5-5-5-7-2-9v-25l3-11 4-7 7-6z" fill="#010101"/>
<path transform="translate(524,1594)" d="m0 0h16l7 3 8 7 3 5 1 11-13-1-4-8-4-3h-12l-5 5-2 8v24l3 7 2 3 3 1h10l4-2 4-7 2-7h12v10l-4 9-8 8-8 3h-14l-9-4-5-4-5-8-2-7v-29l4-12 7-8z" fill="#010101"/>
<path transform="translate(1927,1594)" d="m0 0h18l8 4 7 8 3 9-1 4h-12l-4-8-4-3h-11l-5 3-3 8-1 18 2 12 3 5 4 2h10l5-3 4-8 2-5h10l1 5-2 10-4 6-8 7-5 2h-15l-9-4-7-7-4-8-2-14 1-19 3-10 4-6 7-6z" fill="#010101"/>
<path transform="translate(1019,1593)" d="m0 0 10 2 6 4 5 6 4 11v3h-14l-3-9-7-4-1 3-1-2-9 2-3 4-2 7v25l4 9 6 3h7l5-3 4-8 1-6h12l1 1-1 11-5 10-8 6-5 2h-16l-10-5-6-7-3-7-1-5v-27l4-13 7-8 9-4z" fill="#010101"/>
<path transform="translate(0,1688)" d="m0 0h98v19l-1 2h-97z" fill="#FDFDFD"/>
<path transform="translate(1826,1131)" d="m0 0h1l1 94h114l1 2v116l-1 112h106v2h-106v112h-2l1-112h-110v-1h110v-113h-106l-6-1-56 1h-58l-3-3h114v-113h-107v-1l23-1 84-1zm3 96-1 61v52h113v-113z" fill="#D0D0D0"/>
<path transform="translate(328,1225)" d="m0 0 2 1-1 114h113l1 2-2 1h-111l-1 113h112v1h-112v114h60v1l-59 1-1 22h-1v-23l-113 1-2 4-1-4h-112l-1 20h-1l-1-20-97-1v-1h98l-1-2v-47l1-65h-79v-1l7-1h72v-53l1-60-3-1h5l-1 73v45l-1 112h229v-114h-110v-1h110l-1-7 1-107h-96v-1h96v-114h-98v-1z" fill="#aaa"/>
<path transform="translate(557,1022)" d="m0 0h2v89l2 1-1 2-1 112 116-1h115l114 1v-109h1l1 111-1 98h-1l-1-98-113-1v97h-1l-1-96-113-1v95l-2-3v-91h-113l-1 97h-1v-98h-113l-1 95h-1v-95h-99v-1h99v-114h-97v-1l96-1 1-52h3l-1 28v24l1 2-1 71v42l113 1v-114h-111v-1h111z" fill="#aaa"/>
<path transform="translate(1364,1593)" d="m0 0 22 1v10l-1 3-20 1h-11l-1 1-1 16 26 1v13l-1 1h-25v30h-15v-67l4-6 3-3z" fill="#010101"/>
<path transform="translate(1133,840)" d="m0 0 2 1 1 3v36h54v2h-54l1 115-1 113h114l-1 2-20 1h-89l-4-1 1 116-1 95h-1l-1-8v-87l-110-1v-1h111l-1-5v-108h-61l-48-1v-1l49-1h61l-1-4 1-109h-112v-1l111-1v-111l-38-1v54h-1v-53h-53l-21-1v-1l15-1h58l39-1z" fill="#aaa"/>
<path transform="translate(328)" d="m0 0h1v74h366l1 2-21-1v114h107l5 1v1h-98l-14-1v86h-1l-1-85h-230l-89-1v-1h89v-112l-1-1h-112l-1 113 2 1h-2l1 115-4-1h2v-114l-2-1h2l-1-113-100-1v-1h101zm117 75-1 60v53l1 1h113l1-103v102l1 1h113l1-2v-111l-1-1h-113v9l-1-1v-6l-2-2z" fill="#aaa"/>
<path transform="translate(1486,765)" d="m0 0h338v1h-111v112h-2v-70l1-42h-114v114h228l1 4-1-2h-111l-2-1v113h-2v-112h-112l-1 112h-2v-112h-113v-2h113v-114h-110z" fill="#D8D8D8"/>
<path transform="translate(722,1457)" d="m0 0h67v16l-2 1h-92l-7-3-4-5v-8z" fill="#FAFAFA"/>
<path transform="translate(648,1593)" d="m0 0h53l1 1v12l-1 1h-19v63h-15v-63h-19z" fill="#010101"/>
<path transform="translate(674,1506)" d="m0 0h1v65l113-1 1-55h1v56h114l-1-60h3v20l-1 40h114v2h-113l-1 19h-1v-19h-112l-2-1v13h-1l-1-11-112-1-3 1-114-1v34h-1v-34h-113l-1 18h-1v-18h-54v-2h54v-51h1v51h114v-62h1v62h114v-62z" fill="#A9A9A9"/>
<path transform="translate(944,903)" d="m0 0h39l1 4-1 36-1 1h-37l-2-1v-39z" fill="#010101"/>
<path transform="translate(793,630)" d="m0 0h41v32l-1 8h-39l-1-14z" fill="#010101"/>
<path transform="translate(1191,324)" d="m0 0h40v40h-40z" fill="#010101"/>
<path transform="translate(526,1607)" d="m0 0h12l6 5 2 7h12l2 5v20l-1-4-12 1-2 8-4 6-4 2h-10l-5-3-3-5-1-4v-24l3-10z" fill="#F8F8F8"/>
<path transform="translate(1564,1607)" d="m0 0h9l6 3 3 4 2 5 12 1v19l-1 1-11 1-2 8-6 7-2 1h-10l-4-2-4-6-1-4v-25l3-8 4-4z" fill="#FAFAFA"/>
<path transform="translate(1600,534)" d="m0 0h340l1 2h-95l-17-1v63l-1 51h113l-2 3h-57l-53-1v114l-3-1v-65l1-48h-110l2-2h108l-1-3v-35l1-76-2 1h-111l-3 1v-2l-2 1h-105z" fill="#ddd"/>
<path transform="translate(653,696)" d="m0 0h38l1 2-1 37h-38z" fill="#010101"/>
<path transform="translate(1941,539)" d="m0 0h1l1 113v230l-1 112h-1v-112h-112v70l-1 43h-2v-230h115l-1-115zm-112 227-1 75v39h113v-113z" fill="#D6D6D6"/>
<path transform="translate(1669,1593)" d="m0 0 14 1 1 61 1 1 29 1v13h-30l-8-3-6-7-1-2-1-13v-51z" fill="#010101"/>
<path transform="translate(1479,305)" d="m0 0h99v1h-97l1 14 1 216v231l-2 2v-2h-83l-29-1v-1h112l-1-115 1-114h-114l1 116h-5l2-3v-112l-105-1v-1l105-1v-2l2 1v1h113v-112h-94l-5-1v-1h99z" fill="#aaa"/>
<path transform="translate(924,392)" d="m0 0h38v38h-38z" fill="#010101"/>
<path transform="translate(1725,1593)" d="m0 0h8l6 1v62l31 1v13h-28l-9-2-7-7-2-6v-61z" fill="#010101"/>
<path transform="translate(1252,1110)" d="m0 0h344l-1 2-74 1h-23l-15-1v116l-1 87-2 1v-42l1-47h-111v-1h111v-114l-57 1h-47l-10-1v111h-2v-30l1-81-36 1h-72l-6-1z" fill="#D6D6D6"/>
<path transform="translate(1363,431)" d="m0 0h3l1 4v39l-1 56-1-2h-49v-1h49v-48l-48 1-2 1 1-4 13-12 27-27 5-6z" fill="#FAFAFA"/>
<path transform="translate(1017,245)" d="m0 0h37l1 2-1 36-37 1z" fill="#010101"/>
<path transform="translate(1290,1607)" d="m0 0h11l5 3 4 6 1 6v20l-3 9-7 6h-10l-6-3-4-8-1-18 2-12 3-5z" fill="#F9F9F9"/>
<path transform="translate(1794,1607)" d="m0 0h33l1 2v47h-33l-1-2v-14l23-1v-9l1-3-24-1z" fill="#FAFAFA"/>
<path transform="translate(881,1606)" d="m0 0 19 1 5 4 2 9v26l-3 7-6 4h-13l-4-2-1-2v-46z" fill="#F8F8F8"/>
<path transform="translate(1136,1606)" d="m0 0 18 1 6 5 2 9v24l-3 8-6 4h-12l-5-1-1-2v-47z" fill="#F9F9F9"/>
<path transform="translate(1827 1e3)" d="m0 0h1l1 109v64l-1 43h-1l-1-101 1-5-97 1-17-1v112l1 3-1 72-1 40h-1v-48l1-64h-110v-1l109-1v-113l-77 1h-22l-13-1-1-2h228z" fill="#C7C7C7"/>
<path transform="translate(1019)" d="m0 0h2v74l1 2-1 73-1 41 114-1v-53l1-60h-111v-1l110-1 1-74h1l1 77-1 113h83v1l-82 1v56l-3-1v-56l-113 1-1 48h-2v-15l1-34h-112v-1h112v-114h-111l2-2 109 1z" fill="#A9A9A9"/>
<path transform="translate(1021,536)" d="m0 0h26l-1 38-12 11-10 8h-3z" fill="#FCFCFC"/>
<path transform="translate(558,1650)" d="m0 0h1l1 9 1 28-2 22h-1v-22l-38 1h-191v21h-1v-21h-113l-1 21h-1v-21h-114v21h-2l1-21h-98v-1l40-1h58v-15h-17l1-2 17 1 1 16h112l1-20h1l1 21 8-1h105v-11h1v11l114-1v-9l2 1v9h113l-1-33z" fill="#aaa"/>
<path transform="translate(345,1594)" d="m0 0h15v76h-15z" fill="#010101"/>
<path transform="translate(213,76)" d="m0 0h1l1 88v24h112v-79h1v82h-112v112l92 1v1h-92v61l-1 50h-1l-1-110-28-1v-1h28v-112l-6-1-31-1v-2h37z" fill="#D4D4D4"/>
<path transform="translate(328,540)" d="m0 0h1l1 112-1 113 2 1-1 2v115l-1 112 46 1v1h-46l1 115-1 112h-1v-112l-3-1h2v-113l-107-1v-1h107v-114-3l1-113h-107v-1h107l-1-115z" fill="#aaa"/>
<path transform="translate(99,890)" d="m0 0h1v105h61v1l-43 1h-18v113h113l-1 2-93 1-19-1-1 2v-2h-99v-2h98v-113h-98l1-2h97v-48z" fill="#CFCFCF"/>
<path transform="translate(443,549)" d="m0 0 2 2v95l-1 3 110 1v1l-10 1h-99v66l-1 47h80l1 2-2 2v-2h-79v94h-1v-94h-88l-23-1v-1h111l-1-3 1-111h-81v-1h81z" fill="#A9A9A9"/>
<path transform="translate(1049,781)" d="m0 0h24l8 1v32h-32z" fill="#010101"/>
<path transform="translate(1087,317)" d="m0 0h32v32h-32z" fill="#010101"/>
<path transform="translate(1595,74)" d="m0 0h119l-2 115h86v1l-134 1h-65v-1l58-1h54v-113h-114l1 115v115l-1 92h-1v-92l-2-1 1-8v-106h-35v-1h35z" fill="#A9A9A9"/>
<path transform="translate(1222,239)" d="m0 0h32v32h-32z" fill="#010101"/>
<path transform="translate(1367,191)" d="m0 0h28l1 2-5 15-10 21-10 17-5 7-2-4 1-2 1-11z" fill="#F9F9F9"/>
<path transform="translate(1941,995)" d="m0 0h107v2h-106v113h106v3h-89l-17-1v112h-1v-112l-58 1h-40l-14-1-1-2h112v-91l1-22h-8v-1z" fill="#ddd"/>
<path transform="translate(558,317)" d="m0 0h1l1 7v58l-1 37h114l-1 2h-224l-3-1v91l-1 23 2 1-2 3-2-4v-115l1-85h1l1 5v80l3-1 110 1z" fill="#ccc"/>
<path transform="translate(1323,569)" d="m0 0h31l1 4v27l-1 1h-31z" fill="#010101"/>
<path transform="translate(1481,1506)" d="m0 0h1v65h114v-54h1v54l115-1 113 1v1l-112 1-1 33h-1l-1-33h-112l-1 26h-1v-26h-112l-2-1v20l2 1-8 1-2-1-1 2v-3h7v-19h-111l3-2 108-1v-60z" fill="#aaa"/>
<path transform="translate(1136,1363)" d="m0 0h12l9 2 6 7 1 5v23h-28z" fill="#F9F9F9"/>
<path transform="translate(1367,162)" d="m0 0 11 1 9 3 7 8 2 6v10l-1 1h-28v45l-1 11h-1v-56l-2 1h-23l-53-1v-1h78v-26z" fill="#F8F8F8"/>
<path transform="translate(832,880)" d="m0 0 187 2v1h-111l-2-1v113l112 1v1l-112 1-1 112h114v3h-113l-2 2v-3h-7v-1l6-1 1-113-2-1 1-1 1-112h-53l-24-1v-1z" fill="#aaa"/>
<path transform="translate(1018,765)" d="m0 0h112v2h-108l-1 68v45l15 1v1h-15v113l1 2-1 61v121l-1 46h-1v-110l-1-4v-115l1-114h-104v-1h104v-114z" fill="#aaa"/>
<path transform="translate(929,249)" d="m0 0h31l1 2-1 29h-31z" fill="#010101"/>
<path transform="translate(559,422)" d="m0 0h1v69l-1 43 124 1 20 1v1h-28v81l-1 7-2-2 1-44v-42l-113-1v30l-1 84h74v1l-9 1h-65l1 77h-3v-77l-2-2 2-1 1-113h-97v-1l96-1 1-109z" fill="#A9A9A9"/>
<path transform="translate(215,535)" d="m0 0 1 3v61l-1 50h113l-2 3-110-1v113l5 1v1h-6l-1 2-1-5v-63l1-49h-111l3-2h108l-1-2v-36l1-75z" fill="#DEDEDE"/>
<path transform="translate(328,1225)" d="m0 0 2 1-1 114h113l1 2-2 1h-111l-1 113-2-3 1-111h-96v-1h96v-114h-98v-1zm-110 231h110v1h-110z" fill="#aaa"/>
<path transform="translate(327,305)" d="m0 0h3l1 113h112v3h-93l-20-1v114l-2-1v-113h-110l3-2h107z" fill="#ccc"/>
<path transform="translate(670,967)" d="m0 0h3v29l-53 1-1-3 20-11 16-8z" fill="#FAFAFA"/>
<path transform="translate(1941)" d="m0 0h1v74h106v2h-106l1 114v115l-4-1h2v-114l-2-1h2l-1-113-112-1v89h-1l-1-88-94-1v-1h209z" fill="#B2B2B2"/>
<path transform="translate(1015,1606)" d="m0 0 4 1 1 2v48l-6 1-7-4-4-9v-25l3-9 5-4z" fill="#F1F1F1"/>
<path transform="translate(1250)" d="m0 0 2 1v73l113 1v-75h2v74l81 1v1h-81v34l-1 10h-1v-44l-113 1v99h-2l-1-7 1-93h-111v-1l110-1z" fill="#A9A9A9"/>
<path transform="translate(1826,76)" d="m0 0h1l1 88v24h112v-84h1v87h-112l-1 19-2-1v-17l-6-1-22-1-86-1v-61h1v60h113z" fill="#D1D1D1"/>
<path transform="translate(214,1121)" d="m0 0h1v104l15 1v1h-14v60l-1 51h-2v-111h-97v-1l6-1 91-1v-93z" fill="#CACACA"/>
<path transform="translate(1941,1225)" d="m0 0 2 2v116l-1 112h106v2h-106v112h-2l1-112h-110v-1h110v-114l-3-1h3v-114h-8v-1z" fill="#B6B6B6"/>
<path transform="translate(904)" d="m0 0 2 1v190l-1 111h-1l-1-21v-47l1-43h-112v-1l7-1h104l1-113h-105l-6-1v-1h104l7 1z" fill="#A9A9A9"/>
<path transform="translate(1482,767)" d="m0 0h1v228h-2v-113h-113v-2h113v-111z" fill="#D5D5D5"/>
<path transform="translate(1249,964)" d="m0 0h1l2 34v230l-1 73-1 22h-1v-49l1-47h-112v-1h112l-1-115 1-114h-112v-1l111-1z" fill="#aaa"/>
<path transform="translate(1598,880)" d="m0 0h228l1 4-1-2h-111l-2-1v113h-2v-112h-113z" fill="#DADADA"/>
<path transform="translate(664,497)" d="m0 0h18l8 1v24l-1 1h-25l-1-1v-24z" fill="#010101"/>
<path transform="translate(1596,1365)" d="m0 0 2 4v87l87 1v1h-87l-1 15h5l1 1v17h-1l-1-16-102-1v-1h97l-1-3v-12h-101l3-2h99z" fill="#D3D3D3"/>
<path transform="translate(1365,764)" d="m0 0 3 1v232l-1 111-2-1 1-110h-111v-1l110-1v-112-3-113l-18-1v-1z" fill="#aaa"/>
<path transform="translate(1134,271)" d="m0 0 2 2v32h114v-23l1-8h1v15l-1 16h71v1h-70l-1 79 2 1-2 1-2-1v-39l1-41h-114v64h-1l-1-63h-110l-7 2-1-2h2v-2l116-1v-31l-2-1z" fill="#A9A9A9"/>
<path transform="translate(674,965)" d="m0 0 1 2v29h19v1h-19v112l1 3-1 111-2 1v-111l-110-1v-1h110v-113h-27l-24-1v-1h51l-1-30z" fill="#aaa"/>
<path transform="translate(169,1607)" d="m0 0h19l5 5v13l-3 5-5 2h-15l-2-2v-11z" fill="#F5F5F5"/>
<path transform="translate(898,1363)" d="m0 0h6l1 1 1 109h40v1h-48l-9-3-4-5-1-2v-8h18l1-92h-5z" fill="#EAEAEA"/>
<path transform="translate(1133,840)" d="m0 0 2 1 1 3v36h54v2h-54v80h-1l-1-78-38-1v54h-1v-53h-53l-21-1v-1l15-1h58l39-1z" fill="#B4B4B4"/>
<path transform="translate(1940,305)" d="m0 0h3v114h105v2h-114l-103-1 4-2h42l64 1z" fill="#DEDEDE"/>
<path transform="translate(302,1606)" d="m0 0 10 1 5 5 1 2v9l-4 6-4 2h-16l-1-1v-16l2-6z" fill="#F5F5F5"/>
<path transform="translate(1711,1340)" d="m0 0 3 2-2 114h58v1h-57l-1 112-2-1 1-111h-106v-1h106v-113l-98-1v-1z" fill="#aaa"/>
<path transform="translate(789,365)" d="m0 0h1v54h21l1 2-3 1h-19v113h24v1h-24v94l-1 11h-1v-103l-18-1 4-2h15l-1-6v-108h-26v-1h27z" fill="#ACACAC"/>
<path transform="translate(1597,306)" d="m0 0h1v184l-2-2v-67h-114v-2l113-1v-54h1z" fill="#ddd"/>
<path transform="translate(98,1112)" d="m0 0 2 2v110l1 3-2 112h-1v-51l1-61h-99v-1l7-1h91z" fill="#C7C7C7"/>
<path transform="translate(1598,995)" d="m0 0h157v1l-23 1h-19v112h-2v-112h-113z" fill="#D6D6D6"/>
<path transform="translate(215,766)" d="m0 0h1v74l-1 40h111l1 2h-112l-1 2-2-4 1-2v-104z" fill="#D1D1D1"/>
<path transform="translate(1019,677)" d="m0 0 2 1-13 11-13 10-21 16-13 10-19 14-15 11-17 12-18 13-23 16-25 17h-2l1-5 16-10 37-25 34-24 38-28 21-16 12-9z" fill="#D6D6D6"/>
<path transform="translate(1664,190)" d="m0 0h99v1h-50v185h-1l-1-70-110-1v-1l109-1 1-112h-47z" fill="#D3D3D3"/>
<path transform="translate(99,1059)" d="m0 0h1v51h113l-1 2-93 1-19-1-1 2v-2h-99v-2h98z" fill="#DCDCDC"/>
<path transform="translate(98)" d="m0 0h2v74h124v1h-9v89h-1l-1-88h-113v53h-1l-1-53-9-1v-1h9z" fill="#BEBEBE"/>
<path transform="translate(1162,1437)" d="m0 0h1v19l-26 1-1-2v-16l1-1z" fill="#FDFDFD"/>
<path transform="translate(558,1509)" d="m0 0h1v98h-1v-34h-113l-1 18h-1v-18h-54v-2h54v-51h1v51h114z" fill="#A8A8A8"/>
<path transform="translate(1941,539)" d="m0 0h1l1 113v230l-1 112h-1l-1-114 1-114h-8v-1h8l-1-115z" fill="#aaa"/>
<path transform="translate(99,683)" d="m0 0h1v81l112 1v1l-61 1h-34l-17-1v18l-1 49h-1v-67l-5 1h-93v-2h98v-51z" fill="#D4D4D4"/>
<path transform="translate(1428,995)" d="m0 0h105v1l-33 1h-17v113h-2v-113h-110v-1z" fill="#CACACA"/>
<path transform="translate(1483,649)" d="m0 0h116l-1 114h-2v-108l1-4-10 1h-102l-2-1z" fill="#ddd"/>
<path transform="translate(207,1341)" d="m0 0h9v116l-1 79-1 33h-1v-84l1-28h-110v-1l50-1h38l21 1 1-114h-7z" fill="#aaa"/>
<path transform="translate(1942,76)" d="m0 0h1l1 112 104 1v2h-105v111h-1z" fill="#DEDEDE"/>
<path transform="translate(1596,1663)" d="m0 0h1l1 15-1 31h-2v-21h-113v21h-2v-21h-111v-1l52-1h60v-10h1v10h114z" fill="#A9A9A9"/>
<path transform="translate(96,1341)" d="m0 0h5l-1 73v45l-1 111-2-1v-47l1-65h-79v-1l7-1h72v-53l1-60z" fill="#B3B3B3"/>
<path transform="translate(1018,765)" d="m0 0h112v2h-108l-1 68v45l15 1v1h-16l-1-1v-114zm-103 116h104v1h-104z" fill="#A8A8A8"/>
<path transform="translate(1252,1110)" d="m0 0h115l1 2-1 111h-2v-30l1-81-36 1h-72l-6-1z" fill="#CFCFCF"/>
<path transform="translate(1481,534)" d="m0 0h2v233l-2 2v-2h-83l-29-1v-1h112l-1-115v-115z" fill="#B5B5B5"/>
<path transform="translate(442,127)" d="m0 0h1v64h-113v111h-1v-114h113z" fill="#DEDEDE"/>
<path transform="translate(788,1667)" d="m0 0 1 2h7v1h-6l1 17-1 22h-2v-21h-227l2-2h111l-1-7 2-2v9h114z" fill="#aaa"/>
<path transform="translate(1020,455)" d="m0 0h1v80h23v1h-23v20l-1 34h-1v-54l-7 1h-42l-62-1-2-2 113 1v-52z" fill="#A9A9A9"/>
<path transform="translate(558,1650)" d="m0 0h1l1 9 1 28-2 22h-1v-22l-38 1h-156v-2l79-1v-9l2 1v9h113l-1-33z" fill="#aaa"/>
<path transform="translate(903,305)" d="m0 0h35l24 1v1h-57l1 123-1 70-1 11h-1v-47l1-43h-25v-1h25l-1-80z" fill="#A8A8A8"/>
<path transform="translate(674,742)" d="m0 0h1l1 23h87l-1 3-87-1v68l-2 1v-58l1-11-117 1 1-3h114l1-21z" fill="#aaa"/>
<path transform="translate(1366,1512)" d="m0 0h1v81h-2v-20h-111v-2h111v-58z" fill="#aaa"/>
<path transform="translate(1826,765)" d="m0 0h107l8 1v1h-95l-17-1v75l-1 15h-1l-1-78z" fill="#CFCFCF"/>
<path transform="translate(444,1057)" d="m0 0 2 1-1 28v24l1 2-1 71-1 42h-1v-113h-97v-1l96-1 1-52z" fill="#ABABAB"/>
<path transform="translate(332,765)" d="m0 0h192l1 2-2 2v-2h-79v94h-1v-94h-88l-23-1z" fill="#aaa"/>
<path transform="translate(1828,1593)" d="m0 0h1v94l-1 22h-2v-21l-111-1v-1h112v-15h-25v-1h26v-13h-32v-1l31-1v-48z" fill="#B6B6B6"/>
<path transform="translate(1826,76)" d="m0 0h1l1 88v26l-1 1-29-1-86-1v-61h1v60h113z" fill="#ddd"/>
<path transform="translate(328,533)" d="m0 0 114 1 1 2h-108l-5-1v113h-1l-1-108-1-6z" fill="#DCDCDC"/>
<path transform="translate(1603,649)" d="m0 0h111l-1 113h-2v-110l-110-1z" fill="#ddd"/>
<path transform="translate(906,1110)" d="m0 0h113v3h-111l-2-1z" fill="#D2D2D2"/>
<path transform="translate(1281,451)" d="m0 0 2 1-3 2zm-3 3 2 1-4 6-8 8-8 7-15 14-20 18-8 7-7 7-11 9-14 12-13 11-2-1 11-10 8-7 20-18 8-7 17-16 10-9 17-16 8-7z" fill="#ddd"/>
<path transform="translate(1481,1142)" d="m0 0h1l1 86-1 87-2 1v-42l1-47h-111v-1h111z" fill="#aaa"/>
<path transform="translate(329,1340)" d="m0 0h113l1 2-2 1h-99l-12-1z" fill="#CECECE"/>
<path transform="translate(1074,1110)" d="m0 0h60l1 2v99h-1v-98h-61l-48-1v-1z" fill="#DEDEDE"/>
<path transform="translate(1137,1110)" d="m0 0h113l-1 2-20 1h-89l-3-1z" fill="#CBCBCB"/>
<path transform="translate(558,770)" d="m0 0h1v112h-46l-3-2h47v-106z" fill="#C4C4C4"/>
<path transform="translate(1595,190)" d="m0 0 2 1 1 115-1 92h-1v-92l-2-1 1-8z" fill="#aaa"/>
<path transform="translate(1827 1e3)" d="m0 0h1l1 109v64l-1 43h-1l-1-106z" fill="#B9B9B9"/>
<path transform="translate(735,74)" d="m0 0h56v117l-1 47h-1l-1-50v-30l1-82h-91v-1z" fill="#aaa"/>
<path transform="translate(1365)" d="m0 0h2v74l81 1v1h-81v34l-1 10h-1z" fill="#A8A8A8"/>
<path transform="translate(1942,1340)" d="m0 0h106v3h-89l-16-1z" fill="#ddd"/>
<path transform="translate(172,418)" d="m0 0h43l1 1v59l-1 54h-1v-112h-111v-1z" fill="#DEDEDE"/>
<path transform="translate(203,1226)" d="m0 0h13v61l-1 51h-2v-111h-10z" fill="#C9C9C9"/>
<path transform="translate(213,882)" d="m0 0h3v71l-1 42h-2z" fill="#CBCBCB"/>
<path transform="translate(1774,418)" d="m0 0h55l1 2-1 6v50l-1 56h-1l-1-111-107-1v-1z" fill="#ddd"/>
<path transform="translate(215,1110)" d="m0 0h112l-2 2-29 1h-71l-9-1z" fill="#D0D0D0"/>
<path transform="translate(1366,163)" d="m0 0h1v27l29-1-1 2h-28v45l-1 11h-1v-56l-2 1h-23l-53-1v-1h78v-26z" fill="#aaa"/>
<path transform="translate(213,1338)" d="m0 0h2v2h113v1l-51 1v1h-54l-7-1h-55v-2h52z" fill="#DEDEDE"/>
<path transform="translate(904)" d="m0 0 2 1v83l-2 2v-10h-105l-6-1v-1h104l7 1z" fill="#aaa"/>
<path transform="translate(1080,1614)" d="m0 0 2 1 7 24 1 4h-19l3-10z" fill="#F0F0F0"/>
<path transform="translate(1829,1340)" d="m0 0h112v3h-106l-6-1z" fill="#D5D5D5"/>
<path transform="translate(832,880)" d="m0 0 187 2v1h-111l-2-1v9l-2-2v-6h-53l-24-1v-1z" fill="#D2D2D2"/>
<path transform="translate(1942,1110)" d="m0 0h106v3h-89l-16-1z" fill="#DEDEDE"/>
<path transform="translate(1364,1640)" d="m0 0h2l1 45v24h-2v-21h-110l2-2h108z" fill="#aaa"/>
<path transform="translate(1354,1607)" d="m0 0h13l-1 19h-14l-1-1 1-16z" fill="#EFEFEF"/>
<path transform="translate(1134,271)" d="m0 0 2 2v97h-1l-1-63h-110l-7 2-1-2h2v-2l116-1v-31l-2-1z" fill="#A9A9A9"/>
<path transform="translate(788,382)" d="m0 0h1v38l-1 2h-28l-85-1v-2h113z" fill="#D7D7D7"/>
<path transform="translate(789,1365)" d="m0 0h1l1 93-1 15h7v1h-10l2-1v-16l-67 1h-38v5h-1l-1-11 2-1v6l13-1h92z" fill="#ACACAC"/>
<path transform="translate(1019)" d="m0 0h2v74l1 2-1 24h-1l-1-24h-111l2-2 109 1z" fill="#aaa"/>
<path transform="translate(1941,1674)" d="m0 0h1v12h106v2l-106-1v22h-1v-22h-111v-1h111z" fill="#aaa"/>
<path transform="translate(442,635)" d="m0 0h1v17h-99l-14-1v-2h112z" fill="#DEDEDE"/>
<path transform="translate(913,756)" d="m0 0h3v2l-19 13-12 9-16 11-25 17h-2l1-5 16-10 37-25z" fill="#DBDBDB"/>
<path transform="translate(1135)" d="m0 0h1l1 77-1 59h-1v-60h-111v-1l110-1z" fill="#aaa"/>
<path transform="translate(1135,1670)" d="m0 0h1l1 18-1 21h-1l-1-21h-111l4-2h108l-1-3v-12z" fill="#aaa"/>
<path transform="translate(1019,1674)" d="m0 0h2v35h-2v-22l-17 1h-83l-11-1v-1h111z" fill="#aaa"/>
<path transform="translate(1133,649)" d="m0 0 42 1 1 2h-37l-3-1v62l-1 39h-1z" fill="#A8A8A8"/>
<path transform="translate(1483,1110)" d="m0 0h113l-1 2-74 1h-23l-15-1z" fill="#D9D9D9"/>
<path transform="translate(81,1669)" d="m0 0 18 1 1 16 30 1v1h-31v21h-2l1-21h-98v-1l40-1h58v-15h-17z" fill="#A9A9A9"/>
<path transform="translate(1941,1225)" d="m0 0 2 2v116l-1 112h-1v-113l-3-1h3v-114h-8v-1z" fill="#aaa"/>
<path transform="translate(1036,881)" d="m0 0h63l35 1v1h-38v54h-1v-53h-53l-21-1v-1z" fill="#D1D1D1"/>
<path transform="translate(1828,651)" d="m0 0h1v114l-3-1v-65l1-47z" fill="#DEDEDE"/>
<path transform="translate(214,214)" d="m0 0h2v33l-1 58h-30v-1h28v-89z" fill="#ddd"/>
<path transform="translate(1714,1110)" d="m0 0h112v2l-96 1-16-1z" fill="#DEDEDE"/>
<path transform="translate(1828,649)" d="m0 0h113l-2 3h-57l-53-1z" fill="#DEDEDE"/>
<path transform="translate(1366,1225)" d="m0 0 2 2-2 100h-1v-99l-111-1v-1z" fill="#aaa"/>
<path transform="translate(215,649)" d="m0 0h113l-2 3-110-1z" fill="#DEDEDE"/>
<path transform="translate(1365,536)" d="m0 0h2l1 116h-5l2-3z" fill="#aaa"/>
<path transform="translate(445,649)" d="m0 0 109 1v1l-10 1h-99z" fill="#C4C4C4"/>
<path transform="translate(898,1363)" d="m0 0h6l1 1 1 93-1 15h-2v-108h-5z" fill="#C1C1C1"/>
<path transform="translate(1365,431)" d="m0 0 2 4v39l-1 56-1-2h-49v-1h49l-1-50v-35z" fill="#C9C9C9"/>
<path transform="translate(330,418)" d="m0 0h113v3h-93l-20-1z" fill="#DEDEDE"/>
<path transform="translate(1250,658)" d="m0 0h1l1 110-1 53h-1l-1-54h-27l4-2h24z" fill="#A7A7A7"/>
<path transform="translate(904,602)" d="m0 0h1l1 50-1 31h-1v-31h-66l1-2 64-1z" fill="#A8A8A8"/>
<path transform="translate(327,109)" d="m0 0h1v82h-82v-1h49v-2h32z" fill="#DEDEDE"/>
<path transform="translate(1712,1340)" d="m0 0h77v2l-16 1h-58z" fill="#ccc"/>
<path transform="translate(1019,1446)" d="m0 0h2v48l-1 98h-1v-134h-14v-1h14z" fill="#A6A6A6"/>
<path transform="translate(215,188)" d="m0 0h80v2l-79 1-1 23h-1l-1-9v-13z" fill="#D1D1D1"/>
<path transform="translate(899,1669)" d="m0 0h6l1 9v29l-2 2v-22l-24 1h-55l-33-1v-1h112v-16h-5z" fill="#aaa"/>
<path transform="translate(1691,1670)" d="m0 0h23l-1 35-2 4v-22h-107v-1l107-1 1-14h-21z" fill="#aaa"/>
<path transform="translate(789,365)" d="m0 0h1v54h21l1 2-3 1h-19v32h-1l-1-33h-26v-1h27z" fill="#A8A8A8"/>
<path transform="translate(1940,104)" d="m0 0h1v87h-38l-3-1v-2h40z" fill="#DEDEDE"/>
<path transform="translate(672,641)" d="m0 0 2 2v6l1 3v37l-1 5h-1l-1-13v-29h-8v-4z" fill="#C1C1C1"/>
<path transform="translate(1597,306)" d="m0 0h1v106l-1 5h-1l-1-5v-48h1z" fill="#DEDEDE"/>
<path transform="translate(161,995)" d="m0 0h68v1l-14 1-1 2v-2h-96v-1z" fill="#CDCDCD"/>
<path transform="translate(1826,997)" d="m0 0h3v65h-1l-1 36h-1z" fill="#DEDEDE"/>
<path transform="translate(868,1110)" d="m0 0h35v1l-9 2h-101v-1h75z" fill="#DEDEDE"/>
<path transform="translate(1019,365)" d="m0 0h1l1 28v29h-47l-7-1v-1l51-1z" fill="#B9B9B9"/>
<path transform="translate(558,317)" d="m0 0h1l1 7v58l-1 37 2 1h-4z" fill="#aaa"/>
<path transform="translate(1826,1570)" d="m0 0 114 1v1h-112v21l-2-1-1-21z" fill="#ACACAC"/>
<path transform="translate(906,1110)" d="m0 0h53l-1 3h-50l-2-1z" fill="#CDCDCD"/>
<path transform="translate(444,449)" d="m0 0h1v62l-1 23 2 1-2 3-2-4 1-84z" fill="#aaa"/>
<path transform="translate(1365,1110)" d="m0 0 3 1-1 112h-2v-30l1-81h-8v-1z" fill="#aaa"/>
<path transform="translate(101,1340)" d="m0 0h60v2l-10 1h-29l-21-1z" fill="#D1D1D1"/>
<path transform="translate(1137,1110)" d="m0 0h67l-1 3h-63l-3-1z" fill="#DEDEDE"/>
<path transform="translate(172,418)" d="m0 0h43v3l-112-1v-1z" fill="#DEDEDE"/>
<path transform="translate(214,704)" d="m0 0h1l1 8v52l5 1v1h-6l-1 2-1-5v-50z" fill="#D8D8D8"/>
<path transform="translate(1018,305)" d="m0 0h114v1l-108 1-7 2-1-2h2z" fill="#aaa"/>
<path transform="translate(1611,1340)" d="m0 0h100v1l-85 1v1h-19l-3-2z" fill="#DEDEDE"/>
<path transform="translate(1386,1341)" d="m0 0h62l-1 2-59 1z" fill="#CBCBCB"/>
<path transform="translate(1941,995)" d="m0 0 2 2-1 112h-1v-112h-8v-1z" fill="#aaa"/>
<path transform="translate(1367,710)" d="m0 0h1v19l-1 35h-2v-49z" fill="#DEDEDE"/>
<path transform="translate(215,651)" d="m0 0h1v61l-3 1 1-61z" fill="#DEDEDE"/>
<path transform="translate(1941,1110)" d="m0 0 2 2-1 112h-1v-112l-3-1z" fill="#aaa"/>
<path transform="translate(1941,424)" d="m0 0h1l1 112-2 1-1-3z" fill="#aaa"/>
<path transform="translate(1941,307)" d="m0 0h1l1 113h-3z" fill="#aaa"/>
<path transform="translate(1365,532)" d="m0 0 2 1v3h-107v-1l105-1z" fill="#A9A9A9"/>
<path transform="translate(1019,1674)" d="m0 0h2v35h-2v-22l-17 1h-12v-2h29z" fill="#A8A8A8"/>
<path transform="translate(1074,1110)" d="m0 0h20l-1 3h-20l-48-1v-1z" fill="#BFBFBF"/>
<path transform="translate(1367,1110)" d="m0 0h51l-1 3h-40l-9-1z" fill="#DEDEDE"/>
<path transform="translate(868,787)" d="m0 0 2 1-2 4-24 16h-2l1-5 16-10z" fill="#EAEAEA"/>
<path transform="translate(1318,1110)" d="m0 0h47v1l-7 1-28 1h-13z" fill="#DEDEDE"/>
<path transform="translate(558,1650)" d="m0 0h1l1 9 1 28-2 22h-1v-22l-2-1h2l-1-33z" fill="#AFAFAF"/>
<path transform="translate(284,1110)" d="m0 0h43l-2 2-29 1h-13z" fill="#DEDEDE"/>
<path transform="translate(1133,840)" d="m0 0 2 1 1 3v36h-2l-1-24z" fill="#CECECE"/>
<path transform="translate(212,1640)" d="m0 0h1l2 22v23l-3 1z" fill="#DEDEDE"/>
<path transform="translate(1366,163)" d="m0 0h1v27l29-1-1 2-29 1-1-1v-27z" fill="#A4A4A4"/>
<path transform="translate(558,652)" d="m0 0h1l1 77h-3z" fill="#ABABAB"/>
<path transform="translate(1691,1670)" d="m0 0h23l-1 35-2 4v-22l-2-1 2-1 1-14h-21z" fill="#A7A7A7"/>
<path transform="translate(1019,677)" d="m0 0 2 1-13 11-26 20-2-2 21-16z" fill="#BDBDBD"/>
<path transform="translate(1206,521)" d="m0 0h2l-2 4-28 24-6 5-2-1 11-10 8-7 10-9z" fill="#C3C3C3"/>
<path transform="translate(1481,806)" d="m0 0h1l1 76-2 2-1-4z" fill="#aaa"/>
<path transform="translate(176,188)" d="m0 0h37l1 3-38-1z" fill="#DEDEDE"/>
<path transform="translate(1136,649)" d="m0 0 39 1 1 2h-37z" fill="#C8C8C8"/>
<path transform="translate(214,611)" d="m0 0h1l1 40h-3v-39z" fill="#DADADA"/>
<path transform="translate(1483,1110)" d="m0 0h35l-1 3h-19l-15-1z" fill="#DEDEDE"/>
<path transform="translate(1827,611)" d="m0 0h1l1 40h-3v-39z" fill="#DADADA"/>
<path transform="translate(979,708)" d="m0 0 2 1-12 10-16 12-3-2 14-10z" fill="#D3D3D3"/>
<path transform="translate(493,765)" d="m0 0h31l1 2-2 2v-2h-31z" fill="#AEAEAE"/>
<path transform="translate(1596,1663)" d="m0 0h1l1 15-1 31h-2v-21l-1-2h2z" fill="#A7A7A7"/>
<path transform="translate(790,419)" d="m0 0h21l1 2-3 1h-19z" fill="#D0D0D0"/>
<path transform="translate(788,1667)" d="m0 0 1 2h7v1h-6l1 17-1 22h-2v-21l-1-2h2z" fill="#ACACAC"/>
<path transform="translate(1225,504)" d="m0 0h2l-2 4-8 7-7 7-3-1 16-16z" fill="#D2D2D2"/>
<path transform="translate(959,1110)" d="m0 0h25l-1 3h-25z" fill="#DEDEDE"/>
<path transform="translate(1367,710)" d="m0 0h1v19l-1 13h-1l-1-27z" fill="#C9C9C9"/>
<path transform="translate(674,742)" d="m0 0h1l1 23 1 2h-7l2-2 1-21z" fill="#A6A6A6"/>
<path transform="translate(1281,451)" d="m0 0 2 1-3 2zm-3 3 2 1-4 6-8 8-3-1 6-7z" fill="#D8D8D8"/>
<path transform="translate(518,802)" d="m0 0 1 2-9 15-2 2h-2l-2 1 2-5z" fill="#D3D3D3"/>
<path transform="translate(854,796)" d="m0 0 2 1v3l-12 8h-2l1-5z" fill="#E0E0E0"/>
<path transform="translate(1264,468)" d="m0 0h2l-2 4-8 8-6 4 2-5 9-9z" fill="#E3E3E3"/>
<path transform="translate(181,418)" d="m0 0h34v3l-35-1z" fill="#D8D8D8"/>
<path transform="translate(880,779)" d="m0 0h3l-1 3-13 9v-3-2z" fill="#E0E0E0"/>
<path transform="translate(212,1573)" d="m0 0h3l-1 20-2 4z" fill="#DCDCDC"/>
<path transform="translate(1020,556)" d="m0 0h1v37l2 1h-4z" fill="#DCDCDC"/>
<path transform="translate(444,384)" d="m0 0h1l1 36h-4l1-3z" fill="#D4D4D4"/>
<path transform="translate(1826,1098)" d="m0 0h2l1 20-2 1-1-7z" fill="#CFCFCF"/>
<path transform="translate(927,746)" d="m0 0 3 1-5 4-9 6-2-2z" fill="#D0D0D0"/>
<path transform="translate(1250,480)" d="m0 0 2 1-4 6-4 4-3-1 6-7z" fill="#D3D3D3"/>
<path transform="translate(890,772)" d="m0 0h3l-2 4-6 4-4-2z" fill="#D5D5D5"/>
<path transform="translate(213,868)" d="m0 0h2l1 14-2 2-2-4 1-2z" fill="#CDCDCD"/>
<path transform="translate(1826,880)" d="m0 0h3v11l-2 2-1-9z" fill="#CACACA"/>
<path transform="translate(671,643)" d="m0 0h1v7h-7z" fill="#FEFEFE"/>
<path transform="translate(1215,513)" d="m0 0h2l-2 4-5 5-3-1 5-5z" fill="#D7D7D7"/>
<path transform="translate(949,730)" d="m0 0 3 1-9 7h-2l1-3z" fill="#D9D9D9"/>
<path transform="translate(1018,305)" d="m0 0h15v1l-13 2h-4l2-1z" fill="#B2B2B2"/>
<path transform="translate(450,1622)" d="m0 0h2l1 3-1 18h-1z" fill="#D3D3D3"/>
<path transform="translate(1481,1110)" d="m0 0h2v12l-2 1-1-12z" fill="#C6C6C6"/>
</svg>
